<svg width="18" height="21" viewBox="0 0 18 21" fill="none" xmlns="http://www.w3.org/2000/svg">
<path d="M8.9 15C9.25 15 9.54583 14.8792 9.7875 14.6375C10.0292 14.3958 10.15 14.1 10.15 13.75C10.15 13.4 10.0292 13.1042 9.7875 12.8625C9.54583 12.6208 9.25 12.5 8.9 12.5C8.55 12.5 8.25417 12.6208 8.0125 12.8625C7.77083 13.1042 7.65 13.4 7.65 13.75C7.65 14.1 7.77083 14.3958 8.0125 14.6375C8.25417 14.8792 8.55 15 8.9 15ZM8 11.15H9.85C9.85 10.8667 9.8625 10.625 9.8875 10.425C9.9125 10.225 9.96667 10.0333 10.05 9.85C10.1333 9.66667 10.2375 9.49583 10.3625 9.3375C10.4875 9.17917 10.6667 8.98333 10.9 8.75C11.4833 8.16667 11.8958 7.67917 12.1375 7.2875C12.3792 6.89583 12.5 6.45 12.5 5.95C12.5 5.06667 12.2 4.35417 11.6 3.8125C11 3.27083 10.1917 3 9.175 3C8.25833 3 7.47917 3.225 6.8375 3.675C6.19583 4.125 5.75 4.75 5.5 5.55L7.15 6.2C7.26667 5.75 7.5 5.3875 7.85 5.1125C8.2 4.8375 8.60833 4.7 9.075 4.7C9.525 4.7 9.9 4.82083 10.2 5.0625C10.5 5.30417 10.65 5.625 10.65 6.025C10.65 6.30833 10.5583 6.60833 10.375 6.925C10.1917 7.24167 9.88333 7.59167 9.45 7.975C9.16667 8.20833 8.9375 8.4375 8.7625 8.6625C8.5875 8.8875 8.44167 9.125 8.325 9.375C8.20833 9.625 8.125 9.8875 8.075 10.1625C8.025 10.4375 8 10.7667 8 11.15ZM9 21L6 18H2C1.45 18 0.979167 17.8042 0.5875 17.4125C0.195833 17.0208 0 16.55 0 16V2C0 1.45 0.195833 0.979167 0.5875 0.5875C0.979167 0.195833 1.45 0 2 0H16C16.55 0 17.0208 0.195833 17.4125 0.5875C17.8042 0.979167 18 1.45 18 2V16C18 16.55 17.8042 17.0208 17.4125 17.4125C17.0208 17.8042 16.55 18 16 18H12L9 21ZM2 16H6.8L9 18.2L11.2 16H16V2H2V16Z" fill="#2169F5"/>
</svg>
