<svg width="18" height="18" viewBox="0 0 18 18" fill="none" xmlns="http://www.w3.org/2000/svg">
<mask id="mask0_19639_38610" style="mask-type:alpha" maskUnits="userSpaceOnUse" x="0" y="0" width="18" height="18">
<rect width="18" height="18" fill="#D9D9D9"/>
</mask>
<g mask="url(#mask0_19639_38610)">
<path d="M5.25 15.75C4.8375 15.75 4.48438 15.6031 4.19062 15.3094C3.89687 15.0156 3.75 14.6625 3.75 14.25V4.5H3V3H6.75V2.25H11.25V3H15V4.5H14.25V14.25C14.25 14.6625 14.1031 15.0156 13.8094 15.3094C13.5156 15.6031 13.1625 15.75 12.75 15.75H5.25ZM12.75 4.5H5.25V14.25H12.75V4.5ZM6.75 12.75H8.25V6H6.75V12.75ZM9.75 12.75H11.25V6H9.75V12.75Z" fill="#EB5757"/>
</g>
</svg>
