<svg width="90" height="90" viewBox="0 0 90 90" fill="none" xmlns="http://www.w3.org/2000/svg">
<circle cx="45" cy="45" r="45" fill="#EBF7FF"/>
<mask id="mask0_45280_35349" style="mask-type:alpha" maskUnits="userSpaceOnUse" x="0" y="0" width="90" height="90">
<circle cx="45" cy="45" r="45" fill="#D9D9D9"/>
</mask>
<g mask="url(#mask0_45280_35349)">
<path fill-rule="evenodd" clip-rule="evenodd" d="M77.7604 89.9335C77.5896 89.1319 74.9181 71.9262 74.6259 70.6842C74.0168 68.1112 72.8035 60.6172 71.1124 48.9941L68.5249 31.2327C72.6129 27.3855 70.9539 22.1529 65.8457 21.7719C65.8457 21.7719 65.2688 20.5893 64.8553 19.8199C64.0753 18.3354 62.4609 16.6728 60.5766 15.4012C56.912 12.9197 50.9025 11.5119 44.8361 11.5639C38.7697 11.5119 32.7602 12.9197 29.0881 15.4012C27.2038 16.6803 25.5894 18.3404 24.8094 19.8199C24.4034 20.5893 23.819 21.7719 23.819 21.7719C18.7133 22.1529 17.0593 27.3855 21.1473 31.2327L18.5622 48.9941C16.8686 60.6222 15.6553 68.1112 15.0462 70.6842C14.7515 71.9262 12.3707 89.1343 12.1875 89.9335H44.8361H77.7604Z" fill="#A7DAFF"/>
<ellipse cx="44.8997" cy="35.5602" rx="9.78056" ry="6.18517" fill="#213450"/>
<path d="M56.0027 68.1045C55.2599 65.3063 58.1297 59.1533 63.3394 57.7579C68.5491 56.3626 74.1227 60.2518 74.873 63.0524C75.6232 65.8531 73.4765 69.5518 70.416 67.2584C69.178 71.7339 62.802 71.3678 61.46 68.9655C59.7045 71.5113 56.4038 69.6013 56.0027 68.1045Z" fill="#7ABDEE"/>
<path d="M57.0955 30.7828C58.2237 30.7828 59.1383 29.6972 59.1383 28.3582C59.1383 27.0191 58.2237 25.9336 57.0955 25.9336C55.9673 25.9336 55.0527 27.0191 55.0527 28.3582C55.0527 29.6972 55.9673 30.7828 57.0955 30.7828Z" fill="#213450"/>
<path d="M32.574 30.7828C33.7022 30.7828 34.6168 29.6972 34.6168 28.3582C34.6168 27.0191 33.7022 25.9336 32.574 25.9336C31.4458 25.9336 30.5312 27.0191 30.5312 28.3582C30.5312 29.6972 31.4458 30.7828 32.574 30.7828Z" fill="#213450"/>
<path d="M48.7962 33.8042C46.9218 34.2594 45.4287 35.9047 45.3668 37.5846C45.2356 41.0483 50.7399 43.0399 54.6249 40.9295C55.8951 40.2368 56.8682 38.8563 56.9945 37.9606H57.7621C58.8095 37.9606 59.114 38.2798 59.3542 38.5272L59.4211 38.599C59.8049 38.9824 60.3149 38.5618 60.3149 38.0893C60.3149 37.6167 59.166 36.684 57.7992 36.684C57.532 36.679 57.2649 36.7005 57.0019 36.7484C56.923 36.2922 56.8054 35.8436 56.6503 35.4074C56.6503 35.4074 56.6652 35.4074 56.69 35.4074C57.02 35.3246 57.3601 35.2888 57.7002 35.301C58.2973 35.3321 58.8889 35.4317 59.4632 35.5979L59.5251 35.6152C59.9336 35.7983 60.3149 35.5905 60.3149 35.16C60.3149 34.205 57.4006 33.8537 56.0115 34.3955C56.0115 34.3955 55.8927 34.2174 55.4767 33.6533C54.2188 31.9511 52.0894 30.6646 49.2122 29.868C46.3342 29.1951 43.3396 29.1951 40.4616 29.868C37.5844 30.6646 35.455 31.9511 34.1971 33.6533C33.7812 34.2124 33.6623 34.3955 33.6623 34.3955C32.2732 33.8487 29.3613 34.2001 29.3613 35.1551C29.3613 35.5855 29.7426 35.7934 30.1512 35.6103L30.2131 35.593C30.7874 35.4268 31.379 35.3272 31.9761 35.2961C32.3162 35.2838 32.6563 35.3196 32.9863 35.4025C33.0111 35.4025 33.0259 35.4025 33.0259 35.4025C32.8709 35.8387 32.7533 36.2873 32.6743 36.7434C32.4114 36.6956 32.1443 36.674 31.877 36.6791C30.5102 36.6791 29.3613 37.597 29.3613 38.0843C29.3613 38.5717 29.8714 38.9775 30.2552 38.594L30.3221 38.5223C30.5697 38.2749 30.8668 37.9557 31.9142 37.9557H32.6818C32.808 38.8488 33.7812 40.2294 35.0514 40.9246C38.9364 43.035 44.4407 41.0458 44.3095 37.5796C44.2476 35.8997 42.7545 34.2545 40.8801 33.7993C40.0358 33.5939 40.0011 33.3564 40.7167 32.6909C41.4323 32.0254 43.1309 31.679 44.8394 31.6815C46.5479 31.6839 48.2564 32.0303 48.9621 32.6909C49.6678 33.3515 49.6405 33.5989 48.7962 33.8042Z" fill="white"/>
<path fill-rule="evenodd" clip-rule="evenodd" d="M22.0208 50.7564C21.8722 51.0405 21.7343 51.335 21.6074 51.64C21.4754 51.9569 21.3599 52.2736 21.2609 52.59C21.3599 52.2736 21.4754 51.9569 21.6074 51.64C21.7343 51.335 21.8722 51.0405 22.0208 50.7564ZM39.4565 51.5542L39.9975 52.8433L40.5202 52.7117C42.5436 52.2024 44.4736 52.3972 46.3371 53.3004C48.1944 54.2006 49.5276 55.6162 50.3491 57.5738L53.2732 64.542C53.3783 64.7925 53.3751 65.0094 53.2829 65.2309C53.1906 65.4525 53.0376 65.6106 52.7827 65.7198L49.3625 67.1855L49.6032 67.7591C49.7083 68.0095 49.7051 68.2264 49.6129 68.448C49.5207 68.6695 49.3676 68.8276 49.1127 68.9369C48.8579 69.0461 48.639 69.0473 48.4173 68.9604C48.1956 68.8734 48.0391 68.7248 47.934 68.4744L46.7643 65.6871C46.6593 65.4367 46.6624 65.2197 46.7546 64.9982C46.8469 64.7767 46.9999 64.6186 47.2548 64.5093C47.5097 64.4001 47.7286 64.3989 47.9503 64.4858C48.172 64.5728 48.3285 64.7213 48.4336 64.9718L48.6742 65.5453L51.2598 64.4372L48.6799 58.2892C47.9722 56.6029 46.7426 55.4098 45.0202 54.7341C43.2978 54.0584 41.5594 54.087 39.8433 54.8225C38.1272 55.5579 36.8983 56.8009 36.1816 58.5219C35.465 60.2429 35.4589 61.9655 36.1665 63.6518L38.7464 69.7999L41.332 68.6918L41.0913 68.1183C40.9862 67.8679 40.9894 67.6509 41.0816 67.4294C41.1738 67.2079 41.3269 67.0498 41.5818 66.9405C41.8366 66.8313 42.0555 66.8301 42.2772 66.917C42.4989 67.004 42.6554 67.1525 42.7605 67.403L43.9302 70.1903C44.0353 70.4407 44.0321 70.6576 43.9399 70.8792C43.8476 71.1007 43.6946 71.2588 43.4397 71.3681C43.1848 71.4773 42.9659 71.4785 42.7442 71.3916C42.5225 71.3046 42.366 71.156 42.2609 70.9056L42.0203 70.3321L38.6001 71.7978C38.3452 71.907 38.1263 71.9083 37.9046 71.8213C37.6829 71.7343 37.5264 71.5858 37.4213 71.3354L34.4973 64.3672C33.6758 62.4095 33.5956 60.4569 34.2463 58.4819C34.8993 56.5003 36.1024 54.9628 37.8712 53.8469L38.3282 53.5586L37.7873 52.2696C36.9932 50.3772 35.6297 49.0418 33.7206 48.2928C31.8116 47.5439 29.875 47.5846 27.9492 48.41C26.0233 49.2353 24.6481 50.6138 23.8538 52.5213C23.0595 54.4288 23.0616 56.3476 23.8557 58.24L25.0026 60.9731L25.4413 60.949C26.2706 60.9032 27.0411 61.0873 27.7668 61.5078C28.477 61.9194 28.9935 62.5086 29.3238 63.2958C29.7481 64.3068 29.7475 65.299 29.3264 66.3103C28.9052 67.3216 28.1953 68.0355 27.1665 68.4765C26.1376 68.9174 25.1363 68.9368 24.1242 68.5397C23.112 68.1426 22.4058 67.4533 21.9816 66.4423C21.6513 65.6552 21.5912 64.8703 21.7921 64.0683C21.9974 63.2487 22.4021 62.5611 23.0112 61.9904L23.3333 61.6885L22.1864 58.9554C21.1973 56.5981 21.1992 54.2485 22.1902 51.8686C23.1813 49.4888 24.862 47.7978 27.2609 46.7697C29.6598 45.7416 32.031 45.6962 34.4128 46.6306C36.7946 47.565 38.4674 49.197 39.4565 51.5542ZM24.8272 62.9019C24.2784 63.1371 23.8699 63.5348 23.6427 64.0805C23.4154 64.6262 23.4245 65.1877 23.6508 65.727C23.8771 66.2663 24.2702 66.6632 24.8164 66.8775C25.3625 67.0917 25.9294 67.0714 26.4782 66.8362C27.027 66.601 27.4355 66.2033 27.6628 65.6576C27.89 65.1119 27.8809 64.5504 27.6546 64.0111C27.4283 63.4718 27.0352 63.0749 26.4891 62.8606C25.9429 62.6464 25.3761 62.6667 24.8272 62.9019Z" fill="#00489D"/>
<path d="M34.4116 55.6651C33.3568 58.3643 27.3795 61.6177 22.3655 59.6558C17.3514 57.6938 15.1576 51.2637 16.2148 48.5645C17.2721 45.8653 21.1918 44.1558 22.2936 47.8099C25.9484 44.9376 30.8659 49.0049 30.5217 51.7363C33.4484 50.7293 34.9762 54.2203 34.4116 55.6651Z" fill="#7ABDEE"/>
</g>
</svg>
