<svg width="20" height="20" viewBox="0 0 16 20" fill="none" xmlns="http://www.w3.org/2000/svg">
<path d="M8 8C6.9 8 5.95833 7.60833 5.175 6.825C4.39167 6.04167 4 5.1 4 4C4 2.9 4.39167 1.95833 5.175 1.175C5.95833 0.391667 6.9 0 8 0C9.1 0 10.0417 0.391667 10.825 1.175C11.6083 1.95833 12 2.9 12 4C12 5.1 11.6083 6.04167 10.825 6.825C10.0417 7.60833 9.1 8 8 8ZM8 6C8.55 6 9.02083 5.80417 9.4125 5.4125C9.80417 5.02083 10 4.55 10 4C10 3.45 9.80417 2.97917 9.4125 2.5875C9.02083 2.19583 8.55 2 8 2C7.45 2 6.97917 2.19583 6.5875 2.5875C6.19583 2.97917 6 3.45 6 4C6 4.55 6.19583 5.02083 6.5875 5.4125C6.97917 5.80417 7.45 6 8 6ZM0 20V13.225C0 12.6583 0.141667 12.1375 0.425 11.6625C0.708333 11.1875 1.1 10.8167 1.6 10.55C2.45 10.1167 3.4125 9.75 4.4875 9.45C5.5625 9.15 6.73333 9 8 9C9.26667 9 10.4375 9.15 11.5125 9.45C12.5875 9.75 13.55 10.1167 14.4 10.55C14.9 10.8167 15.2917 11.1875 15.575 11.6625C15.8583 12.1375 16 12.6583 16 13.225V18C16 18.55 15.8042 19.0208 15.4125 19.4125C15.0208 19.8042 14.55 20 14 20H5.75C4.98333 20 4.33333 19.7333 3.8 19.2C3.26667 18.6667 3 18.0167 3 17.25C3 16.4833 3.26667 15.8333 3.8 15.3C4.33333 14.7667 4.98333 14.5 5.75 14.5H8.575L10.125 11.2C9.79167 11.1333 9.45 11.0833 9.1 11.05C8.75 11.0167 8.38333 11 8 11C6.8 11 5.73333 11.1458 4.8 11.4375C3.86667 11.7292 3.10833 12.0333 2.525 12.35C2.35833 12.4333 2.22917 12.5542 2.1375 12.7125C2.04583 12.8708 2 13.0417 2 13.225V20H0ZM5.75 18H6.95L7.65 16.5H5.75C5.55 16.5 5.375 16.575 5.225 16.725C5.075 16.875 5 17.05 5 17.25C5 17.45 5.075 17.625 5.225 17.775C5.375 17.925 5.55 18 5.75 18ZM9.15 18H14V13.225C14 13.0417 13.9542 12.8708 13.8625 12.7125C13.7708 12.5542 13.65 12.4333 13.5 12.35C13.3 12.25 13.0833 12.1458 12.85 12.0375C12.6167 11.9292 12.3667 11.825 12.1 11.725L9.15 18Z" fill="currentColor"/>
</svg>
