<svg width="24" height="24" viewBox="0 0 24 24" fill="none" xmlns="http://www.w3.org/2000/svg">
<circle cx="12" cy="12" r="12" fill="#213450"/>
<mask id="mask0_49537_240249" style="mask-type:alpha" maskUnits="userSpaceOnUse" x="0" y="0" width="24" height="24">
<circle cx="12" cy="12" r="12" fill="#536682"/>
</mask>
<g mask="url(#mask0_49537_240249)">
<path fill-rule="evenodd" clip-rule="evenodd" d="M23.1906 27.7706C23.128 27.4766 23.0318 27.051 22.9247 26.5954C22.7015 25.6516 22.2568 22.9028 21.6369 18.6393L20.6885 12.1243C22.1869 10.7132 21.5788 8.79381 19.7065 8.65405C19.7065 8.65405 19.4951 8.22026 19.3435 7.93803C19.0576 7.39353 18.4659 6.78369 17.7753 6.31723C16.4321 5.407 14.2295 4.89063 12.006 4.90969C9.78246 4.89063 7.57983 5.407 6.23393 6.31723C5.54328 6.78641 4.95156 7.39534 4.66568 7.93803C4.51684 8.22026 4.30266 8.65405 4.30266 8.65405C2.43129 8.79381 1.82504 10.7132 3.32341 12.1243L2.37593 18.6393C1.75516 22.9046 1.31046 25.6516 1.0872 26.5954C0.979203 27.051 0.888448 27.4775 0.821289 27.7706H23.1906Z" fill="#FFCD75"/>
<path d="M16.4987 11.9584C16.9122 11.9584 17.2475 11.5602 17.2475 11.069C17.2475 10.5779 16.9122 10.1797 16.4987 10.1797C16.0852 10.1797 15.75 10.5779 15.75 11.069C15.75 11.5602 16.0852 11.9584 16.4987 11.9584Z" fill="#213450"/>
<path d="M7.51143 11.9584C7.92494 11.9584 8.26016 11.5602 8.26016 11.069C8.26016 10.5779 7.92494 10.1797 7.51143 10.1797C7.09791 10.1797 6.7627 10.5779 6.7627 11.069C6.7627 11.5602 7.09791 11.9584 7.51143 11.9584Z" fill="#213450"/>
<ellipse cx="11.9995" cy="13.7605" rx="3.52" ry="2.24" fill="#213450"/>
<path d="M13.4574 13.0684C12.7703 13.2354 12.2231 13.8389 12.2004 14.4551C12.1523 15.7256 14.1698 16.4561 15.5937 15.682C16.0593 15.4279 16.416 14.9215 16.4623 14.593H16.7436C17.1275 14.593 17.2391 14.7101 17.3272 14.8008L17.3517 14.8272C17.4923 14.9678 17.6793 14.8135 17.6793 14.6402C17.6793 14.4669 17.2582 14.1248 16.7572 14.1248C16.6593 14.1229 16.5614 14.1308 16.465 14.1483C16.436 13.981 16.3929 13.8165 16.3361 13.6565C16.3361 13.6565 16.3416 13.6565 16.3506 13.6565C16.4716 13.6261 16.5963 13.613 16.7209 13.6175C16.9398 13.6289 17.1566 13.6654 17.3671 13.7264L17.3898 13.7327C17.5395 13.7999 17.6793 13.7236 17.6793 13.5657C17.6793 13.2154 16.6111 13.0866 16.102 13.2853C16.102 13.2853 16.0584 13.22 15.9059 13.0131C15.4449 12.3887 14.6644 11.9168 13.6098 11.6246C12.555 11.3777 11.4574 11.3777 10.4025 11.6246C9.34796 11.9168 8.56747 12.3887 8.10643 13.0131C7.95396 13.2182 7.9104 13.2853 7.9104 13.2853C7.40127 13.0848 6.33398 13.2136 6.33398 13.5639C6.33398 13.7218 6.47375 13.798 6.62349 13.7309L6.64618 13.7245C6.85669 13.6636 7.0735 13.627 7.29236 13.6156C7.41701 13.6111 7.54167 13.6243 7.66264 13.6547C7.67172 13.6547 7.67716 13.6547 7.67716 13.6547C7.62034 13.8147 7.57722 13.9792 7.54829 14.1465C7.4519 14.129 7.35401 14.1211 7.25606 14.1229C6.75509 14.1229 6.33398 14.4596 6.33398 14.6384C6.33398 14.8172 6.52094 14.966 6.66161 14.8253L6.68611 14.799C6.77687 14.7083 6.88578 14.5912 7.26967 14.5912H7.55101C7.5973 14.9188 7.95396 15.4252 8.41954 15.6802C9.84349 16.4543 11.861 15.7247 11.8129 14.4533C11.7902 13.8371 11.2429 13.2336 10.5559 13.0666C10.2464 12.9913 10.2337 12.9042 10.496 12.66C10.7583 12.4159 11.3809 12.2889 12.0071 12.2898C12.6333 12.2907 13.2595 12.4177 13.5182 12.66C13.7768 12.9023 13.7668 12.9931 13.4574 13.0684Z" fill="white"/>
</g>
</svg>
