<svg width="24" height="24" viewBox="0 0 24 24" fill="none" xmlns="http://www.w3.org/2000/svg">
<mask id="mask0_21143_2227" style="mask-type:alpha" maskUnits="userSpaceOnUse" x="0" y="0" width="24" height="24">
<rect x="0.47998" y="0.47998" width="23.04" height="23.04" fill="#D9D9D9"/>
</mask>
<g mask="url(#mask0_21143_2227)">
<path d="M2.40003 11.0399V9.11995H5.85603L1.72803 4.99195L3.07203 3.64795L7.20003 7.77595V4.31995H9.12003V11.0399H2.40003ZM4.32003 19.68C3.79203 19.68 3.34003 19.492 2.96403 19.116C2.58803 18.74 2.40003 18.2879 2.40003 17.7599V12.9599H4.32003V17.7599H12V19.68H4.32003ZM19.68 12.9599V6.23995H11.04V4.31995H19.68C20.208 4.31995 20.66 4.50795 21.036 4.88395C21.412 5.25995 21.6 5.71195 21.6 6.23995V12.9599H19.68ZM13.92 19.68V14.8799H21.6V19.68H13.92Z" fill="white"/>
</g>
</svg>
