<svg width="42" height="42" viewBox="0 0 42 42" fill="none" xmlns="http://www.w3.org/2000/svg">
<g id="acute">
<mask id="mask0_23711_37246" style="mask-type:alpha" maskUnits="userSpaceOnUse" x="0" y="0" width="42" height="42">
<rect id="Bounding box" width="42" height="42" fill="#D9D9D9"/>
</mask>
<g mask="url(#mask0_23711_37246)">
<path id="acute_2" d="M26.25 35C22.3417 35 19.0312 33.6438 16.3187 30.9312C13.6062 28.2188 12.25 24.9083 12.25 21C12.25 17.1208 13.6062 13.8177 16.3187 11.0906C19.0312 8.36354 22.3417 7 26.25 7C30.1292 7 33.4323 8.36354 36.1594 11.0906C38.8865 13.8177 40.25 17.1208 40.25 21C40.25 24.9083 38.8865 28.2188 36.1594 30.9312C33.4323 33.6438 30.1292 35 26.25 35ZM26.25 31.5C29.1667 31.5 31.6458 30.4792 33.6875 28.4375C35.7292 26.3958 36.75 23.9167 36.75 21C36.75 18.0833 35.7292 15.6042 33.6875 13.5625C31.6458 11.5208 29.1667 10.5 26.25 10.5C23.3333 10.5 20.8542 11.5208 18.8125 13.5625C16.7708 15.6042 15.75 18.0833 15.75 21C15.75 23.9167 16.7708 26.3958 18.8125 28.4375C20.8542 30.4792 23.3333 31.5 26.25 31.5ZM28 20.3V15.75C28 15.2542 27.8323 14.8385 27.4969 14.5031C27.1615 14.1677 26.7458 14 26.25 14C25.7542 14 25.3385 14.1677 25.0031 14.5031C24.6677 14.8385 24.5 15.2542 24.5 15.75V21.0438C24.5 21.2771 24.551 21.5031 24.6531 21.7219C24.7552 21.9406 24.8792 22.1229 25.025 22.2688L29.0063 26.25C29.3562 26.6 29.7719 26.775 30.2531 26.775C30.7344 26.775 31.15 26.6 31.5 26.25C31.85 25.9 32.025 25.4844 32.025 25.0031C32.025 24.5219 31.85 24.1062 31.5 23.7563L28 20.3ZM5.25 15.75C4.75417 15.75 4.33854 15.5823 4.00312 15.2469C3.66771 14.9115 3.5 14.4958 3.5 14C3.5 13.5042 3.66771 13.0885 4.00312 12.7531C4.33854 12.4177 4.75417 12.25 5.25 12.25H8.75C9.24583 12.25 9.66146 12.4177 9.99687 12.7531C10.3323 13.0885 10.5 13.5042 10.5 14C10.5 14.4958 10.3323 14.9115 9.99687 15.2469C9.66146 15.5823 9.24583 15.75 8.75 15.75H5.25ZM3.5 22.75C3.00417 22.75 2.58854 22.5823 2.25313 22.2469C1.91771 21.9115 1.75 21.4958 1.75 21C1.75 20.5042 1.91771 20.0885 2.25313 19.7531C2.58854 19.4177 3.00417 19.25 3.5 19.25H8.75C9.24583 19.25 9.66146 19.4177 9.99687 19.7531C10.3323 20.0885 10.5 20.5042 10.5 21C10.5 21.4958 10.3323 21.9115 9.99687 22.2469C9.66146 22.5823 9.24583 22.75 8.75 22.75H3.5ZM5.25 29.75C4.75417 29.75 4.33854 29.5823 4.00312 29.2469C3.66771 28.9115 3.5 28.4958 3.5 28C3.5 27.5042 3.66771 27.0885 4.00312 26.7531C4.33854 26.4177 4.75417 26.25 5.25 26.25H8.75C9.24583 26.25 9.66146 26.4177 9.99687 26.7531C10.3323 27.0885 10.5 27.5042 10.5 28C10.5 28.4958 10.3323 28.9115 9.99687 29.2469C9.66146 29.5823 9.24583 29.75 8.75 29.75H5.25Z" fill="#FFCD75"/>
</g>
</g>
</svg>