<svg width="100" height="100" viewBox="0 0 100 100" fill="none" xmlns="http://www.w3.org/2000/svg">
<circle cx="50" cy="50" r="50" fill="#FAFAFA"/>
<mask id="mask0_12759_42483" style="mask-type:alpha" maskUnits="userSpaceOnUse" x="0" y="0" width="100" height="100">
<circle cx="50" cy="50" r="50" fill="url(#paint0_linear_12759_42483)"/>
</mask>
<g mask="url(#mask0_12759_42483)">
<g clip-path="url(#clip0_12759_42483)">
<path fill-rule="evenodd" clip-rule="evenodd" d="M91.0035 100C90.7739 98.9325 90.4212 97.3873 90.0287 95.7334C89.2102 92.3069 87.58 82.3273 85.3077 66.8488L81.831 43.1962C87.3238 38.0729 85.0947 31.1046 78.2312 30.5972C78.2312 30.5972 77.456 29.0224 76.9004 27.9977C75.8524 26.0209 73.6832 23.8069 71.1514 22.1134C66.2275 18.8088 58.1529 16.9341 50.0018 17.0033C41.8507 16.9341 33.7761 18.8088 28.8422 22.1134C26.3104 23.8168 24.1412 26.0275 23.0932 27.9977C22.5476 29.0224 21.7624 30.5972 21.7624 30.5972C14.9022 31.1046 12.6798 38.0729 18.1726 43.1962L14.6992 66.8488C12.4236 82.3339 10.7934 92.3069 9.97493 95.7334C9.57902 97.3873 9.24632 98.9358 9.00012 100H91.0035Z" fill="#FFCD75"/>
<ellipse cx="50.0883" cy="48.9586" rx="13.1416" ry="8.23674" fill="#213450"/>
<path d="M65.0064 92.3003C64.0083 88.574 67.8643 80.3801 74.8642 78.5219C81.8642 76.6637 89.3532 81.8429 90.3613 85.5725C91.3694 89.3021 88.4849 94.2277 84.3727 91.1735C82.7093 97.1336 74.1423 96.646 72.3391 93.4468C69.9802 96.8371 65.5454 94.2936 65.0064 92.3003Z" fill="#E9BB6A"/>
<path d="M66.4736 42.5965C67.9895 42.5965 69.2184 41.1509 69.2184 39.3677C69.2184 37.5845 67.9895 36.1389 66.4736 36.1389C64.9578 36.1389 63.7289 37.5845 63.7289 39.3677C63.7289 41.1509 64.9578 42.5965 66.4736 42.5965Z" fill="#213450"/>
<path d="M33.5266 42.5965C35.0425 42.5965 36.2714 41.1509 36.2714 39.3677C36.2714 37.5845 35.0425 36.1389 33.5266 36.1389C32.0107 36.1389 30.7819 37.5845 30.7819 39.3677C30.7819 41.1509 32.0107 42.5965 33.5266 42.5965Z" fill="#213450"/>
<path d="M55.3216 46.6226C52.8031 47.2288 50.7969 49.4198 50.7137 51.6569C50.5374 56.2695 57.9332 58.9217 63.1533 56.1113C64.86 55.1888 66.1675 53.3504 66.3372 52.1577H67.3686C68.7759 52.1577 69.1851 52.5827 69.5078 52.9122L69.5976 53.0077C70.1133 53.5184 70.7987 52.9583 70.7987 52.329C70.7987 51.6997 69.255 50.4576 67.4185 50.4576C67.0594 50.4509 66.7005 50.4796 66.3472 50.5433C66.2411 49.9359 66.0831 49.3385 65.8747 48.7576C65.8747 48.7576 65.8947 48.7576 65.928 48.7576C66.3714 48.6473 66.8284 48.5996 67.2854 48.6159C68.0877 48.6573 68.8825 48.79 69.6542 49.0113L69.7374 49.0343C70.2863 49.2781 70.7987 49.0014 70.7987 48.4281C70.7987 47.1564 66.8828 46.6885 65.0164 47.4101C65.0164 47.4101 64.8567 47.1728 64.2978 46.4216C62.6077 44.1549 59.7465 42.4416 55.8805 41.3808C52.0136 40.4846 47.9899 40.4846 44.123 41.3808C40.257 42.4416 37.3958 44.1549 35.7057 46.4216C35.1468 47.1662 34.9871 47.4101 34.9871 47.4101C33.1207 46.6819 29.2081 47.1498 29.2081 48.4215C29.2081 48.9948 29.7205 49.2716 30.2694 49.0277L30.3526 49.0047C31.1243 48.7834 31.9191 48.6507 32.7214 48.6093C33.1784 48.593 33.6354 48.6407 34.0788 48.751C34.1121 48.751 34.1321 48.751 34.1321 48.751C33.9237 49.3319 33.7657 49.9293 33.6596 50.5367C33.3063 50.473 32.9474 50.4443 32.5883 50.4511C30.7518 50.4511 29.2081 51.6734 29.2081 52.3224C29.2081 52.9715 29.8935 53.5118 30.4092 53.0012L30.499 52.9056C30.8317 52.5761 31.2309 52.1511 32.6382 52.1511H33.6696C33.8393 53.3405 35.1468 55.1789 36.8535 56.1048C42.0736 58.9151 49.4694 56.2662 49.2931 51.6503C49.2099 49.4132 47.2037 47.2223 44.6852 46.616C43.5507 46.3426 43.5041 46.0263 44.4656 45.14C45.4271 44.2537 47.7094 43.7925 50.0051 43.7958C52.3007 43.7991 54.5963 44.2603 55.5445 45.14C56.4927 46.0197 56.4561 46.3492 55.3216 46.6226Z" fill="white"/>
<path fill-rule="evenodd" clip-rule="evenodd" d="M42.5997 70.2755L43.3465 72.0072L44.0426 71.8386C46.7371 71.1859 49.32 71.4736 51.827 72.708C54.3257 73.9382 56.1336 75.8505 57.2678 78.4805L61.3047 87.8421C61.4498 88.1785 61.4497 88.4687 61.3305 88.7637C61.2113 89.0587 61.0097 89.2681 60.6712 89.4106L56.1278 91.3229L56.4601 92.0933C56.6052 92.4298 56.605 92.7199 56.4858 93.015C56.3667 93.31 56.1651 93.5193 55.8265 93.6618C55.488 93.8043 55.1955 93.8029 54.8976 93.6835C54.5997 93.564 54.3878 93.3631 54.2427 93.0267L52.6279 89.282C52.4828 88.9456 52.483 88.6554 52.6021 88.3604C52.7213 88.0654 52.9229 87.8561 53.2615 87.7136C53.6 87.5711 53.8925 87.5725 54.1904 87.6919C54.4883 87.8114 54.7002 88.0123 54.8453 88.3487L55.1776 89.1192L58.6122 87.6736L55.0504 79.4139C54.0734 77.1483 52.4081 75.5352 50.0938 74.6071C47.7794 73.679 45.4569 73.6929 43.1772 74.6524C40.8975 75.6119 39.2784 77.2571 38.3526 79.549C37.4268 81.8408 37.4507 84.1449 38.4276 86.4104L41.9894 94.6701L45.4241 93.2245L45.0918 92.454C44.9467 92.1175 44.9469 91.8274 45.0661 91.5324C45.1852 91.2374 45.3868 91.028 45.7254 90.8855C46.0639 90.743 46.3564 90.7444 46.6543 90.8639C46.9522 90.9833 47.1641 91.1842 47.3092 91.5207L48.924 95.2653C49.0691 95.6017 49.0689 95.8919 48.9498 96.1869C48.8306 96.4819 48.629 96.6913 48.2904 96.8338C47.9519 96.9763 47.6594 96.9749 47.3615 96.8554C47.0636 96.7359 46.8517 96.5351 46.7066 96.1986L46.3743 95.4281L41.831 97.3404C41.4924 97.4829 41.1999 97.4815 40.9021 97.362C40.6042 97.2426 40.3922 97.0417 40.2472 96.7052L36.2102 87.3437C35.076 84.7136 34.9327 82.1008 35.7656 79.4683C36.6013 76.8269 38.1806 74.7874 40.5237 73.3197L41.129 72.9405L40.3823 71.2088C39.2859 68.6664 37.439 66.861 34.8739 65.8323C32.3089 64.8037 29.7217 64.8309 27.1634 65.9076C24.6051 66.9844 22.7929 68.809 21.7668 71.3491C20.7408 73.8893 20.7791 76.4559 21.8755 78.9983L23.4589 82.6701L24.0447 82.644C25.1521 82.5945 26.1852 82.8515 27.1628 83.4243C28.1195 83.9848 28.8208 84.7802 29.2768 85.8377C29.8625 87.196 29.8801 88.5231 29.3361 89.8698C28.7921 91.2166 27.8567 92.1615 26.4899 92.7368C25.1232 93.312 23.7854 93.3239 22.4255 92.7785C21.0656 92.2332 20.109 91.3012 19.5233 89.943C19.0673 88.8855 18.9724 87.8348 19.226 86.7649C19.4852 85.6715 20.0133 84.7575 20.8166 84.0027L21.2415 83.6035L19.6581 79.9316C18.2924 76.7647 18.2514 73.6219 19.5316 70.4527C20.8117 67.2835 23.0264 65.0453 26.2131 63.704C29.3998 62.3627 32.5678 62.3354 35.7681 63.6187C38.9683 64.9021 41.234 67.1085 42.5997 70.2755ZM23.2604 85.2475C22.5313 85.5544 21.9928 86.0806 21.6992 86.8072C21.4057 87.5339 21.4283 88.2851 21.7407 89.0096C22.0531 89.7342 22.5858 90.2706 23.3196 90.5649C24.0535 90.8592 24.8106 90.84 25.5397 90.5331C26.2687 90.2263 26.8073 89.7001 27.1008 88.9734C27.3944 88.2467 27.3718 87.4955 27.0594 86.771C26.7469 86.0465 26.2142 85.51 25.4804 85.2157C24.7466 84.9215 23.9894 84.9407 23.2604 85.2475Z" fill="#213450"/>
<path d="M35.9953 75.7313C34.578 79.3258 26.5467 83.6583 19.8095 81.0456C13.0724 78.4329 10.1247 69.87 11.5453 66.2755C12.9659 62.681 18.2325 60.4043 19.713 65.2706C24.6237 61.4455 31.231 66.8619 30.7686 70.4993C34.7011 69.1583 36.7538 73.8072 35.9953 75.7313Z" fill="#E9BB6A"/>
</g>
</g>
<defs>
<linearGradient id="paint0_linear_12759_42483" x1="92.6724" y1="8.70871" x2="39.3536" y2="73.3087" gradientUnits="userSpaceOnUse">
<stop stop-color="#1F85B6"/>
<stop offset="0.375" stop-color="#568DAE"/>
<stop offset="1" stop-color="#4D72AA"/>
</linearGradient>
<clipPath id="clip0_12759_42483">
<rect width="82" height="83" fill="white" transform="translate(9.00012 17)"/>
</clipPath>
</defs>
</svg>
