<svg width="247" height="252" viewBox="0 0 247 252" fill="none" xmlns="http://www.w3.org/2000/svg">
<g clip-path="url(#clip0_13868_29770)">
<path fill-rule="evenodd" clip-rule="evenodd" d="M246.48 251.92C245.79 248.68 244.73 243.99 243.55 238.97C241.09 228.57 236.19 198.28 229.36 151.3L218.91 79.51C235.42 63.96 228.72 42.81 208.09 41.27C208.09 41.27 205.76 36.49 204.09 33.38C200.94 27.38 194.42 20.66 186.81 15.52C172.01 5.49001 147.74 -0.199991 123.24 0.0100093C98.74 -0.199991 74.47 5.49001 59.64 15.52C52.03 20.69 45.51 27.4 42.36 33.38C40.72 36.49 38.36 41.27 38.36 41.27C17.74 42.81 11.06 63.96 27.57 79.51L17.13 151.3C10.29 198.3 5.39 228.57 2.93 238.97C1.74 243.99 0.74 248.69 0 251.92H246.48Z" fill="#FFCD75"/>
<ellipse cx="123.5" cy="97" rx="39.5" ry="25" fill="#213450"/>
<path d="M168.34 228.55C165.34 217.24 176.93 192.37 197.97 186.73C219.01 181.09 241.52 196.81 244.55 208.13C247.58 219.45 238.91 234.4 226.55 225.13C221.55 243.22 195.8 241.74 190.38 232.03C183.29 242.32 169.96 234.6 168.34 228.55Z" fill="#E9BB6A"/>
<path d="M172.75 77.69C177.306 77.69 181 73.3024 181 67.89C181 62.4776 177.306 58.09 172.75 58.09C168.194 58.09 164.5 62.4776 164.5 67.89C164.5 73.3024 168.194 77.69 172.75 77.69Z" fill="#213450"/>
<path d="M73.72 77.69C78.2763 77.69 81.97 73.3024 81.97 67.89C81.97 62.4776 78.2763 58.09 73.72 58.09C69.1636 58.09 65.47 62.4776 65.47 67.89C65.47 73.3024 69.1636 77.69 73.72 77.69Z" fill="#213450"/>
<path d="M139.23 89.91C131.66 91.75 125.63 98.4 125.38 105.19C124.85 119.19 147.08 127.24 162.77 118.71C167.9 115.91 171.83 110.33 172.34 106.71H175.44C179.67 106.71 180.9 108 181.87 109L182.14 109.29C183.69 110.84 185.75 109.14 185.75 107.23C185.75 105.32 181.11 101.55 175.59 101.55C174.511 101.53 173.432 101.617 172.37 101.81C172.051 99.9663 171.576 98.1531 170.95 96.39C170.95 96.39 171.01 96.39 171.11 96.39C172.443 96.0552 173.817 95.9104 175.19 95.96C177.601 96.0857 179.991 96.4883 182.31 97.16L182.56 97.23C184.21 97.97 185.75 97.13 185.75 95.39C185.75 91.53 173.98 90.11 168.37 92.3C168.37 92.3 167.89 91.58 166.21 89.3C161.13 82.42 152.53 77.22 140.91 74C129.287 71.2801 117.193 71.2801 105.57 74C93.95 77.22 85.35 82.42 80.27 89.3C78.59 91.56 78.11 92.3 78.11 92.3C72.5 90.09 60.74 91.51 60.74 95.37C60.74 97.11 62.28 97.95 63.93 97.21L64.18 97.14C66.4995 96.4683 68.8885 96.0657 71.3 95.94C72.6735 95.8904 74.047 96.0352 75.38 96.37C75.48 96.37 75.54 96.37 75.54 96.37C74.9139 98.1331 74.4388 99.9463 74.12 101.79C73.0579 101.597 71.9793 101.51 70.9 101.53C65.38 101.53 60.74 105.24 60.74 107.21C60.74 109.18 62.8 110.82 64.35 109.27L64.62 108.98C65.62 107.98 66.82 106.69 71.05 106.69H74.15C74.66 110.3 78.59 115.88 83.72 118.69C99.41 127.22 121.64 119.18 121.11 105.17C120.86 98.38 114.83 91.73 107.26 89.89C103.85 89.06 103.71 88.1 106.6 85.41C109.49 82.72 116.35 81.32 123.25 81.33C130.15 81.34 137.05 82.74 139.9 85.41C142.75 88.08 142.64 89.08 139.23 89.91Z" fill="white"/>
<path fill-rule="evenodd" clip-rule="evenodd" d="M101.072 161.69L103.307 166.937L105.403 166.421C113.513 164.425 121.281 165.281 128.815 169.008C136.324 172.723 141.75 178.51 145.145 186.479L157.229 214.843C157.664 215.863 157.661 216.743 157.301 217.638C156.941 218.534 156.333 219.17 155.313 219.604L141.633 225.432L142.628 227.767C143.062 228.786 143.06 229.666 142.699 230.561C142.339 231.457 141.731 232.093 140.712 232.527C139.692 232.962 138.812 232.959 137.917 232.599C137.022 232.238 136.385 231.631 135.951 230.611L131.117 219.266C130.683 218.246 130.685 217.366 131.046 216.471C131.406 215.575 132.014 214.939 133.033 214.505C134.053 214.071 134.933 214.073 135.828 214.433C136.724 214.794 137.36 215.402 137.794 216.421L138.789 218.756L149.13 214.35L138.469 189.324C135.544 182.46 130.545 177.578 123.589 174.778C116.632 171.978 109.645 172.035 102.781 174.96C95.9168 177.884 91.0354 182.884 88.2356 189.84C85.4357 196.796 85.4926 203.783 88.417 210.647L99.0788 235.673L109.421 231.267L108.426 228.933C107.992 227.913 107.994 227.033 108.354 226.138C108.715 225.243 109.323 224.606 110.342 224.172C111.362 223.738 112.241 223.74 113.137 224.101C114.032 224.461 114.668 225.069 115.103 226.088L119.936 237.434C120.371 238.453 120.368 239.333 120.008 240.229C119.647 241.124 119.04 241.76 118.02 242.195C117.001 242.629 116.121 242.626 115.226 242.266C114.33 241.906 113.694 241.298 113.26 240.278L112.265 237.944L98.5849 243.772C97.5655 244.206 96.6856 244.204 95.7902 243.844C94.8948 243.483 94.2586 242.875 93.8243 241.856L81.7402 213.492C78.3453 205.523 77.9308 197.6 80.4535 189.612C82.9848 181.596 87.749 175.401 94.8071 170.935L96.6306 169.781L94.3952 164.534C91.1135 156.831 85.5689 151.368 77.859 148.265C70.1492 145.162 62.3659 145.26 54.6628 148.542C46.9596 151.824 41.4964 157.369 38.3932 165.078C35.29 172.788 35.3889 180.572 38.6707 188.275L43.4104 199.4L45.1728 199.317C48.5046 199.16 51.6107 199.933 54.5481 201.663C57.4225 203.357 59.5269 205.765 60.892 208.969C62.6452 213.084 62.6897 217.109 61.0444 221.196C59.3992 225.284 56.5791 228.156 52.4638 229.909C48.3485 231.662 44.3239 231.706 40.2363 230.061C36.1488 228.416 33.2771 225.596 31.5239 221.481C30.1589 218.276 29.8804 215.091 30.6502 211.845C31.4369 208.527 33.0314 205.752 35.4528 203.458L36.7336 202.244L31.994 191.119C27.906 181.524 27.8029 171.993 31.6746 162.374C35.5462 152.755 42.2229 145.953 51.8183 141.865C61.4136 137.778 70.9441 137.674 80.5633 141.546C90.1824 145.418 96.984 152.094 101.072 161.69ZM42.7966 207.217C40.6013 208.153 38.9778 209.752 38.0901 211.957C37.2023 214.163 37.2654 216.441 38.2006 218.636C39.1358 220.831 40.7349 222.455 42.9405 223.343C45.1462 224.23 47.4241 224.167 49.6193 223.232C51.8145 222.297 53.438 220.698 54.3258 218.492C55.2136 216.286 55.1505 214.009 54.2153 211.813C53.28 209.618 51.681 207.995 49.4753 207.107C47.2697 206.219 44.9918 206.282 42.7966 207.217Z" fill="#213450"/>
<path d="M81.1399 178.26C76.8799 189.17 52.7399 202.32 32.4899 194.39C12.2399 186.46 3.37992 160.47 7.64992 149.56C11.9199 138.65 27.7499 131.74 32.1999 146.51C46.9599 134.9 66.8199 151.34 65.4299 162.38C77.2499 158.31 83.4199 172.42 81.1399 178.26Z" fill="#E9BB6A"/>
</g>
<defs>
<clipPath id="clip0_13868_29770">
<rect width="246.47" height="251.92" fill="white"/>
</clipPath>
</defs>
</svg>
