<svg width="16" height="20" viewBox="0 0 16 20" fill="none" xmlns="http://www.w3.org/2000/svg">
<path d="M4 17H12V15H4V17ZM4 14H12V12H4V14ZM8 10.3C9.1 9.3 10.0417 8.4125 10.825 7.6375C11.6083 6.8625 12 6.05 12 5.2C12 4.6 11.7833 4.08333 11.35 3.65C10.9167 3.21667 10.4 3 9.8 3C9.45 3 9.1125 3.07083 8.7875 3.2125C8.4625 3.35417 8.2 3.55 8 3.8C7.8 3.55 7.5375 3.35417 7.2125 3.2125C6.8875 3.07083 6.55 3 6.2 3C5.6 3 5.08333 3.21667 4.65 3.65C4.21667 4.08333 4 4.6 4 5.2C4 6.05 4.37917 6.85 5.1375 7.6C5.89583 8.35 6.85 9.25 8 10.3ZM14 20H2C1.45 20 0.979167 19.8042 0.5875 19.4125C0.195833 19.0208 0 18.55 0 18V2C0 1.45 0.195833 0.979167 0.5875 0.5875C0.979167 0.195833 1.45 0 2 0H14C14.55 0 15.0208 0.195833 15.4125 0.5875C15.8042 0.979167 16 1.45 16 2V18C16 18.55 15.8042 19.0208 15.4125 19.4125C15.0208 19.8042 14.55 20 14 20ZM2 18H14V2H2V18Z" fill="#2169F5"/>
</svg>
