<svg width="80" height="81" viewBox="0 0 80 81" fill="none" xmlns="http://www.w3.org/2000/svg">
<circle cx="40" cy="41" r="35" fill="#213450"/>
<mask id="mask0_49133_294788" style="mask-type:alpha" maskUnits="userSpaceOnUse" x="5" y="6" width="70" height="70">
<circle cx="40" cy="41" r="35" fill="#536682"/>
</mask>
<g mask="url(#mask0_49133_294788)">
<path fill-rule="evenodd" clip-rule="evenodd" d="M72.6394 86.9976C72.4568 86.14 72.1762 84.8986 71.8638 83.5699C71.2127 80.8171 69.9156 72.7997 68.1077 60.3646L65.3416 41.3626C69.7118 37.2467 67.9383 31.6485 62.4775 31.2409C62.4775 31.2409 61.8607 29.9757 61.4187 29.1525C60.5849 27.5644 58.859 25.7857 56.8446 24.4252C52.927 21.7703 46.5027 20.2643 40.0175 20.3198C33.5322 20.2643 27.1079 21.7703 23.1824 24.4252C21.168 25.7936 19.4421 27.5697 18.6083 29.1525C18.1742 29.9757 17.5495 31.2409 17.5495 31.2409C12.0913 31.6485 10.3231 37.2467 14.6934 41.3626L11.9299 60.3646C10.1193 72.805 8.82225 80.8171 8.17109 83.5699C7.85609 84.8986 7.59139 86.1426 7.39551 86.9976H72.6394Z" fill="#FFCD75"/>
<path d="M53.1232 40.8803C54.3293 40.8803 55.307 39.7189 55.307 38.2863C55.307 36.8537 54.3293 35.6924 53.1232 35.6924C51.9172 35.6924 50.9395 36.8537 50.9395 38.2863C50.9395 39.7189 51.9172 40.8803 53.1232 40.8803Z" fill="#213450"/>
<path d="M26.9094 40.8803C28.1155 40.8803 29.0932 39.7189 29.0932 38.2863C29.0932 36.8537 28.1155 35.6924 26.9094 35.6924C25.7033 35.6924 24.7256 36.8537 24.7256 38.2863C24.7256 39.7189 25.7033 40.8803 26.9094 40.8803Z" fill="#213450"/>
<ellipse cx="40.0001" cy="46.1339" rx="10.2667" ry="6.53333" fill="#213450"/>
<path d="M44.2501 44.1164C42.2463 44.6034 40.6502 46.3636 40.584 48.1608C40.4437 51.8665 46.328 53.9972 50.4812 51.7394C51.8392 50.9983 52.8794 49.5213 53.0144 48.5631H53.835C54.9547 48.5631 55.2803 48.9046 55.537 49.1693L55.6085 49.246C56.0188 49.6563 56.5641 49.2063 56.5641 48.7008C56.5641 48.1952 55.3359 47.1974 53.8747 47.1974C53.589 47.1919 53.3035 47.215 53.0224 47.2662C52.938 46.7782 52.8122 46.2982 52.6465 45.8316C52.6465 45.8316 52.6624 45.8316 52.6888 45.8316C53.0417 45.7429 53.4053 45.7046 53.7688 45.7177C54.4072 45.751 55.0395 45.8576 55.6535 46.0354L55.7197 46.0539C56.1565 46.2498 56.5641 46.0274 56.5641 45.5669C56.5641 44.5452 53.4485 44.1693 51.9636 44.749C51.9636 44.749 51.8365 44.5584 51.3918 43.9549C50.0471 42.1339 47.7707 40.7575 44.6948 39.9052C41.6182 39.1853 38.4169 39.1853 35.3402 39.9052C32.2644 40.7575 29.988 42.1339 28.6433 43.9549C28.1986 44.5531 28.0715 44.749 28.0715 44.749C26.5865 44.164 23.4736 44.5399 23.4736 45.5616C23.4736 46.0221 23.8813 46.2445 24.318 46.0486L24.3842 46.0301C24.9982 45.8523 25.6306 45.7457 26.2689 45.7124C26.6325 45.6993 26.996 45.7377 27.3489 45.8263C27.3753 45.8263 27.3912 45.8263 27.3912 45.8263C27.2255 46.2929 27.0997 46.7729 27.0154 47.2609C26.7342 47.2097 26.4487 47.1866 26.163 47.1921C24.7019 47.1921 23.4736 48.1741 23.4736 48.6955C23.4736 49.2169 24.0189 49.651 24.4292 49.2407L24.5007 49.164C24.7654 48.8993 25.083 48.5579 26.2027 48.5579H27.0233C27.1583 49.5134 28.1986 50.9903 29.5565 51.7341C33.7097 53.9919 39.594 51.8638 39.4537 48.1555C39.3875 46.3583 37.7914 44.5981 35.7876 44.1111C34.885 43.8914 34.8479 43.6373 35.6129 42.9253C36.3779 42.2133 38.1937 41.8427 40.0202 41.8453C41.8466 41.848 43.6731 42.2186 44.4275 42.9253C45.1819 43.632 45.1528 43.8967 44.2501 44.1164Z" fill="white"/>
</g>
<rect x="52" y="53" width="23" height="23" rx="11.5" fill="#FB8C00"/>
<path d="M67.2184 69.0416C67.1237 69.0416 67.0462 69.0115 66.9859 68.9512C66.9256 68.8909 66.8955 68.8134 66.8955 68.7187V60.3229C66.8955 60.2282 66.9256 60.1507 66.9859 60.0904C67.0462 60.0301 67.1237 60 67.2184 60H68.678C68.7727 60 68.8502 60.0301 68.9105 60.0904C68.9708 60.1507 69.0009 60.2282 69.0009 60.3229V68.7187C69.0009 68.8134 68.9708 68.8909 68.9105 68.9512C68.8502 69.0115 68.7727 69.0416 68.678 69.0416H67.2184Z" fill="white"/>
<path d="M57.2712 69.0416C57.1937 69.0416 57.1292 69.0158 57.0775 68.9641C57.0258 68.9039 57 68.8393 57 68.7704C57 68.7273 57.0043 68.6886 57.0129 68.6541L60.0871 60.3487C60.1129 60.254 60.1646 60.1722 60.2421 60.1033C60.3196 60.0344 60.4272 60 60.565 60H62.2183C62.3561 60 62.4637 60.0344 62.5412 60.1033C62.6187 60.1722 62.6704 60.254 62.6962 60.3487L65.7704 68.6541C65.779 68.6886 65.7833 68.7273 65.7833 68.7704C65.7833 68.8393 65.7575 68.9039 65.7058 68.9641C65.6541 69.0158 65.5896 69.0416 65.5121 69.0416H64.1687C64.0396 69.0416 63.9448 69.0115 63.8846 68.9512C63.8243 68.8909 63.7855 68.835 63.7683 68.7833L63.2129 67.3366H59.5704L59.015 68.7833C58.9978 68.835 58.959 68.8909 58.8987 68.9512C58.8385 69.0115 58.7437 69.0416 58.6146 69.0416H57.2712ZM60.0483 65.6704H62.7221L61.3917 61.9504L60.0483 65.6704Z" fill="white"/>
</svg>
