<svg width="120" height="30" viewBox="0 0 120 30" fill="none" xmlns="http://www.w3.org/2000/svg">
<circle cx="15" cy="15" r="15" fill="white"/>
<mask id="mask0_49395_15147" style="mask-type:alpha" maskUnits="userSpaceOnUse" x="0" y="0" width="30" height="30">
<circle cx="15" cy="15" r="15" fill="#536682"/>
</mask>
<g mask="url(#mask0_49395_15147)">
<path fill-rule="evenodd" clip-rule="evenodd" d="M28.989 34.7135C28.9107 34.346 28.7905 33.814 28.6566 33.2445C28.3776 32.0648 27.8217 28.6287 27.0469 23.2994L25.8614 15.1557C27.7343 13.3917 26.9743 10.9925 24.6339 10.8178C24.6339 10.8178 24.3696 10.2756 24.1801 9.92278C23.8228 9.24215 23.0831 8.47985 22.2198 7.89678C20.5408 6.759 17.7876 6.11353 15.0082 6.13736C12.2288 6.11353 9.47552 6.759 7.79314 7.89678C6.92983 8.48325 6.19018 9.24442 5.83283 9.92278C5.64678 10.2756 5.37906 10.8178 5.37906 10.8178C3.03984 10.9925 2.28203 13.3917 4.15499 15.1557L2.97064 23.2994C2.19468 28.631 1.63881 32.0648 1.35973 33.2445C1.22474 33.814 1.11129 34.3471 1.02734 34.7135H28.989Z" fill="#FFCD75"/>
<path d="M20.6254 14.9499C21.1423 14.9499 21.5613 14.4522 21.5613 13.8383C21.5613 13.2243 21.1423 12.7266 20.6254 12.7266C20.1085 12.7266 19.6895 13.2243 19.6895 13.8383C19.6895 14.4522 20.1085 14.9499 20.6254 14.9499Z" fill="#0A2143"/>
<path d="M9.39099 14.9499C9.90788 14.9499 10.3269 14.4522 10.3269 13.8383C10.3269 13.2243 9.90788 12.7266 9.39099 12.7266C8.8741 12.7266 8.45508 13.2243 8.45508 13.8383C8.45508 14.4522 8.8741 14.9499 9.39099 14.9499Z" fill="#0A2143"/>
<ellipse cx="14.9996" cy="17.1984" rx="4.4" ry="2.8" fill="#0A2143"/>
<path d="M16.8222 16.337C15.9634 16.5457 15.2793 17.3001 15.251 18.0703C15.1909 19.6584 17.7127 20.5716 19.4927 19.604C20.0746 19.2864 20.5205 18.6534 20.5783 18.2427H20.93C21.4099 18.2427 21.5494 18.3891 21.6594 18.5025L21.6901 18.5354C21.8659 18.7112 22.0996 18.5184 22.0996 18.3017C22.0996 18.0851 21.5732 17.6574 20.947 17.6574C20.8246 17.6551 20.7022 17.665 20.5817 17.6869C20.5455 17.4778 20.4917 17.2721 20.4206 17.0721C20.4206 17.0721 20.4274 17.0721 20.4388 17.0721C20.59 17.0341 20.7458 17.0177 20.9016 17.0233C21.1752 17.0375 21.4462 17.0832 21.7093 17.1594L21.7377 17.1674C21.9249 17.2513 22.0996 17.156 22.0996 16.9586C22.0996 16.5208 20.7644 16.3597 20.1279 16.6081C20.1279 16.6081 20.0735 16.5264 19.8829 16.2678C19.3066 15.4873 18.331 14.8975 17.0128 14.5322C15.6942 14.2236 14.3222 14.2236 13.0037 14.5322C11.6854 14.8975 10.7098 15.4873 10.1335 16.2678C9.94294 16.5242 9.88849 16.6081 9.88849 16.6081C9.25207 16.3574 7.91797 16.5185 7.91797 16.9564C7.91797 17.1537 8.09267 17.249 8.27986 17.1651L8.30822 17.1571C8.57135 17.0809 8.84237 17.0353 9.11594 17.021C9.27175 17.0154 9.42757 17.0318 9.57879 17.0698C9.59013 17.0698 9.59694 17.0698 9.59694 17.0698C9.52591 17.2698 9.47202 17.4755 9.43585 17.6846C9.31537 17.6627 9.193 17.6528 9.07056 17.6551C8.44435 17.6551 7.91797 18.076 7.91797 18.2995C7.91797 18.5229 8.15166 18.709 8.3275 18.5331L8.35813 18.5002C8.47157 18.3868 8.60771 18.2405 9.08758 18.2405H9.43925C9.49711 18.65 9.94294 19.283 10.5249 19.6017C12.3048 20.5694 14.8267 19.6573 14.7666 18.068C14.7382 17.2978 14.0542 16.5434 13.1954 16.3347C12.8085 16.2406 12.7927 16.1317 13.1205 15.8265C13.4484 15.5214 14.2266 15.3626 15.0093 15.3637C15.7921 15.3648 16.5749 15.5236 16.8982 15.8265C17.2215 16.1294 17.209 16.2428 16.8222 16.337Z" fill="white"/>
</g>
<path d="M44.6272 21.6654C43.6478 21.6654 42.752 21.5045 41.9396 21.1826C41.1272 20.8497 40.4261 20.3892 39.8362 19.801C39.2575 19.2018 38.8068 18.4971 38.4841 17.687C38.1614 16.8658 38 15.9669 38 14.9904C38 14.0138 38.1614 13.1205 38.4841 12.3104C38.8068 11.5003 39.2575 10.8012 39.8362 10.213C40.4261 9.61376 41.1272 9.15323 41.9396 8.83141C42.752 8.49849 43.6478 8.33203 44.6272 8.33203C45.6065 8.33203 46.4968 8.49849 47.2981 8.83141C48.1105 9.15323 48.8116 9.61376 49.4014 10.213C49.9912 10.8012 50.4475 11.5003 50.7702 12.3104C51.093 13.1205 51.2543 14.0138 51.2543 14.9904C51.2543 15.9669 51.093 16.8658 50.7702 17.687C50.4475 18.4971 49.9912 19.2018 49.4014 19.801C48.8116 20.3892 48.1105 20.8497 47.2981 21.1826C46.4968 21.5045 45.6065 21.6654 44.6272 21.6654ZM44.6272 20.1007C45.3505 20.1007 46.0127 19.973 46.6137 19.7178C47.2257 19.4515 47.7544 19.0908 48.1995 18.6358C48.6447 18.1697 48.9841 17.626 49.2178 17.0045C49.4626 16.3831 49.585 15.7117 49.585 14.9904C49.585 14.2691 49.4626 13.5977 49.2178 12.9762C48.9841 12.3548 48.6447 11.8166 48.1995 11.3616C47.7544 10.8955 47.2257 10.5348 46.6137 10.2796C46.0127 10.0244 45.3505 9.89674 44.6272 9.89674C43.9038 9.89674 43.2361 10.0244 42.624 10.2796C42.023 10.5348 41.5 10.8955 41.0548 11.3616C40.6208 11.8166 40.2814 12.3548 40.0366 12.9762C39.7917 13.5977 39.6693 14.2691 39.6693 14.9904C39.6693 15.7117 39.7917 16.3831 40.0366 17.0045C40.2814 17.626 40.6208 18.1697 41.0548 18.6358C41.5 19.0908 42.023 19.4515 42.624 19.7178C43.2361 19.973 43.9038 20.1007 44.6272 20.1007Z" fill="white"/>
<path d="M58.8385 21.4989C58.5937 21.4989 58.3878 21.4157 58.2209 21.2492C58.0539 21.0828 57.9705 20.8775 57.9705 20.6333V8.49849H59.7066V20.6333C59.7066 20.8775 59.6231 21.0828 59.4562 21.2492C59.2892 21.4157 59.0833 21.4989 58.8385 21.4989ZM54.3647 10.0965C54.131 10.0965 53.9363 10.0244 53.7805 9.8801C53.6358 9.72473 53.5635 9.53053 53.5635 9.29749C53.5635 9.06445 53.6358 8.8758 53.7805 8.73153C53.9363 8.57617 54.131 8.49849 54.3647 8.49849H63.2956C63.5293 8.49849 63.7185 8.57617 63.8631 8.73153C64.0189 8.8758 64.0968 9.06445 64.0968 9.29749C64.0968 9.53053 64.0189 9.72473 63.8631 9.8801C63.7185 10.0244 63.5293 10.0965 63.2956 10.0965H54.3647Z" fill="white"/>
<path d="M71.8781 21.4989C71.6332 21.4989 71.4273 21.4157 71.2604 21.2492C71.0935 21.0828 71.01 20.8775 71.01 20.6333V8.49849H72.7461V20.6333C72.7461 20.8775 72.6626 21.0828 72.4957 21.2492C72.3288 21.4157 72.1229 21.4989 71.8781 21.4989ZM67.4043 10.0965C67.1706 10.0965 66.9758 10.0244 66.82 9.8801C66.6754 9.72473 66.603 9.53053 66.603 9.29749C66.603 9.06445 66.6754 8.8758 66.82 8.73153C66.9758 8.57617 67.1706 8.49849 67.4043 8.49849H76.3351C76.5688 8.49849 76.758 8.57617 76.9027 8.73153C77.0585 8.8758 77.1364 9.06445 77.1364 9.29749C77.1364 9.53053 77.0585 9.72473 76.9027 9.8801C76.758 10.0244 76.5688 10.0965 76.3351 10.0965H67.4043Z" fill="white"/>
<path d="M81.9295 21.4989C81.6847 21.4989 81.4788 21.4157 81.3119 21.2492C81.145 21.0828 81.0615 20.8775 81.0615 20.6333V9.36407C81.0615 9.10884 81.145 8.90354 81.3119 8.74818C81.4788 8.58172 81.6847 8.49849 81.9295 8.49849H89.4748C89.7308 8.49849 89.9367 8.57617 90.0925 8.73153C90.2483 8.8758 90.3262 9.07 90.3262 9.31414C90.3262 9.54718 90.2483 9.73583 90.0925 9.8801C89.9367 10.0244 89.7308 10.0965 89.4748 10.0965H82.7976V14.1414H87.5885C87.8445 14.1414 88.0504 14.2191 88.2062 14.3745C88.362 14.5187 88.4399 14.7074 88.4399 14.9404C88.4399 15.1735 88.362 15.3677 88.2062 15.523C88.0504 15.6673 87.8445 15.7394 87.5885 15.7394H82.7976V19.9009H89.4748C89.7308 19.9009 89.9367 19.973 90.0925 20.1173C90.2483 20.2616 90.3262 20.4502 90.3262 20.6833C90.3262 20.9274 90.2483 21.1271 90.0925 21.2825C89.9367 21.4268 89.7308 21.4989 89.4748 21.4989H81.9295Z" fill="white"/>
<path d="M95.6212 21.4989C95.3763 21.4989 95.1705 21.4157 95.0035 21.2492C94.8366 21.0828 94.7531 20.8775 94.7531 20.6333V9.36407C94.7531 9.10884 94.8366 8.90354 95.0035 8.74818C95.1705 8.58172 95.3763 8.49849 95.6212 8.49849C95.8771 8.49849 96.083 8.58172 96.2388 8.74818C96.4058 8.90354 96.4892 9.10884 96.4892 9.36407V14.1414H104.235V9.36407C104.235 9.10884 104.318 8.90354 104.485 8.74818C104.652 8.58172 104.858 8.49849 105.103 8.49849C105.359 8.49849 105.565 8.58172 105.721 8.74818C105.876 8.90354 105.954 9.10884 105.954 9.36407V20.6333C105.954 20.8775 105.876 21.0828 105.721 21.2492C105.565 21.4157 105.359 21.4989 105.103 21.4989C104.858 21.4989 104.652 21.4157 104.485 21.2492C104.318 21.0828 104.235 20.8775 104.235 20.6333V15.6729H96.4892V20.6333C96.4892 20.8775 96.4058 21.0828 96.2388 21.2492C96.083 21.4157 95.8771 21.4989 95.6212 21.4989Z" fill="white"/>
<path d="M112.166 21.4989C111.921 21.4989 111.715 21.4157 111.548 21.2492C111.381 21.0828 111.298 20.8775 111.298 20.6333V9.36407C111.298 9.10884 111.381 8.90354 111.548 8.74818C111.715 8.58172 111.921 8.49849 112.166 8.49849H115.17C116.005 8.49849 116.745 8.67605 117.391 9.03116C118.036 9.37517 118.537 9.85235 118.893 10.4627C119.26 11.073 119.444 11.7833 119.444 12.5934C119.444 13.348 119.26 14.0194 118.893 14.6075C118.537 15.1957 118.036 15.6562 117.391 15.9891C116.745 16.322 116.005 16.4885 115.17 16.4885H113.034V20.6333C113.034 20.8775 112.95 21.0828 112.783 21.2492C112.627 21.4157 112.422 21.4989 112.166 21.4989ZM119.093 21.4989C118.937 21.4989 118.793 21.4656 118.659 21.399C118.537 21.3324 118.431 21.227 118.342 21.0828L115.337 16.2555L117.023 15.7727L119.761 20.1672C119.961 20.4891 119.989 20.7942 119.844 21.0828C119.7 21.3602 119.449 21.4989 119.093 21.4989ZM113.034 14.8905H115.17C115.682 14.8905 116.133 14.7962 116.523 14.6075C116.912 14.4078 117.218 14.1359 117.441 13.7919C117.663 13.4368 117.775 13.0373 117.775 12.5934C117.775 12.1051 117.663 11.6723 117.441 11.295C117.218 10.9177 116.912 10.6236 116.523 10.4128C116.133 10.2019 115.682 10.0965 115.17 10.0965H113.034V14.8905Z" fill="white"/>
</svg>
