<svg width="90" height="90" viewBox="0 0 90 90" fill="none" xmlns="http://www.w3.org/2000/svg">
<circle cx="45" cy="45" r="45" fill="#EBF7FF"/>
<mask id="mask0_23711_41876" style="mask-type:alpha" maskUnits="userSpaceOnUse" x="0" y="0" width="90" height="90">
<circle cx="45" cy="45" r="45" fill="#D9D9D9"/>
</mask>
<g mask="url(#mask0_23711_41876)">
<path fill-rule="evenodd" clip-rule="evenodd" d="M77.7604 89.9334C77.5896 89.1318 74.9181 71.9261 74.6259 70.6841C74.0168 68.1111 72.8035 60.6172 71.1124 48.994L68.5249 31.2327C72.6129 27.3855 70.9539 22.1528 65.8457 21.7718C65.8457 21.7718 65.2688 20.5892 64.8553 19.8198C64.0753 18.3354 62.4609 16.6728 60.5766 15.4011C56.912 12.9196 50.9025 11.5119 44.8361 11.5638C38.7697 11.5119 32.7602 12.9196 29.0881 15.4011C27.2038 16.6802 25.5894 18.3403 24.8094 19.8198C24.4034 20.5892 23.819 21.7718 23.819 21.7718C18.7133 22.1528 17.0593 27.3855 21.1473 31.2327L18.5622 48.994C16.8686 60.6221 15.6553 68.1111 15.0462 70.6841C14.7515 71.9261 12.3707 89.1343 12.1875 89.9334H44.8361H77.7604Z" fill="#A7DAFF"/>
<ellipse cx="44.9004" cy="35.5598" rx="9.78056" ry="6.18517" fill="#213450"/>
<path d="M56.0032 68.1061C55.2604 65.308 58.1301 59.155 63.3398 57.7596C68.5495 56.3642 74.1232 60.2534 74.8735 63.0541C75.6237 65.8547 73.477 69.5535 70.4165 67.26C69.1785 71.7356 62.8025 71.3694 61.4605 68.9671C59.7049 71.5129 56.4043 69.6029 56.0032 68.1061Z" fill="#7ABDEE"/>
<path d="M57.0953 30.7823C58.2235 30.7823 59.138 29.6968 59.138 28.3578C59.138 27.0187 58.2235 25.9332 57.0953 25.9332C55.9671 25.9332 55.0525 27.0187 55.0525 28.3578C55.0525 29.6968 55.9671 30.7823 57.0953 30.7823Z" fill="#213450"/>
<path d="M32.5745 30.7823C33.7027 30.7823 34.6173 29.6968 34.6173 28.3578C34.6173 27.0187 33.7027 25.9332 32.5745 25.9332C31.4463 25.9332 30.5317 27.0187 30.5317 28.3578C30.5317 29.6968 31.4463 30.7823 32.5745 30.7823Z" fill="#213450"/>
<path d="M48.7952 33.8056C46.9208 34.2608 45.4277 35.9061 45.3658 37.586C45.2346 41.0497 50.7389 43.0413 54.6239 40.9309C55.8941 40.2382 56.8673 38.8577 56.9935 37.962H57.7611C58.8085 37.962 59.1131 38.2812 59.3533 38.5286L59.4201 38.6004C59.8039 38.9838 60.314 38.5632 60.314 38.0907C60.314 37.6182 59.1651 36.6854 57.7983 36.6854C57.531 36.6804 57.2639 36.7019 57.001 36.7498C56.922 36.2936 56.8044 35.845 56.6494 35.4088C56.6494 35.4088 56.6642 35.4088 56.689 35.4088C57.019 35.326 57.3591 35.2902 57.6992 35.3024C58.2963 35.3335 58.8879 35.4331 59.4622 35.5993L59.5241 35.6166C59.9327 35.7997 60.314 35.5919 60.314 35.1614C60.314 34.2064 57.3996 33.8551 56.0105 34.3969C56.0105 34.3969 55.8917 34.2188 55.4757 33.6547C54.2178 31.9525 52.0884 30.666 49.2112 29.8694C46.3332 29.1965 43.3386 29.1965 40.4607 29.8694C37.5835 30.666 35.454 31.9525 34.1962 33.6547C33.7802 34.2138 33.6613 34.3969 33.6613 34.3969C32.2722 33.8501 29.3604 34.2015 29.3604 35.1565C29.3604 35.5869 29.7417 35.7948 30.1502 35.6117L30.2121 35.5944C30.7865 35.4282 31.378 35.3286 31.9751 35.2975C32.3152 35.2852 32.6553 35.321 32.9853 35.4039C33.0101 35.4039 33.025 35.4039 33.025 35.4039C32.8699 35.8401 32.7523 36.2887 32.6734 36.7448C32.4104 36.697 32.1433 36.6754 31.8761 36.6805C30.5093 36.6805 29.3604 37.5984 29.3604 38.0858C29.3604 38.5731 29.8704 38.9789 30.2542 38.5954L30.3211 38.5237C30.5687 38.2763 30.8658 37.9571 31.9132 37.9571H32.6808C32.8071 38.8502 33.7802 40.2308 35.0504 40.926C38.9354 43.0364 44.4398 41.0472 44.3085 37.581C44.2466 35.9012 42.7535 34.2559 40.8791 33.8007C40.0348 33.5953 40.0001 33.3578 40.7157 32.6923C41.4313 32.0268 43.1299 31.6804 44.8384 31.6829C46.5469 31.6853 48.2554 32.0317 48.9611 32.6923C49.6668 33.3529 49.6395 33.6003 48.7952 33.8056Z" fill="white"/>
<path fill-rule="evenodd" clip-rule="evenodd" d="M22.0215 50.7559C21.8729 51.04 21.7351 51.3345 21.6081 51.6394C21.4761 51.9563 21.3606 52.273 21.2616 52.5895C21.3606 52.273 21.4761 51.9563 21.6081 51.6394C21.7351 51.3345 21.8729 51.04 22.0215 50.7559ZM39.4573 51.5537L39.9982 52.8427L40.5209 52.7111C42.5443 52.2019 44.4744 52.3966 46.3379 53.2998C48.1951 54.2 49.5283 55.6156 50.3498 57.5733L53.2739 64.5415C53.379 64.7919 53.3758 65.0089 53.2836 65.2304C53.1914 65.4519 53.0383 65.6101 52.7834 65.7193L49.3633 67.185L49.6039 67.7585C49.709 68.0089 49.7059 68.2259 49.6136 68.4474C49.5214 68.6689 49.3683 68.8271 49.1135 68.9363C48.8586 69.0455 48.6397 69.0468 48.418 68.9598C48.1963 68.8728 48.0398 68.7243 47.9347 68.4739L46.7651 65.6866C46.66 65.4362 46.6631 65.2192 46.7554 64.9977C46.8476 64.7761 47.0007 64.618 47.2555 64.5088C47.5104 64.3996 47.7293 64.3983 47.951 64.4853C48.1727 64.5723 48.3292 64.7208 48.4343 64.9712L48.675 65.5447L51.2605 64.4367L48.6806 58.2887C47.973 56.6023 46.7434 55.4093 45.0209 54.7335C43.2985 54.0578 41.5601 54.0865 39.844 54.8219C38.1279 55.5574 36.8991 56.8003 36.1824 58.5213C35.4657 60.2423 35.4596 61.965 36.1672 63.6513L38.7472 69.7993L41.3327 68.6913L41.092 68.1178C40.9869 67.8674 40.9901 67.6504 41.0823 67.4289C41.1746 67.2073 41.3276 67.0492 41.5825 66.94C41.8374 66.8308 42.0563 66.8295 42.278 66.9165C42.4997 67.0035 42.6562 67.152 42.7613 67.4024L43.9309 70.1897C44.036 70.4401 44.0328 70.6571 43.9406 70.8786C43.8483 71.1001 43.6953 71.2583 43.4404 71.3675C43.1856 71.4767 42.9667 71.478 42.745 71.391C42.5233 71.304 42.3667 71.1555 42.2617 70.9051L42.021 70.3316L38.6008 71.7973C38.346 71.9065 38.1271 71.9078 37.9054 71.8208C37.6837 71.7338 37.5272 71.5853 37.4221 71.3348L34.498 64.3667C33.6765 62.409 33.5963 60.4564 34.2471 58.4814C34.9 56.4998 36.1031 54.9623 37.872 53.8464L38.3289 53.5581L37.788 52.269C36.9939 50.3766 35.6304 49.0412 33.7214 48.2923C31.8123 47.5434 29.8758 47.5841 27.9499 48.4094C26.0241 49.2347 24.6489 50.6133 23.8546 52.5207C23.0602 54.4282 23.0623 56.3471 23.8564 58.2395L25.0033 60.9726L25.442 60.9484C26.2713 60.9027 27.0418 61.0867 27.7675 61.5073C28.4777 61.9189 28.9943 62.5081 29.3246 63.2952C29.7488 64.3062 29.7482 65.2985 29.3271 66.3097C28.906 67.321 28.1961 68.035 27.1672 68.4759C26.1384 68.9168 25.137 68.9362 24.1249 68.5392C23.1128 68.1421 22.4065 67.4528 21.9823 66.4418C21.652 65.6547 21.5919 64.8698 21.7929 64.0678C21.9982 63.2482 22.4029 62.5605 23.0119 61.9898L23.3341 61.6879L22.1872 58.9548C21.198 56.5976 21.1999 54.2479 22.191 51.8681C23.182 49.4882 24.8627 47.7972 27.2616 46.7691C29.6605 45.7411 32.0318 45.6956 34.4136 46.6301C36.7954 47.5645 38.4681 49.1964 39.4573 51.5537ZM24.828 62.9014C24.2791 63.1366 23.8706 63.5342 23.6434 64.0799C23.4161 64.6256 23.4252 65.1871 23.6515 65.7264C23.8778 66.2657 24.2709 66.6627 24.8171 66.8769C25.3632 67.0912 25.9301 67.0709 26.4789 66.8357C27.0277 66.6005 27.4363 66.2028 27.6635 65.6571C27.8907 65.1114 27.8816 64.5499 27.6553 64.0106C27.429 63.4713 27.0359 63.0744 26.4898 62.8601C25.9437 62.6458 25.3768 62.6662 24.828 62.9014Z" fill="#00489D"/>
<path d="M34.4119 55.664C33.3571 58.3632 27.3798 61.6166 22.3657 59.6547C17.3516 57.6927 15.1578 51.2626 16.2151 48.5634C17.2724 45.8642 21.192 44.1547 22.2939 47.8088C25.9486 44.9365 30.8661 49.0038 30.5219 51.7352C33.4487 50.7282 34.9764 54.2192 34.4119 55.664Z" fill="#7ABDEE"/>
</g>
</svg>