<svg width="302" height="71" viewBox="0 0 302 71" fill="none" xmlns="http://www.w3.org/2000/svg">
<path d="M110.62 65.2711C109.899 63.9759 109.207 62.7108 108.907 61.4458C108.546 59.759 108.576 54.9398 108.546 54.3374C108.516 51.9277 108.425 37.6506 108.185 32.9217C107.824 26.5964 103.555 21.2048 97.5112 19.488C96.519 19.2169 95.4967 19.006 94.4744 18.8554C93.4221 18.7048 92.3096 18.6446 91.2272 18.6446C90.4455 18.6446 89.6637 18.6747 88.882 18.7651C87.0479 18.9458 85.1838 19.3374 83.4099 19.9096C81.6359 20.4819 79.9221 21.2651 78.3286 22.2289C76.705 23.1928 75.2016 24.3374 73.8787 25.6325C73.1871 26.2952 72.5557 26.988 71.9544 27.7108C71.6537 28.0723 71.3531 28.4639 71.0825 28.8554C71.0223 28.9458 70.9622 29.0663 70.9321 29.1566C70.8119 29.488 70.8419 29.8193 70.9923 30.1205C71.1426 30.4217 71.4433 30.6627 71.8041 30.7831C71.9243 30.8133 72.0446 30.8434 72.1649 30.8434C72.676 30.8434 73.127 30.5723 73.3675 30.1205C73.9989 28.9759 75.1114 28.0121 76.1036 27.1687C77.607 25.9036 79.2005 24.8795 80.8542 24.0964C82.568 23.3133 84.4321 22.7711 86.3564 22.5301C87.1682 22.4398 87.98 22.3795 88.7617 22.3795C92.911 22.3795 96.519 23.8253 98.8943 26.4759C101.029 28.8554 102.051 31.9578 101.811 35.4819C100.638 35.7831 99.4655 36.0843 98.2929 36.4157C95.3464 37.1988 92.2796 37.9819 89.2729 38.7952L87.8297 39.1867C82.568 40.6024 77.1259 42.0482 72.4956 45.3916C67.715 48.8253 65.8508 53.8253 67.2038 59.488C68.4366 64.6988 72.0747 67.8916 77.9678 68.9759C79.1404 69.1867 80.313 69.3072 81.4555 69.3072C86.6571 69.3072 91.3776 67.0181 95.1058 62.6807C97.3909 60 99.2851 56.9879 101.089 54.0964C101.48 53.494 101.841 52.8916 102.202 52.2892C102.202 53.2831 102.202 54.2771 102.202 55.2711C102.202 58.4036 102.202 61.6566 102.262 64.8494C102.262 64.8494 102.352 67.4699 103.675 67.9819C103.885 68.0723 104.096 68.0723 104.246 68.0723C104.697 68.0723 105.689 68.1024 107.133 68.1024H108.275C108.937 68.1024 109.568 68.1024 110.079 68.1024C110.5 68.1024 110.891 67.8916 111.101 67.5C111.312 67.1386 111.342 66.6868 111.101 66.2952C110.921 65.9639 110.741 65.6024 110.56 65.2711H110.62ZM91.5279 61.2349C88.9722 62.9217 85.3642 63.494 82.8085 63.6747C82.5981 63.6747 82.3876 63.6747 82.1771 63.6747C78.4488 63.6747 75.1716 61.2952 73.999 57.741C72.4355 53.0121 73.7283 48.6145 77.3364 46.2651C79.862 44.6386 82.8687 43.253 86.3263 42.1386C88.1303 41.5663 90.0847 40.994 92.46 40.3614C94.0234 39.9398 95.5869 39.5482 97.1504 39.1566L98.1727 38.9157C98.9544 38.7048 99.7662 38.5241 100.548 38.3133C101.119 38.1627 101.69 38.1024 102.262 38.0422C102.322 48.9759 98.8943 56.3554 91.4978 61.2349H91.5279ZM57.4021 0.512048H47.029C46.578 0.512048 46.1571 0.783132 46.0068 1.23494C45.8564 1.68675 45.9767 2.16867 46.3375 2.46988C48.0814 3.94578 48.2618 5.48193 48.352 8.07229C48.352 8.88554 48.4121 15.9639 48.4121 24.5783C35.6337 24.759 22.8854 40.7831 10.107 40.994C10.107 28.6446 10.0769 14.3373 10.107 10.6627V10.5723C10.107 7.5 10.1371 4.60843 12.9333 2.46988C13.3241 2.16867 13.4745 1.68675 13.3241 1.23494C13.1738 0.783132 12.7529 0.481928 12.2718 0.481928H1.86868C1.41768 0.481928 0.996747 0.753012 0.846413 1.20482C0.696079 1.65663 0.816346 2.13855 1.17715 2.43976C2.92102 3.91566 3.10142 5.45181 3.19162 8.04217C3.25176 10.0602 3.31189 51.2952 3.28182 57.9819V58.0723C3.28182 61.1446 3.25176 64.0361 0.455545 66.1747C0.0646762 66.4759 -0.0856579 66.9578 0.0646762 67.4096C0.21501 67.8614 0.635945 68.1627 1.11701 68.1627H11.4901C11.9411 68.1627 12.362 67.8916 12.5123 67.4398C12.6627 66.988 12.5424 66.506 12.1816 66.2048C10.4377 64.7289 10.2573 63.1928 10.1671 60.6024C10.1671 59.7892 10.107 52.7108 10.107 44.0964C22.8854 43.8855 35.6337 27.8614 48.4121 27.6807C48.4121 40.0301 48.4422 54.3374 48.4121 58.0121V58.1024C48.4121 61.1747 48.382 64.0663 45.5858 66.2048C45.195 66.506 45.0446 66.988 45.195 67.4398C45.3453 67.8916 45.7662 68.1928 46.2473 68.1928H56.6203C57.0713 68.1928 57.4923 67.9217 57.6426 67.4699C57.7929 67.0181 57.6727 66.5361 57.3119 66.2349C55.568 64.759 55.3876 63.2229 55.2974 60.6325C55.2373 58.6145 55.1771 17.3795 55.2072 10.6928V10.6024C55.2072 7.53012 55.2373 4.63855 58.0335 2.5C58.4243 2.1988 58.5747 1.71687 58.4243 1.26506C58.274 0.813253 57.8531 0.512048 57.372 0.512048H57.4021ZM248.687 30.0904C249.77 31.1446 250.852 32.2289 251.904 33.3133C252.716 34.1265 254.039 34.1566 254.851 33.3434C255.933 32.2892 257.016 31.2349 258.128 30.1807C258.94 29.3675 258.97 28.0422 258.128 27.1988C257.016 26.0843 255.933 24.9699 254.821 23.8855C253.979 23.0422 252.626 23.0422 251.844 23.8855C250.792 24.9699 249.739 26.0542 248.687 27.1687C247.875 27.9819 247.905 29.3072 248.717 30.1205L248.687 30.0904ZM219.913 33.3434C220.725 34.1566 222.048 34.1265 222.86 33.3133C223.912 32.2289 224.994 31.1446 226.077 30.0904C226.889 29.2771 226.919 27.9518 226.107 27.1386C225.055 26.0542 224.002 24.9699 222.95 23.8554C222.138 23.0422 220.815 23.012 219.973 23.8554C218.861 24.9699 217.748 26.0542 216.666 27.1687C215.824 28.0121 215.824 29.3675 216.666 30.1506C217.748 31.2048 218.831 32.259 219.943 33.3133L219.913 33.3434ZM228.212 26.4759C228.482 26.747 228.903 26.8373 229.264 26.6867C229.414 26.6265 229.565 26.5663 229.715 26.506C232.12 25.4819 234.706 24.9699 237.352 24.9699C239.998 24.9699 242.553 25.4819 244.989 26.506C245.139 26.5663 245.32 26.6566 245.47 26.7169C245.831 26.8675 246.252 26.8072 246.522 26.506L249.529 23.494C250.04 22.9819 249.89 22.1084 249.258 21.7771C245.71 19.9096 241.651 18.8554 237.352 18.8554C233.052 18.8554 229.023 19.9096 225.476 21.7771C224.844 22.1084 224.694 22.9819 225.205 23.494L228.212 26.506V26.4759ZM147.212 18.9157C146.971 18.8855 146.761 18.8554 146.52 18.7952C145.468 18.5843 144.385 18.4639 143.333 18.4639C137.29 18.4639 131.547 22.0482 128.029 28.0422C127.758 28.5241 127.458 28.9759 127.187 29.4578V20.9639C127.187 19.9398 126.345 19.0964 125.323 19.0964C125.082 19.0964 124.812 19.1566 124.601 19.247L122.286 20.241C121.264 20.6928 118.859 21.8072 117.896 22.259C117.536 22.4398 117.295 22.7711 117.295 23.1627C117.295 23.5542 117.476 23.9157 117.836 24.1265C119.159 24.8795 119.37 25.0602 119.4 25.0904C119.851 25.4819 120.182 25.9337 120.422 26.4458C121.114 27.8313 121.114 29.5482 121.114 31.4157C121.114 39.3374 121.114 58.3735 121.114 58.3735C121.114 61.2048 121.114 63.8554 118.588 65.8133C118.167 66.1446 118.017 66.6566 118.197 67.1687C118.378 67.6506 118.829 67.9819 119.34 67.9819H128.871C129.352 67.9819 129.803 67.6807 129.983 67.2289C130.164 66.7771 130.074 66.2349 129.713 65.8735C127.849 64.0663 127.668 61.6566 127.638 59.1566C127.578 56.2952 127.608 53.3735 127.608 50.5422C127.608 46.8072 127.578 41.747 127.518 39.1566C127.398 35.3313 128.48 31.8072 130.885 28.0723C132.629 25.3916 133.231 24.6988 134.584 24.6988C135.395 24.6988 136.508 24.9699 137.981 25.3313C140.657 25.994 143.273 26.3855 145.768 26.5361C145.829 26.5361 145.889 26.5361 145.979 26.5361C147.182 26.5361 148.535 25.9036 149.527 24.8494C150.399 23.9157 150.88 22.8313 150.85 21.8373C150.729 19.3675 148.685 19.0361 147.332 18.8253L147.212 18.9157ZM258.699 32.1386L255.272 35.5723C255.061 35.7831 255.031 36.0843 255.151 36.3253C255.242 36.5361 255.332 36.7169 255.422 36.9277C256.444 39.3373 256.955 41.9277 256.955 44.5783C256.955 47.2289 256.444 49.7892 255.422 52.2289C255.332 52.4398 255.242 52.6205 255.151 52.8313C255.031 53.1024 255.091 53.4036 255.272 53.5843L258.699 57.0181C259.06 57.3795 259.692 57.2892 259.932 56.8374C261.916 53.1928 263.029 49.006 263.029 44.5783C263.029 40.1506 261.916 35.9639 259.932 32.3193C259.692 31.8675 259.06 31.7771 258.699 32.1386ZM297.967 18.7349C297.726 18.7048 295.682 18.4639 294.599 18.4639C288.526 18.4639 282.813 22.0482 279.295 28.0422C279.025 28.5241 278.724 28.9759 278.453 29.4578V20.9639C278.453 19.9398 277.611 19.0964 276.589 19.0964C276.349 19.0964 276.078 19.1566 275.867 19.247L273.552 20.241C272.53 20.6928 270.125 21.8072 269.133 22.259C268.772 22.4398 268.531 22.7711 268.531 23.1627C268.531 23.5542 268.712 23.9157 269.072 24.1265C270.395 24.8795 270.606 25.0904 270.636 25.0904C271.087 25.4819 271.418 25.9337 271.658 26.4458C272.35 27.8313 272.35 29.5482 272.35 31.4157C272.35 39.3675 272.35 48.7349 272.35 58.1325V58.3735C272.35 61.2048 272.35 63.8554 269.824 65.8133C269.403 66.1446 269.253 66.6566 269.433 67.1687C269.614 67.6506 270.065 67.9819 270.576 67.9819H280.107C280.588 67.9819 281.039 67.6807 281.219 67.2289C281.4 66.7771 281.31 66.2349 280.949 65.8735C279.085 64.0663 278.904 61.6566 278.874 59.1566C278.814 56.2952 278.874 42.9819 278.754 39.1867C278.634 35.3614 279.716 31.8373 282.121 28.1024C283.865 25.4217 284.467 24.7289 285.82 24.7289C286.631 24.7289 287.744 25 289.217 25.3614C291.893 26.0241 295.742 26.6265 297.215 26.5663C298.418 26.5361 299.741 25.9337 300.763 24.8795C301.635 23.9458 302.116 22.8614 302.086 21.8675C301.965 19.3976 299.41 18.8855 298.057 18.6747L297.967 18.7349ZM254.851 55.9036C254.039 55.0904 252.716 55.1205 251.904 55.9337C250.852 57.0181 249.77 58.1024 248.687 59.1566C247.875 59.9699 247.845 61.2952 248.657 62.1084C249.709 63.1928 250.762 64.2771 251.814 65.3916C252.626 66.2048 253.949 66.2349 254.791 65.3916C255.903 64.2771 257.016 63.1928 258.098 62.0783C258.94 61.2349 258.94 59.8795 258.098 59.0964C257.016 58.0422 255.933 56.988 254.821 55.9337L254.851 55.9036ZM226.077 59.1566C224.994 58.1024 223.912 57.0181 222.86 55.9337C222.048 55.1205 220.725 55.0904 219.913 55.9036C218.831 56.9578 217.748 58.0121 216.636 59.0663C215.824 59.8795 215.794 61.2048 216.636 62.0482C217.748 63.1627 218.831 64.2771 219.943 65.3615C220.785 66.2048 222.138 66.2048 222.92 65.3615C223.972 64.2771 225.025 63.1928 226.077 62.0783C226.889 61.2651 226.859 59.9398 226.047 59.1265L226.077 59.1566ZM246.522 62.6205C246.252 62.3494 245.831 62.259 245.5 62.4398C245.35 62.5301 245.169 62.5904 244.989 62.6506C242.584 63.6747 239.998 64.1867 237.352 64.1867C234.706 64.1867 232.15 63.6747 229.715 62.6506C229.565 62.5904 229.414 62.5301 229.264 62.4398C228.903 62.2892 228.512 62.3494 228.242 62.6205L225.205 65.6627C224.694 66.1747 224.844 67.0181 225.476 67.3494C229.023 69.2169 233.082 70.2711 237.382 70.2711C241.682 70.2711 245.741 69.2169 249.318 67.3193C249.95 66.988 250.07 66.1446 249.589 65.6325L246.552 62.5904L246.522 62.6205ZM219.643 52.9518C219.522 52.7108 219.402 52.4398 219.312 52.1988C218.29 49.7892 217.778 47.1988 217.778 44.5482C217.778 41.8976 218.29 39.3373 219.312 36.8976C219.372 36.7169 219.462 36.5663 219.522 36.3855C219.673 36.0241 219.612 35.6325 219.342 35.3614L215.884 31.8976C215.614 31.6265 215.133 31.6867 214.922 32.0482C212.878 35.753 211.705 40 211.705 44.5482C211.705 49.0964 212.878 53.3434 214.922 57.0482C215.133 57.4096 215.584 57.4699 215.884 57.1988L219.552 53.5241C219.552 53.5241 219.733 53.1627 219.643 52.9819V52.9518ZM183.532 18.5241C180.195 18.5241 176.767 19.247 173.31 20.6928C171.055 21.6265 168.89 22.8313 166.605 24.0663C165.823 24.488 165.041 24.9398 164.199 25.3614V2.10843C164.199 0.933735 163.237 0 162.095 0C161.704 0 161.313 0.120482 160.982 0.331325C159.238 1.41566 156.743 2.95181 154.849 4.06627C154.458 4.27711 154.217 4.6988 154.217 5.1506C154.217 5.60241 154.458 5.99398 154.849 6.23494C158.006 8.04217 158.006 10.8735 158.036 13.8855C158.036 14.1867 158.036 57.4096 158.036 66.1747C158.036 66.7169 158.246 67.2289 158.607 67.5904C158.998 67.9819 159.509 68.1928 160.05 68.1928C160.591 68.1928 161.133 67.9518 161.523 67.5602L164.47 64.4277C169.371 67.6205 174.482 69.247 179.624 69.247C182.33 69.247 185.096 68.7952 187.832 67.8916C197.333 64.7892 203.827 55.753 204.399 44.9096C204.729 38.3434 203.707 33.2229 201.091 28.7651C197.303 22.2892 190.899 18.5542 183.502 18.5542L183.532 18.5241ZM198.025 52.6205C196.431 61.1446 190.598 66.2349 182.45 66.2349C179.022 66.2349 175.474 65.2711 172.528 63.5241C166.515 60 164.44 57.1084 164.44 43.5542C164.44 42.6807 164.41 41.8374 164.41 40.9639C164.41 39.9699 164.41 38.9759 164.41 37.9518C164.41 35.3614 164.38 32.7108 164.5 30.0904C164.53 29.247 165.131 28.1626 165.763 27.6807C170.303 24.3373 175.204 22.5602 180.285 22.4398C180.496 22.4398 180.706 22.4398 180.886 22.4398C187.381 22.4398 192.222 25.4217 195.258 31.3253C198.536 37.741 199.498 44.9096 198.025 52.6205Z" fill="white"/>
</svg>
