<svg width="20" height="17" viewBox="0 0 20 17" fill="inherit" xmlns="http://www.w3.org/2000/svg">
  <path d="M3 17C2.16667 17 1.45833 16.7083 0.875 16.125C0.291667 15.5417 0 14.8333 0 14V7C0 6.16667 0.291667 5.45833 0.875 4.875C1.45833 4.29167 2.16667 4 3 4C3.45 4 3.8625 4.09167 4.2375 4.275C4.6125 4.45833 4.94167 4.7 5.225 5H6V0H16V5H17C17.8333 5 18.5417 5.29167 19.125 5.875C19.7083 6.45833 20 7.16667 20 8V16H5.225C4.94167 16.3 4.6125 16.5417 4.2375 16.725C3.8625 16.9083 3.45 17 3 17ZM3 15C3.28333 15 3.52083 14.9042 3.7125 14.7125C3.90417 14.5208 4 14.2833 4 14V7C4 6.71667 3.90417 6.47917 3.7125 6.2875C3.52083 6.09583 3.28333 6 3 6C2.71667 6 2.47917 6.09583 2.2875 6.2875C2.09583 6.47917 2 6.71667 2 7V14C2 14.2833 2.09583 14.5208 2.2875 14.7125C2.47917 14.9042 2.71667 15 3 15ZM8 5H14V2H8V5ZM6 14H18V8C18 7.71667 17.9042 7.47917 17.7125 7.2875C17.5208 7.09583 17.2833 7 17 7H6V14ZM13 10C13.2833 10 13.5208 9.90417 13.7125 9.7125C13.9042 9.52083 14 9.28333 14 9C14 8.71667 13.9042 8.47917 13.7125 8.2875C13.5208 8.09583 13.2833 8 13 8C12.7167 8 12.4792 8.09583 12.2875 8.2875C12.0958 8.47917 12 8.71667 12 9C12 9.28333 12.0958 9.52083 12.2875 9.7125C12.4792 9.90417 12.7167 10 13 10ZM16 10C16.2833 10 16.5208 9.90417 16.7125 9.7125C16.9042 9.52083 17 9.28333 17 9C17 8.71667 16.9042 8.47917 16.7125 8.2875C16.5208 8.09583 16.2833 8 16 8C15.7167 8 15.4792 8.09583 15.2875 8.2875C15.0958 8.47917 15 8.71667 15 9C15 9.28333 15.0958 9.52083 15.2875 9.7125C15.4792 9.90417 15.7167 10 16 10ZM13 13C13.2833 13 13.5208 12.9042 13.7125 12.7125C13.9042 12.5208 14 12.2833 14 12C14 11.7167 13.9042 11.4792 13.7125 11.2875C13.5208 11.0958 13.2833 11 13 11C12.7167 11 12.4792 11.0958 12.2875 11.2875C12.0958 11.4792 12 11.7167 12 12C12 12.2833 12.0958 12.5208 12.2875 12.7125C12.4792 12.9042 12.7167 13 13 13ZM16 13C16.2833 13 16.5208 12.9042 16.7125 12.7125C16.9042 12.5208 17 12.2833 17 12C17 11.7167 16.9042 11.4792 16.7125 11.2875C16.5208 11.0958 16.2833 11 16 11C15.7167 11 15.4792 11.0958 15.2875 11.2875C15.0958 11.4792 15 11.7167 15 12C15 12.2833 15.0958 12.5208 15.2875 12.7125C15.4792 12.9042 15.7167 13 16 13ZM7 13H11V8H7V13Z"/>
</svg>
