<svg width="30" height="30" viewBox="0 0 30 30" fill="none" xmlns="http://www.w3.org/2000/svg">
<circle cx="15" cy="15" r="13" fill="#213450"/>
<mask id="mask0_50875_262313" style="mask-type:alpha" maskUnits="userSpaceOnUse" x="2" y="2" width="26" height="26">
<circle cx="15" cy="15" r="13" fill="#536682"/>
</mask>
<g mask="url(#mask0_50875_262313)">
<path fill-rule="evenodd" clip-rule="evenodd" d="M27.1231 32.0849C27.0553 31.7664 26.951 31.3053 26.835 30.8118C26.5932 29.7893 26.1114 26.8114 25.4399 22.1927L24.4125 15.1348C26.0357 13.606 25.377 11.5267 23.3487 11.3753C23.3487 11.3753 23.1196 10.9054 22.9554 10.5996C22.6457 10.0097 22.0047 9.34907 21.2565 8.84375C19.8013 7.85767 17.4152 7.29827 15.0064 7.31891C12.5976 7.29827 10.2114 7.85767 8.75334 8.84375C8.00514 9.35202 7.36411 10.0117 7.0544 10.5996C6.89316 10.9054 6.66113 11.3753 6.66113 11.3753C4.63381 11.5267 3.97705 13.606 5.60028 15.1348L4.57384 22.1927C3.90134 26.8134 3.41958 29.7893 3.17772 30.8118C3.06072 31.3053 2.9624 31.7674 2.88965 32.0849H27.1231Z" fill="#FFCD75"/>
<path d="M19.8736 14.9553C20.3216 14.9553 20.6847 14.5239 20.6847 13.9918C20.6847 13.4597 20.3216 13.0283 19.8736 13.0283C19.4257 13.0283 19.0625 13.4597 19.0625 13.9918C19.0625 14.5239 19.4257 14.9553 19.8736 14.9553Z" fill="#213450"/>
<path d="M10.1373 14.9553C10.5853 14.9553 10.9484 14.5239 10.9484 13.9918C10.9484 13.4597 10.5853 13.0283 10.1373 13.0283C9.68932 13.0283 9.32617 13.4597 9.32617 13.9918C9.32617 14.5239 9.68932 14.9553 10.1373 14.9553Z" fill="#213450"/>
<ellipse cx="14.9999" cy="16.9071" rx="3.81333" ry="2.42667" fill="#213450"/>
<path d="M16.5783 16.1573C15.834 16.3382 15.2412 16.992 15.2166 17.6595C15.1645 19.0359 17.3501 19.8273 18.8927 18.9887C19.3971 18.7134 19.7835 18.1648 19.8336 17.8089H20.1384C20.5543 17.8089 20.6752 17.9358 20.7706 18.0341L20.7971 18.0626C20.9495 18.215 21.1521 18.0478 21.1521 17.8601C21.1521 17.6723 20.6959 17.3017 20.1532 17.3017C20.047 17.2996 19.941 17.3082 19.8366 17.3272C19.8052 17.146 19.7585 16.9677 19.697 16.7944C19.697 16.7944 19.7029 16.7944 19.7127 16.7944C19.8437 16.7614 19.9788 16.7472 20.1138 16.7521C20.3509 16.7644 20.5858 16.804 20.8139 16.8701L20.8384 16.8769C21.0007 16.9497 21.1521 16.8671 21.1521 16.696C21.1521 16.3166 19.9949 16.1769 19.4433 16.3923C19.4433 16.3923 19.3961 16.3215 19.2309 16.0973C18.7315 15.4209 17.8859 14.9097 16.7435 14.5931C15.6007 14.3257 14.4117 14.3257 13.2689 14.5931C12.1265 14.9097 11.2809 15.4209 10.7815 16.0973C10.6163 16.3195 10.5691 16.3923 10.5691 16.3923C10.0175 16.175 8.86133 16.3146 8.86133 16.6941C8.86133 16.8651 9.01274 16.9477 9.17496 16.875L9.19954 16.8681C9.42759 16.8021 9.66247 16.7625 9.89957 16.7501C10.0346 16.7452 10.1697 16.7595 10.3007 16.7924C10.3105 16.7924 10.3164 16.7924 10.3164 16.7924C10.2549 16.9657 10.2082 17.144 10.1768 17.3252C10.0724 17.3062 9.96635 17.2977 9.86024 17.2997C9.31752 17.2997 8.86133 17.6644 8.86133 17.8581C8.86133 18.0518 9.06386 18.213 9.21626 18.0606L9.2428 18.0321C9.34112 17.9338 9.4591 17.807 9.87499 17.807H10.1798C10.2299 18.1619 10.6163 18.7105 11.1207 18.9867C12.6633 19.8253 14.8489 19.0349 14.7968 17.6575C14.7722 16.99 14.1794 16.3362 13.4351 16.1553C13.0998 16.0737 13.0861 15.9793 13.3702 15.7149C13.6543 15.4504 14.3288 15.3128 15.0072 15.3138C15.6856 15.3147 16.364 15.4524 16.6442 15.7149C16.9244 15.9774 16.9136 16.0757 16.5783 16.1573Z" fill="white"/>
</g>
<rect x="20" y="20" width="10" height="10" rx="5" fill="#FB8C00"/>
<path d="M22.6284 26.5C22.5984 26.5 22.5734 26.49 22.5534 26.47C22.5334 26.4467 22.5234 26.4217 22.5234 26.395C22.5234 26.3783 22.525 26.3633 22.5284 26.35L23.7184 23.135C23.7284 23.0983 23.7484 23.0667 23.7784 23.04C23.8084 23.0133 23.85 23 23.9034 23H24.5434C24.5967 23 24.6384 23.0133 24.6684 23.04C24.6984 23.0667 24.7184 23.0983 24.7284 23.135L25.9184 26.35C25.9217 26.3633 25.9234 26.3783 25.9234 26.395C25.9234 26.4217 25.9134 26.4467 25.8934 26.47C25.8734 26.49 25.8484 26.5 25.8184 26.5H25.2984C25.2484 26.5 25.2117 26.4883 25.1884 26.465C25.165 26.4417 25.15 26.42 25.1434 26.4L24.9284 25.84H23.5184L23.3034 26.4C23.2967 26.42 23.2817 26.4417 23.2584 26.465C23.235 26.4883 23.1984 26.5 23.1484 26.5H22.6284ZM23.7034 25.195H24.7384L24.2234 23.755L23.7034 25.195ZM26.4789 26.5C26.4422 26.5 26.4122 26.4883 26.3889 26.465C26.3656 26.4417 26.3539 26.4117 26.3539 26.375V23.125C26.3539 23.0883 26.3656 23.0583 26.3889 23.035C26.4122 23.0117 26.4422 23 26.4789 23H27.0439C27.0806 23 27.1106 23.0117 27.1339 23.035C27.1572 23.0583 27.1689 23.0883 27.1689 23.125V26.375C27.1689 26.4117 27.1572 26.4417 27.1339 26.465C27.1106 26.4883 27.0806 26.5 27.0439 26.5H26.4789Z" fill="white"/>
</svg>
