<svg width="23" height="24" viewBox="0 0 23 24" fill="none" xmlns="http://www.w3.org/2000/svg">
<g clip-path="url(#clip0_59281_63447)">
<path d="M5.87899 15.9573C4.55543 15.4855 2.75788 14.7972 0.657717 13.8423C0.399973 13.6471 0.205212 13.381 0.0974618 13.0768C-0.0102885 12.7726 -0.0263112 12.4436 0.0513703 12.1304C0.273095 11.282 1.11135 11.003 1.16282 10.9889C0.572873 10.0577 0.51631 8.88579 1.0282 7.93428C1.70978 6.66372 3.05596 6.41682 3.21773 6.38977C2.84894 5.09328 3.27768 3.71168 4.29581 2.89884C5.67593 1.79682 7.36205 2.35939 7.4633 2.3949C7.51534 2.29513 8.69013 0.136195 11.1353 0.00598262C12.8424 -0.0842077 14.4674 0.851517 15.2785 2.3949C16.7248 2.04259 18.1971 2.54202 18.9839 3.63502C19.7939 4.7624 19.5399 6.05155 19.489 6.28718C19.6497 6.32212 21.0088 6.64681 21.6452 7.9991C22.3239 9.43989 21.5784 10.7685 21.51 10.8863C21.5852 10.9122 22.4116 11.2161 22.6554 12.0943C22.7388 12.4011 22.7391 12.7244 22.6563 13.0314C22.5736 13.3383 22.4107 13.6179 22.1842 13.8417C20.4265 14.6809 18.6276 15.4315 16.7944 16.0909C14.3667 16.9651 13.1252 17.4026 11.7417 17.4341C10.1585 17.4708 8.7105 16.9668 5.87899 15.9573Z" fill="#2F79B2"/>
<path d="M6.53531 16.1201C5.37077 15.7056 3.78919 15.101 1.94135 14.2621C1.71458 14.0906 1.54321 13.8569 1.44841 13.5896C1.3536 13.3223 1.33951 13.0333 1.40786 12.7582C1.60294 12.0129 2.34048 11.7678 2.38577 11.7554C1.8667 10.9373 1.81693 9.90778 2.26732 9.07188C2.86701 7.95569 4.05146 7.73879 4.19379 7.71502C3.86931 6.57604 4.24654 5.3623 5.14234 4.64821C6.35665 3.68009 7.8402 4.1743 7.92928 4.2055C7.97506 4.11785 9.00872 2.22121 11.1601 2.10682C12.6621 2.02759 14.0919 2.84963 14.8055 4.2055C16.0781 3.89599 17.3735 4.33475 18.0658 5.29495C18.7784 6.28536 18.555 7.41789 18.5102 7.62489C18.6515 7.65559 19.8474 7.94083 20.4073 9.12883C21.0045 10.3946 20.3485 11.5618 20.2883 11.6653C20.3545 11.688 21.0816 11.955 21.2961 12.7265C21.3695 12.996 21.3698 13.28 21.2969 13.5497C21.2241 13.8194 21.0808 14.065 20.8815 14.2616C19.335 14.9988 17.7523 15.6583 16.1393 16.2375C14.0033 17.0056 12.9109 17.3898 11.6936 17.4176C10.3007 17.4498 9.02663 17.007 6.53531 16.1201Z" fill="#DCF0FF"/>
<ellipse cx="3.77018" cy="3.75911" rx="3.77018" ry="3.75911" transform="matrix(0.970727 0.243582 -0.243841 0.968966 8.66016 8.04297)" fill="#5BAEEE"/>
<ellipse cx="0.939157" cy="0.936399" rx="0.939157" ry="0.936399" transform="matrix(0.970727 0.243582 -0.243841 0.968966 11.6748 9.38672)" fill="white"/>
<ellipse cx="0.519399" cy="0.517874" rx="0.519399" ry="0.517874" transform="matrix(0.970727 0.243582 -0.243841 0.968966 13.6367 10.8398)" fill="white"/>
<rect x="6.64062" y="7.33984" width="9.08685" height="9.08685" rx="4.54343" fill="white"/>
<path d="M12.5545 13.8231C12.5159 13.8231 12.4843 13.8108 12.4597 13.7862C12.4351 13.7617 12.4229 13.7301 12.4229 13.6914V10.2684C12.4229 10.2298 12.4351 10.1982 12.4597 10.1736C12.4843 10.149 12.5159 10.1367 12.5545 10.1367H13.1496C13.1882 10.1367 13.2198 10.149 13.2444 10.1736C13.269 10.1982 13.2813 10.2298 13.2813 10.2684V13.6914C13.2813 13.7301 13.269 13.7617 13.2444 13.7862C13.2198 13.8108 13.1882 13.8231 13.1496 13.8231H12.5545Z" fill="#FF9800"/>
<path d="M8.49926 13.8231C8.46767 13.8231 8.44133 13.8126 8.42027 13.7915C8.3992 13.7669 8.38867 13.7406 8.38867 13.7125C8.38867 13.695 8.39043 13.6792 8.39394 13.6651L9.64731 10.2789C9.65784 10.2403 9.67891 10.2069 9.7105 10.1788C9.7421 10.1508 9.78599 10.1367 9.84216 10.1367H10.5162C10.5724 10.1367 10.6163 10.1508 10.6479 10.1788C10.6795 10.2069 10.7006 10.2403 10.7111 10.2789L11.9645 13.6651C11.968 13.6792 11.9697 13.695 11.9697 13.7125C11.9697 13.7406 11.9592 13.7669 11.9381 13.7915C11.9171 13.8126 11.8907 13.8231 11.8591 13.8231H11.3114C11.2588 13.8231 11.2202 13.8108 11.1956 13.7862C11.171 13.7617 11.1552 13.7388 11.1482 13.7178L10.9217 13.128H9.43666L9.21021 13.7178C9.20319 13.7388 9.18739 13.7617 9.16281 13.7862C9.13824 13.8108 9.09962 13.8231 9.04696 13.8231H8.49926ZM9.63151 12.4486H10.7216L10.1792 10.9319L9.63151 12.4486Z" fill="#FF9800"/>
<path d="M0.168831 16.6414C-0.318736 17.8398 2.5552 19.8882 2.86346 20.0991C5.93027 22.1943 9.27027 22.2788 11.0831 22.3014C13.2511 22.329 16.909 22.3262 19.9068 19.9649C21.0381 19.0748 22.6648 17.3015 22.1976 16.4396C21.822 15.7474 20.2343 15.9052 19.568 15.9976C19.1534 15.5392 18.6037 15.2234 17.9978 15.0957C16.8072 14.8534 15.8937 15.4683 15.7303 15.5828C15.29 15.1388 14.734 14.8264 14.125 14.6809C12.677 14.3427 11.5232 15.1358 11.3342 15.2722C11.1476 15.142 10.0554 14.4092 8.64752 14.7158C7.94472 14.8735 7.31022 15.2493 6.83527 15.7891C6.76343 15.7079 5.88898 14.7463 4.60219 14.9199C3.69719 15.0416 3.16267 15.6465 3.03032 15.8049C2.50938 15.7885 0.526305 15.7626 0.168831 16.6414Z" fill="#2F79B2"/>
</g>
<defs>
<clipPath id="clip0_59281_63447">
<rect width="22.7171" height="23.1" fill="white"/>
</clipPath>
</defs>
</svg>
