<svg width="18" height="18" viewBox="0 0 18 18" fill="none" xmlns="http://www.w3.org/2000/svg">
<path d="M13 13C13.3472 13 13.6424 12.8785 13.8854 12.6354C14.1285 12.3924 14.25 12.0972 14.25 11.75C14.25 11.4028 14.1285 11.1076 13.8854 10.8646C13.6424 10.6215 13.3472 10.5 13 10.5C12.6528 10.5 12.3576 10.6215 12.1146 10.8646C11.8715 11.1076 11.75 11.4028 11.75 11.75C11.75 12.0972 11.8715 12.3924 12.1146 12.6354C12.3576 12.8785 12.6528 13 13 13ZM13 15.5C13.4444 15.5 13.8403 15.4028 14.1875 15.2083C14.5347 15.0139 14.8264 14.7431 15.0625 14.3958C14.7847 14.1736 14.4687 14.0104 14.1146 13.9062C13.7604 13.8021 13.3889 13.75 13 13.75C12.6111 13.75 12.2396 13.8021 11.8854 13.9062C11.5312 14.0104 11.2153 14.1736 10.9375 14.3958C11.1736 14.7431 11.4653 15.0139 11.8125 15.2083C12.1597 15.4028 12.5556 15.5 13 15.5ZM2.16667 15.5C1.70833 15.5 1.31597 15.3368 0.989583 15.0104C0.663194 14.684 0.5 14.2917 0.5 13.8333V2.16667C0.5 1.70833 0.663194 1.31597 0.989583 0.989583C1.31597 0.663194 1.70833 0.5 2.16667 0.5H13.8333C14.2917 0.5 14.684 0.663194 15.0104 0.989583C15.3368 1.31597 15.5 1.70833 15.5 2.16667V7.75C15.2361 7.625 14.9653 7.51736 14.6875 7.42708C14.4097 7.33681 14.125 7.27083 13.8333 7.22917V2.16667H2.16667V13.8333H7.20833C7.25 14.1389 7.31597 14.4306 7.40625 14.7083C7.49653 14.9861 7.60417 15.25 7.72917 15.5H2.16667ZM2.16667 13.8333V2.16667V7.22917V7.16667V13.8333ZM3.83333 12.1667H7.22917C7.27083 11.875 7.33681 11.5903 7.42708 11.3125C7.51736 11.0347 7.61806 10.7639 7.72917 10.5H3.83333V12.1667ZM3.83333 8.83333H8.91667C9.36111 8.41667 9.85764 8.06944 10.4062 7.79167C10.9549 7.51389 11.5417 7.32639 12.1667 7.22917V7.16667H3.83333V8.83333ZM3.83333 5.5H12.1667V3.83333H3.83333V5.5ZM13 17.1667C11.8472 17.1667 10.8646 16.7604 10.0521 15.9479C9.23958 15.1354 8.83333 14.1528 8.83333 13C8.83333 11.8472 9.23958 10.8646 10.0521 10.0521C10.8646 9.23958 11.8472 8.83333 13 8.83333C14.1528 8.83333 15.1354 9.23958 15.9479 10.0521C16.7604 10.8646 17.1667 11.8472 17.1667 13C17.1667 14.1528 16.7604 15.1354 15.9479 15.9479C15.1354 16.7604 14.1528 17.1667 13 17.1667Z" fill="#2169F5"/>
</svg>
