<svg width="24" height="24" viewBox="0 0 24 24" fill="none" xmlns="http://www.w3.org/2000/svg">
<g id="chat">
<mask id="mask0_12653_609" style="mask-type:alpha" maskUnits="userSpaceOnUse" x="0" y="0" width="24" height="24">
<rect id="Bounding box" width="24" height="24" fill="#D9D9D9"/>
</mask>
<g mask="url(#mask0_12653_609)">
<path id="chat_2" d="M7 14H13C13.2833 14 13.5208 13.9042 13.7125 13.7125C13.9042 13.5208 14 13.2833 14 13C14 12.7167 13.9042 12.4792 13.7125 12.2875C13.5208 12.0958 13.2833 12 13 12H7C6.71667 12 6.47917 12.0958 6.2875 12.2875C6.09583 12.4792 6 12.7167 6 13C6 13.2833 6.09583 13.5208 6.2875 13.7125C6.47917 13.9042 6.71667 14 7 14ZM7 11H17C17.2833 11 17.5208 10.9042 17.7125 10.7125C17.9042 10.5208 18 10.2833 18 10C18 9.71667 17.9042 9.47917 17.7125 9.2875C17.5208 9.09583 17.2833 9 17 9H7C6.71667 9 6.47917 9.09583 6.2875 9.2875C6.09583 9.47917 6 9.71667 6 10C6 10.2833 6.09583 10.5208 6.2875 10.7125C6.47917 10.9042 6.71667 11 7 11ZM7 8H17C17.2833 8 17.5208 7.90417 17.7125 7.7125C17.9042 7.52083 18 7.28333 18 7C18 6.71667 17.9042 6.47917 17.7125 6.2875C17.5208 6.09583 17.2833 6 17 6H7C6.71667 6 6.47917 6.09583 6.2875 6.2875C6.09583 6.47917 6 6.71667 6 7C6 7.28333 6.09583 7.52083 6.2875 7.7125C6.47917 7.90417 6.71667 8 7 8ZM6 18L3.7 20.3C3.38333 20.6167 3.02083 20.6875 2.6125 20.5125C2.20417 20.3375 2 20.025 2 19.575V4C2 3.45 2.19583 2.97917 2.5875 2.5875C2.97917 2.19583 3.45 2 4 2H20C20.55 2 21.0208 2.19583 21.4125 2.5875C21.8042 2.97917 22 3.45 22 4V16C22 16.55 21.8042 17.0208 21.4125 17.4125C21.0208 17.8042 20.55 18 20 18H6Z" fill="white"/>
</g>
</g>
</svg>
