<svg width="96" height="24" viewBox="0 0 96 24" fill="none" xmlns="http://www.w3.org/2000/svg">
<path d="M35.3017 17.3333C34.5183 17.3333 33.8016 17.2046 33.1517 16.9471C32.5017 16.6808 31.9409 16.3124 31.469 15.8419C31.006 15.3625 30.6455 14.7987 30.3873 14.1506C30.1291 13.4937 30 12.7746 30 11.9933C30 11.2121 30.1291 10.4974 30.3873 9.84934C30.6455 9.20127 31.006 8.64196 31.469 8.17144C31.9409 7.69204 32.5017 7.32361 33.1517 7.06616C33.8016 6.79982 34.5183 6.66666 35.3017 6.66666C36.0852 6.66666 36.7974 6.79982 37.4385 7.06616C38.0884 7.32361 38.6493 7.69204 39.1211 8.17144C39.593 8.64196 39.958 9.20127 40.2162 9.84934C40.4744 10.4974 40.6035 11.2121 40.6035 11.9933C40.6035 12.7746 40.4744 13.4937 40.2162 14.1506C39.958 14.7987 39.593 15.3625 39.1211 15.8419C38.6493 16.3124 38.0884 16.6808 37.4385 16.9471C36.7974 17.2046 36.0852 17.3333 35.3017 17.3333ZM35.3017 16.0816C35.8804 16.0816 36.4102 15.9795 36.8909 15.7753C37.3806 15.5622 37.8035 15.2737 38.1596 14.9097C38.5157 14.5368 38.7873 14.1018 38.9742 13.6047C39.1701 13.1075 39.268 12.5704 39.268 11.9933C39.268 11.4163 39.1701 10.8792 38.9742 10.382C38.7873 9.88486 38.5157 9.45428 38.1596 9.09029C37.8035 8.71743 37.3806 8.4289 36.8909 8.22471C36.4102 8.02052 35.8804 7.91842 35.3017 7.91842C34.723 7.91842 34.1889 8.02052 33.6992 8.22471C33.2184 8.4289 32.8 8.71743 32.4439 9.09029C32.0967 9.45428 31.8251 9.88486 31.6292 10.382C31.4334 10.8792 31.3355 11.4163 31.3355 11.9933C31.3355 12.5704 31.4334 13.1075 31.6292 13.6047C31.8251 14.1018 32.0967 14.5368 32.4439 14.9097C32.8 15.2737 33.2184 15.5622 33.6992 15.7753C34.1889 15.9795 34.723 16.0816 35.3017 16.0816Z" fill="white"/>
<path d="M46.6708 17.2002C46.4749 17.2002 46.3102 17.1336 46.1767 17.0004C46.0431 16.8672 45.9764 16.703 45.9764 16.5077V6.79982H47.3652V16.5077C47.3652 16.703 47.2985 16.8672 47.1649 17.0004C47.0314 17.1336 46.8667 17.2002 46.6708 17.2002ZM43.0918 8.07822C42.9048 8.07822 42.749 8.02052 42.6244 7.90511C42.5087 7.78082 42.4508 7.62546 42.4508 7.43902C42.4508 7.25259 42.5087 7.10167 42.6244 6.98626C42.749 6.86197 42.9048 6.79982 43.0918 6.79982H50.2365C50.4234 6.79982 50.5748 6.86197 50.6905 6.98626C50.8152 7.10167 50.8775 7.25259 50.8775 7.43902C50.8775 7.62546 50.8152 7.78082 50.6905 7.90511C50.5748 8.02052 50.4234 8.07822 50.2365 8.07822H43.0918Z" fill="white"/>
<path d="M57.1025 17.2002C56.9066 17.2002 56.7419 17.1336 56.6083 17.0004C56.4748 16.8672 56.408 16.703 56.408 16.5077V6.79982H57.7969V16.5077C57.7969 16.703 57.7301 16.8672 57.5966 17.0004C57.463 17.1336 57.2983 17.2002 57.1025 17.2002ZM53.5234 8.07822C53.3365 8.07822 53.1807 8.02052 53.056 7.90511C52.9403 7.78082 52.8824 7.62546 52.8824 7.43902C52.8824 7.25259 52.9403 7.10167 53.056 6.98626C53.1807 6.86197 53.3365 6.79982 53.5234 6.79982H60.6681C60.8551 6.79982 61.0064 6.86197 61.1222 6.98626C61.2468 7.10167 61.3091 7.25259 61.3091 7.43902C61.3091 7.62546 61.2468 7.78082 61.1222 7.90511C61.0064 8.02052 60.8551 8.07822 60.6681 8.07822H53.5234Z" fill="white"/>
<path d="M65.1436 17.2002C64.9478 17.2002 64.7831 17.1336 64.6495 17.0004C64.516 16.8672 64.4492 16.703 64.4492 16.5077V7.49229C64.4492 7.2881 64.516 7.12386 64.6495 6.99957C64.7831 6.86641 64.9478 6.79982 65.1436 6.79982H71.1799C71.3846 6.79982 71.5493 6.86197 71.674 6.98626C71.7986 7.10167 71.861 7.25703 71.861 7.45234C71.861 7.63877 71.7986 7.7897 71.674 7.90511C71.5493 8.02052 71.3846 8.07822 71.1799 8.07822H65.8381V11.3142H69.6708C69.8756 11.3142 70.0403 11.3763 70.1649 11.5006C70.2896 11.616 70.3519 11.7669 70.3519 11.9534C70.3519 12.1398 70.2896 12.2952 70.1649 12.4195C70.0403 12.5349 69.8756 12.5926 69.6708 12.5926H65.8381V15.9218H71.1799C71.3846 15.9218 71.5493 15.9795 71.674 16.0949C71.7986 16.2103 71.861 16.3612 71.861 16.5476C71.861 16.743 71.7986 16.9028 71.674 17.027C71.5493 17.1425 71.3846 17.2002 71.1799 17.2002H65.1436Z" fill="white"/>
<path d="M76.0969 17.2002C75.9011 17.2002 75.7364 17.1336 75.6028 17.0004C75.4693 16.8672 75.4025 16.703 75.4025 16.5077V7.49229C75.4025 7.2881 75.4693 7.12386 75.6028 6.99957C75.7364 6.86641 75.9011 6.79982 76.0969 6.79982C76.3017 6.79982 76.4664 6.86641 76.5911 6.99957C76.7246 7.12386 76.7914 7.2881 76.7914 7.49229V11.3142H82.9879V7.49229C82.9879 7.2881 83.0546 7.12386 83.1882 6.99957C83.3217 6.86641 83.4864 6.79982 83.6823 6.79982C83.8871 6.79982 84.0518 6.86641 84.1764 6.99957C84.3011 7.12386 84.3634 7.2881 84.3634 7.49229V16.5077C84.3634 16.703 84.3011 16.8672 84.1764 17.0004C84.0518 17.1336 83.8871 17.2002 83.6823 17.2002C83.4864 17.2002 83.3217 17.1336 83.1882 17.0004C83.0546 16.8672 82.9879 16.703 82.9879 16.5077V12.5393H76.7914V16.5077C76.7914 16.703 76.7246 16.8672 76.5911 17.0004C76.4664 17.1336 76.3017 17.2002 76.0969 17.2002Z" fill="white"/>
<path d="M89.3325 17.2002C89.1366 17.2002 88.9719 17.1336 88.8384 17.0004C88.7048 16.8672 88.6381 16.703 88.6381 16.5077V7.49229C88.6381 7.2881 88.7048 7.12386 88.8384 6.99957C88.9719 6.86641 89.1366 6.79982 89.3325 6.79982H91.7363C92.404 6.79982 92.9961 6.94187 93.5125 7.22596C94.0288 7.50117 94.4295 7.88291 94.7144 8.37119C95.0082 8.85947 95.1551 9.42765 95.1551 10.0757C95.1551 10.6794 95.0082 11.2165 94.7144 11.687C94.4295 12.1576 94.0288 12.526 93.5125 12.7923C92.9961 13.0587 92.404 13.1918 91.7363 13.1918H90.0269V16.5077C90.0269 16.703 89.9602 16.8672 89.8266 17.0004C89.702 17.1336 89.5373 17.2002 89.3325 17.2002ZM94.8746 17.2002C94.75 17.2002 94.6342 17.1735 94.5274 17.1203C94.4295 17.067 94.3449 16.9826 94.2737 16.8672L91.8699 13.0054L93.2187 12.6192L95.4088 16.1348C95.5691 16.3923 95.5913 16.6364 95.4756 16.8672C95.3598 17.0892 95.1595 17.2002 94.8746 17.2002ZM90.0269 11.9134H91.7363C92.1459 11.9134 92.5064 11.838 92.818 11.687C93.1296 11.5272 93.3745 11.3097 93.5525 11.0345C93.7306 10.7504 93.8196 10.4308 93.8196 10.0757C93.8196 9.68511 93.7306 9.33887 93.5525 9.03703C93.3745 8.73518 93.1296 8.49992 92.818 8.33124C92.5064 8.16256 92.1459 8.07822 91.7363 8.07822H90.0269V11.9134Z" fill="white"/>
<circle cx="12" cy="12" r="12" fill="white"/>
<mask id="mask0_13928_4014" style="mask-type:alpha" maskUnits="userSpaceOnUse" x="0" y="0" width="24" height="24">
<circle cx="12" cy="12" r="12" fill="#536682"/>
</mask>
<g mask="url(#mask0_13928_4014)">
<path fill-rule="evenodd" clip-rule="evenodd" d="M23.1906 27.7705C23.128 27.4765 23.0318 27.0509 22.9247 26.5953C22.7015 25.6515 22.2568 22.9027 21.6369 18.6392L20.6885 12.1243C22.1869 10.7131 21.5788 8.79372 19.7065 8.65396C19.7065 8.65396 19.4951 8.22017 19.3435 7.93794C19.0576 7.39344 18.4659 6.78359 17.7753 6.31714C16.4321 5.40691 14.2295 4.89054 12.006 4.9096C9.78246 4.89054 7.57983 5.40691 6.23393 6.31714C5.54328 6.78632 4.95156 7.39525 4.66568 7.93794C4.51684 8.22017 4.30266 8.65396 4.30266 8.65396C2.43129 8.79372 1.82504 10.7131 3.32341 12.1243L2.37593 18.6392C1.75516 22.9045 1.31046 25.6515 1.0872 26.5953C0.979203 27.0509 0.888448 27.4774 0.821289 27.7705H23.1906Z" fill="#FFCD75"/>
<path d="M16.4992 11.9588C16.9127 11.9588 17.2479 11.5606 17.2479 11.0694C17.2479 10.5782 16.9127 10.1801 16.4992 10.1801C16.0857 10.1801 15.7505 10.5782 15.7505 11.0694C15.7505 11.5606 16.0857 11.9588 16.4992 11.9588Z" fill="#213450"/>
<path d="M7.51191 11.9588C7.92543 11.9588 8.26064 11.5606 8.26064 11.0694C8.26064 10.5782 7.92543 10.1801 7.51191 10.1801C7.0984 10.1801 6.76318 10.5782 6.76318 11.0694C6.76318 11.5606 7.0984 11.9588 7.51191 11.9588Z" fill="#213450"/>
<ellipse cx="12" cy="13.76" rx="3.52" ry="2.24" fill="#213450"/>
<path d="M13.4569 13.0683C12.7699 13.2353 12.2226 13.8388 12.1999 14.455C12.1518 15.7255 14.1693 16.456 15.5932 15.6819C16.0588 15.4278 16.4155 14.9214 16.4618 14.5929H16.7431C17.127 14.5929 17.2386 14.71 17.3267 14.8007L17.3512 14.8271C17.4918 14.9677 17.6788 14.8135 17.6788 14.6401C17.6788 14.4668 17.2577 14.1247 16.7567 14.1247C16.6588 14.1228 16.5609 14.1307 16.4645 14.1483C16.4356 13.9809 16.3924 13.8164 16.3356 13.6564C16.3356 13.6564 16.3411 13.6564 16.3501 13.6564C16.4711 13.626 16.5958 13.6129 16.7204 13.6174C16.9393 13.6288 17.1561 13.6653 17.3666 13.7263L17.3893 13.7326C17.539 13.7998 17.6788 13.7235 17.6788 13.5656C17.6788 13.2153 16.6106 13.0865 16.1015 13.2852C16.1015 13.2852 16.0579 13.2199 15.9054 13.013C15.4444 12.3886 14.6639 11.9167 13.6093 11.6245C12.5545 11.3777 11.4569 11.3777 10.4021 11.6245C9.34748 11.9167 8.56698 12.3886 8.10594 13.013C7.95348 13.2181 7.90991 13.2852 7.90991 13.2852C7.40078 13.0847 6.3335 13.2135 6.3335 13.5638C6.3335 13.7217 6.47326 13.798 6.62301 13.7308L6.64569 13.7244C6.8562 13.6635 7.07301 13.627 7.29187 13.6155C7.41652 13.6111 7.54118 13.6242 7.66215 13.6546C7.67123 13.6546 7.67667 13.6546 7.67667 13.6546C7.61985 13.8146 7.57674 13.9791 7.5478 14.1464C7.45141 14.1289 7.35352 14.121 7.25557 14.1228C6.7546 14.1228 6.3335 14.4595 6.3335 14.6383C6.3335 14.8171 6.52045 14.9659 6.66112 14.8253L6.68563 14.7989C6.77638 14.7082 6.88529 14.5911 7.26918 14.5911H7.55052C7.59681 14.9187 7.95348 15.4251 8.41905 15.6801C9.843 16.4542 11.8605 15.7246 11.8124 14.4532C11.7897 13.837 11.2424 13.2335 10.5554 13.0665C10.246 12.9912 10.2332 12.9041 10.4955 12.6599C10.7578 12.4158 11.3804 12.2888 12.0066 12.2897C12.6328 12.2906 13.259 12.4176 13.5177 12.6599C13.7763 12.9023 13.7663 12.993 13.4569 13.0683Z" fill="white"/>
</g>
</svg>
