<svg width="24" height="24" viewBox="0 0 24 24" fill="none" xmlns="http://www.w3.org/2000/svg">
<g id="call_end">
<mask id="mask0_12653_657" style="mask-type:alpha" maskUnits="userSpaceOnUse" x="0" y="0" width="24" height="24">
<rect id="Bounding box" width="24" height="24" fill="#D9D9D9"/>
</mask>
<g mask="url(#mask0_12653_657)">
<path id="call_end_2" d="M12.0003 8C13.967 8 15.9045 8.39583 17.8128 9.1875C19.7211 9.97917 21.417 11.1667 22.9003 12.75C23.1003 12.95 23.2003 13.1833 23.2003 13.45C23.2003 13.7167 23.1003 13.95 22.9003 14.15L20.6003 16.4C20.417 16.5833 20.2045 16.6833 19.9628 16.7C19.7211 16.7167 19.5003 16.65 19.3003 16.5L16.4003 14.3C16.267 14.2 16.167 14.0833 16.1003 13.95C16.0336 13.8167 16.0003 13.6667 16.0003 13.5V10.65C15.367 10.45 14.717 10.2917 14.0503 10.175C13.3836 10.0583 12.7003 10 12.0003 10C11.3003 10 10.617 10.0583 9.95029 10.175C9.28363 10.2917 8.63363 10.45 8.00029 10.65V13.5C8.00029 13.6667 7.96696 13.8167 7.90029 13.95C7.83363 14.0833 7.73363 14.2 7.60029 14.3L4.70029 16.5C4.50029 16.65 4.27946 16.7167 4.03779 16.7C3.79613 16.6833 3.58363 16.5833 3.40029 16.4L1.10029 14.15C0.900293 13.95 0.800293 13.7167 0.800293 13.45C0.800293 13.1833 0.900293 12.95 1.10029 12.75C2.56696 11.1667 4.25863 9.97917 6.17529 9.1875C8.09196 8.39583 10.0336 8 12.0003 8Z" fill="white"/>
</g>
</g>
</svg>
