<svg width="118" height="30" viewBox="0 0 118 30" fill="none" xmlns="http://www.w3.org/2000/svg">
<ellipse cx="14.8324" cy="15" rx="14.8324" ry="15" fill="#EFF5FF"/>
<mask id="mask0_13050_19343" style="mask-type:alpha" maskUnits="userSpaceOnUse" x="0" y="0" width="30" height="30">
<ellipse cx="14.8324" cy="15" rx="14.8324" ry="15" fill="white"/>
</mask>
<g mask="url(#mask0_13050_19343)">
<path fill-rule="evenodd" clip-rule="evenodd" d="M28.6646 34.7132C28.5872 34.3456 28.4683 33.8136 28.3359 33.2441C28.06 32.0644 27.5103 28.6283 26.7442 23.299L25.5719 15.1553C27.424 13.3914 26.6724 10.9921 24.3582 10.8174C24.3582 10.8174 24.0968 10.2752 23.9095 9.92242C23.5561 9.24179 22.8247 8.47948 21.9711 7.89641C20.3109 6.75863 17.5883 6.11317 14.84 6.13699C12.0917 6.11317 9.36916 6.75863 7.70558 7.89641C6.85192 8.48289 6.12053 9.24406 5.76717 9.92242C5.58321 10.2752 5.31847 10.8174 5.31847 10.8174C3.00539 10.9921 2.25605 13.3914 4.10808 15.1553L2.93696 23.299C2.16968 28.6306 1.62001 32.0644 1.34406 33.2441C1.21057 33.8136 1.09839 34.3468 1.01538 34.7132H28.6646Z" fill="url(#paint0_linear_13050_19343)"/>
<path d="M20.3937 14.9485C20.9048 14.9485 21.3192 14.4508 21.3192 13.8368C21.3192 13.2228 20.9048 12.7251 20.3937 12.7251C19.8826 12.7251 19.4683 13.2228 19.4683 13.8368C19.4683 14.4508 19.8826 14.9485 20.3937 14.9485Z" fill="white"/>
<path d="M9.28507 14.9485C9.79619 14.9485 10.2105 14.4508 10.2105 13.8368C10.2105 13.2228 9.79619 12.7251 9.28507 12.7251C8.77396 12.7251 8.35962 13.2228 8.35962 13.8368C8.35962 14.4508 8.77396 14.9485 9.28507 14.9485Z" fill="white"/>
<path d="M14.84 20.7988C15.4794 20.7988 15.9977 20.6419 15.9977 20.4483C15.9977 20.2547 15.4794 20.0978 14.84 20.0978C14.2007 20.0978 13.6824 20.2547 13.6824 20.4483C13.6824 20.6419 14.2007 20.7988 14.84 20.7988Z" fill="white"/>
<path d="M16.6336 16.3354C15.7844 16.5441 15.108 17.2985 15.0799 18.0687C15.0205 19.6569 17.5142 20.57 19.2742 19.6024C19.8497 19.2848 20.2905 18.6518 20.3477 18.2412H20.6955C21.17 18.2412 21.308 18.3875 21.4168 18.5009L21.4471 18.5338C21.6209 18.7097 21.852 18.5168 21.852 18.3001C21.852 18.0835 21.3315 17.6558 20.7123 17.6558C20.5912 17.6535 20.4702 17.6634 20.3511 17.6853C20.3153 17.4762 20.2621 17.2705 20.1918 17.0705C20.1918 17.0705 20.1986 17.0705 20.2098 17.0705C20.3593 17.0325 20.5134 17.0161 20.6674 17.0217C20.938 17.036 21.206 17.0816 21.4661 17.1578L21.4942 17.1658C21.6793 17.2497 21.852 17.1544 21.852 16.957C21.852 16.5192 20.5317 16.3581 19.9024 16.6065C19.9024 16.6065 19.8486 16.5248 19.6601 16.2662C19.0902 15.4857 18.1255 14.8959 16.822 14.5306C15.5182 14.2221 14.1616 14.2221 12.8577 14.5306C11.5542 14.8959 10.5895 15.4857 10.0197 16.2662C9.83121 16.5226 9.77736 16.6065 9.77736 16.6065C9.14805 16.3558 7.82886 16.5169 7.82886 16.9548C7.82886 17.1522 8.00161 17.2474 8.1867 17.1635L8.21474 17.1556C8.47493 17.0794 8.74293 17.0337 9.01344 17.0194C9.16751 17.0138 9.32159 17.0302 9.47112 17.0682C9.48234 17.0682 9.48907 17.0682 9.48907 17.0682C9.41883 17.2682 9.36554 17.4739 9.32978 17.683C9.21064 17.6611 9.08964 17.6512 8.96857 17.6535C8.34936 17.6535 7.82886 18.0744 7.82886 18.2979C7.82886 18.5213 8.05994 18.7074 8.23381 18.5316L8.2641 18.4987C8.37628 18.3852 8.51089 18.2389 8.9854 18.2389H9.33314C9.39035 18.6484 9.83121 19.2814 10.4067 19.6001C12.1667 20.5678 14.6604 19.6557 14.6009 18.0665C14.5729 17.2962 13.8965 16.5419 13.0473 16.3331C12.6648 16.239 12.6491 16.1301 12.9733 15.8249C13.2975 15.5198 14.067 15.361 14.841 15.3621C15.615 15.3632 16.389 15.522 16.7087 15.8249C17.0284 16.1278 17.0161 16.2412 16.6336 16.3354Z" fill="white"/>
</g>
<path d="M43.4694 21.6667C42.501 21.6667 41.6151 21.5058 40.8118 21.184C40.0085 20.8511 39.3152 20.3905 38.732 19.8024C38.1598 19.2031 37.7141 18.4984 37.395 17.6883C37.0758 16.8672 36.9163 15.9683 36.9163 14.9917C36.9163 14.0152 37.0758 13.1218 37.395 12.3117C37.7141 11.5016 38.1598 10.8025 38.732 10.2144C39.3152 9.6151 40.0085 9.15457 40.8118 8.83275C41.6151 8.49983 42.501 8.33337 43.4694 8.33337C44.4378 8.33337 45.3181 8.49983 46.1104 8.83275C46.9138 9.15457 47.607 9.6151 48.1903 10.2144C48.7735 10.8025 49.2247 11.5016 49.5438 12.3117C49.863 13.1218 50.0225 14.0152 50.0225 14.9917C50.0225 15.9683 49.863 16.8672 49.5438 17.6883C49.2247 18.4984 48.7735 19.2031 48.1903 19.8024C47.607 20.3905 46.9138 20.8511 46.1104 21.184C45.3181 21.5058 44.4378 21.6667 43.4694 21.6667ZM43.4694 20.102C44.1847 20.102 44.8394 19.9744 45.4337 19.7191C46.0389 19.4528 46.5616 19.0921 47.0018 18.6372C47.442 18.1711 47.7776 17.6273 48.0087 17.0059C48.2508 16.3844 48.3719 15.713 48.3719 14.9917C48.3719 14.2704 48.2508 13.599 48.0087 12.9776C47.7776 12.3561 47.442 11.8179 47.0018 11.3629C46.5616 10.8968 46.0389 10.5362 45.4337 10.2809C44.8394 10.0257 44.1847 9.89808 43.4694 9.89808C42.7541 9.89808 42.0938 10.0257 41.4886 10.2809C40.8944 10.5362 40.3771 10.8968 39.937 11.3629C39.5078 11.8179 39.1722 12.3561 38.9301 12.9776C38.688 13.599 38.5669 14.2704 38.5669 14.9917C38.5669 15.713 38.688 16.3844 38.9301 17.0059C39.1722 17.6273 39.5078 18.1711 39.937 18.6372C40.3771 19.0921 40.8944 19.4528 41.4886 19.7191C42.0938 19.9744 42.7541 20.102 43.4694 20.102Z" fill="white"/>
<path d="M57.5219 21.5002C57.2798 21.5002 57.0763 21.417 56.9112 21.2506C56.7461 21.0841 56.6636 20.8788 56.6636 20.6347V8.49983H58.3803V20.6347C58.3803 20.8788 58.2977 21.0841 58.1327 21.2506C57.9676 21.417 57.764 21.5002 57.5219 21.5002ZM53.0982 10.0978C52.8671 10.0978 52.6745 10.0257 52.5204 9.88144C52.3774 9.72608 52.3058 9.53188 52.3058 9.29883C52.3058 9.06579 52.3774 8.87714 52.5204 8.73287C52.6745 8.57751 52.8671 8.49983 53.0982 8.49983H61.9292C62.1603 8.49983 62.3474 8.57751 62.4904 8.73287C62.6445 8.87714 62.7215 9.06579 62.7215 9.29883C62.7215 9.53188 62.6445 9.72608 62.4904 9.88144C62.3474 10.0257 62.1603 10.0978 61.9292 10.0978H53.0982Z" fill="white"/>
<path d="M70.4158 21.5002C70.1737 21.5002 69.9701 21.417 69.805 21.2506C69.64 21.0841 69.5575 20.8788 69.5575 20.6347V8.49983H71.2741V20.6347C71.2741 20.8788 71.1916 21.0841 71.0265 21.2506C70.8615 21.417 70.6579 21.5002 70.4158 21.5002ZM65.992 10.0978C65.7609 10.0978 65.5684 10.0257 65.4143 9.88144C65.2712 9.72608 65.1997 9.53188 65.1997 9.29883C65.1997 9.06579 65.2712 8.87714 65.4143 8.73287C65.5684 8.57751 65.7609 8.49983 65.992 8.49983H74.8231C75.0542 8.49983 75.2412 8.57751 75.3843 8.73287C75.5383 8.87714 75.6154 9.06579 75.6154 9.29883C75.6154 9.53188 75.5383 9.72608 75.3843 9.88144C75.2412 10.0257 75.0542 10.0978 74.8231 10.0978H65.992Z" fill="white"/>
<path d="M80.355 21.5002C80.1129 21.5002 79.9093 21.417 79.7442 21.2506C79.5792 21.0841 79.4966 20.8788 79.4966 20.6347V9.36542C79.4966 9.11018 79.5792 8.90488 79.7442 8.74952C79.9093 8.58306 80.1129 8.49983 80.355 8.49983H87.816C88.0691 8.49983 88.2726 8.57751 88.4267 8.73287C88.5808 8.87714 88.6578 9.07134 88.6578 9.31548C88.6578 9.54852 88.5808 9.73717 88.4267 9.88144C88.2726 10.0257 88.0691 10.0978 87.816 10.0978H81.2133V14.1428H85.9507C86.2038 14.1428 86.4074 14.2205 86.5615 14.3758C86.7155 14.5201 86.7926 14.7087 86.7926 14.9418C86.7926 15.1748 86.7155 15.369 86.5615 15.5244C86.4074 15.6686 86.2038 15.7408 85.9507 15.7408H81.2133V19.9022H87.816C88.0691 19.9022 88.2726 19.9744 88.4267 20.1186C88.5808 20.2629 88.6578 20.4516 88.6578 20.6846C88.6578 20.9287 88.5808 21.1285 88.4267 21.2839C88.2726 21.4281 88.0691 21.5002 87.816 21.5002H80.355Z" fill="white"/>
<path d="M93.8936 21.5002C93.6515 21.5002 93.4479 21.417 93.2829 21.2506C93.1178 21.0841 93.0353 20.8788 93.0353 20.6347V9.36542C93.0353 9.11018 93.1178 8.90488 93.2829 8.74952C93.4479 8.58306 93.6515 8.49983 93.8936 8.49983C94.1467 8.49983 94.3503 8.58306 94.5044 8.74952C94.6694 8.90488 94.752 9.11018 94.752 9.36542V14.1428H102.411V9.36542C102.411 9.11018 102.494 8.90488 102.659 8.74952C102.824 8.58306 103.027 8.49983 103.269 8.49983C103.522 8.49983 103.726 8.58306 103.88 8.74952C104.034 8.90488 104.111 9.11018 104.111 9.36542V20.6347C104.111 20.8788 104.034 21.0841 103.88 21.2506C103.726 21.417 103.522 21.5002 103.269 21.5002C103.027 21.5002 102.824 21.417 102.659 21.2506C102.494 21.0841 102.411 20.8788 102.411 20.6347V15.6742H94.752V20.6347C94.752 20.8788 94.6694 21.0841 94.5044 21.2506C94.3503 21.417 94.1467 21.5002 93.8936 21.5002Z" fill="white"/>
<path d="M110.253 21.5002C110.011 21.5002 109.808 21.417 109.642 21.2506C109.477 21.0841 109.395 20.8788 109.395 20.6347V9.36542C109.395 9.11018 109.477 8.90488 109.642 8.74952C109.808 8.58306 110.011 8.49983 110.253 8.49983H113.224C114.05 8.49983 114.782 8.67739 115.42 9.0325C116.058 9.37651 116.553 9.8537 116.905 10.464C117.269 11.0744 117.45 11.7846 117.45 12.5947C117.45 13.3493 117.269 14.0207 116.905 14.6089C116.553 15.197 116.058 15.6576 115.42 15.9905C114.782 16.3234 114.05 16.4898 113.224 16.4898H111.112V20.6347C111.112 20.8788 111.029 21.0841 110.864 21.2506C110.71 21.417 110.506 21.5002 110.253 21.5002ZM117.103 21.5002C116.949 21.5002 116.806 21.467 116.674 21.4004C116.553 21.3338 116.449 21.2284 116.361 21.0841L113.389 16.2568L115.057 15.7741L117.764 20.1686C117.962 20.4904 117.989 20.7956 117.846 21.0841C117.703 21.3615 117.456 21.5002 117.103 21.5002ZM111.112 14.8918H113.224C113.731 14.8918 114.176 14.7975 114.561 14.6089C114.947 14.4091 115.249 14.1372 115.469 13.7932C115.689 13.4381 115.799 13.0386 115.799 12.5947C115.799 12.1064 115.689 11.6736 115.469 11.2963C115.249 10.919 114.947 10.625 114.561 10.4141C114.176 10.2033 113.731 10.0978 113.224 10.0978H111.112V14.8918Z" fill="white"/>
<defs>
<linearGradient id="paint0_linear_13050_19343" x1="25.6942" y1="8.63149" x2="2.13024" y2="34.4601" gradientUnits="userSpaceOnUse">
<stop stop-color="#226CFB"/>
<stop offset="1" stop-color="#48E9DF"/>
</linearGradient>
</defs>
</svg>
