<svg width="120" height="31" viewBox="0 0 120 31" fill="none" xmlns="http://www.w3.org/2000/svg">
<path d="M44.1272 21.8469C43.1478 21.8469 42.252 21.686 41.4396 21.3642C40.6272 21.0313 39.9261 20.5707 39.3362 19.9826C38.7575 19.3833 38.3068 18.6787 37.9841 17.8686C37.6614 17.0474 37.5 16.1485 37.5 15.1719C37.5 14.1954 37.6614 13.3021 37.9841 12.492C38.3068 11.6819 38.7575 10.9827 39.3362 10.3946C39.9261 9.79533 40.6272 9.33479 41.4396 9.01297C42.252 8.68005 43.1478 8.5136 44.1272 8.5136C45.1065 8.5136 45.9968 8.68005 46.7981 9.01297C47.6105 9.33479 48.3116 9.79533 48.9014 10.3946C49.4912 10.9827 49.9475 11.6819 50.2702 12.492C50.593 13.3021 50.7543 14.1954 50.7543 15.1719C50.7543 16.1485 50.593 17.0474 50.2702 17.8686C49.9475 18.6787 49.4912 19.3833 48.9014 19.9826C48.3116 20.5707 47.6105 21.0313 46.7981 21.3642C45.9968 21.686 45.1065 21.8469 44.1272 21.8469ZM44.1272 20.2822C44.8505 20.2822 45.5127 20.1546 46.1137 19.8994C46.7257 19.633 47.2544 19.2724 47.6995 18.8174C48.1447 18.3513 48.4841 17.8075 48.7178 17.1861C48.9626 16.5646 49.085 15.8933 49.085 15.1719C49.085 14.4506 48.9626 13.7792 48.7178 13.1578C48.4841 12.5363 48.1447 11.9981 47.6995 11.5431C47.2544 11.0771 46.7257 10.7164 46.1137 10.4612C45.5127 10.2059 44.8505 10.0783 44.1272 10.0783C43.4038 10.0783 42.7361 10.2059 42.124 10.4612C41.523 10.7164 41 11.0771 40.5548 11.5431C40.1208 11.9981 39.7814 12.5363 39.5366 13.1578C39.2917 13.7792 39.1693 14.4506 39.1693 15.1719C39.1693 15.8933 39.2917 16.5646 39.5366 17.1861C39.7814 17.8075 40.1208 18.3513 40.5548 18.8174C41 19.2724 41.523 19.633 42.124 19.8994C42.7361 20.1546 43.4038 20.2822 44.1272 20.2822Z" fill="white"/>
<path d="M58.3385 21.6805C58.0937 21.6805 57.8878 21.5972 57.7209 21.4308C57.5539 21.2643 57.4705 21.059 57.4705 20.8149V8.68005H59.2066V20.8149C59.2066 21.059 59.1231 21.2643 58.9562 21.4308C58.7892 21.5972 58.5833 21.6805 58.3385 21.6805ZM53.8647 10.2781C53.631 10.2781 53.4363 10.2059 53.2805 10.0617C53.1358 9.9063 53.0635 9.7121 53.0635 9.47905C53.0635 9.24601 53.1358 9.05736 53.2805 8.9131C53.4363 8.75773 53.631 8.68005 53.8647 8.68005H62.7956C63.0293 8.68005 63.2185 8.75773 63.3631 8.9131C63.5189 9.05736 63.5968 9.24601 63.5968 9.47905C63.5968 9.7121 63.5189 9.9063 63.3631 10.0617C63.2185 10.2059 63.0293 10.2781 62.7956 10.2781H53.8647Z" fill="white"/>
<path d="M71.3781 21.6805C71.1332 21.6805 70.9273 21.5972 70.7604 21.4308C70.5935 21.2643 70.51 21.059 70.51 20.8149V8.68005H72.2461V20.8149C72.2461 21.059 72.1626 21.2643 71.9957 21.4308C71.8288 21.5972 71.6229 21.6805 71.3781 21.6805ZM66.9043 10.2781C66.6706 10.2781 66.4758 10.2059 66.32 10.0617C66.1754 9.9063 66.103 9.7121 66.103 9.47905C66.103 9.24601 66.1754 9.05736 66.32 8.9131C66.4758 8.75773 66.6706 8.68005 66.9043 8.68005H75.8351C76.0688 8.68005 76.258 8.75773 76.4027 8.9131C76.5585 9.05736 76.6364 9.24601 76.6364 9.47905C76.6364 9.7121 76.5585 9.9063 76.4027 10.0617C76.258 10.2059 76.0688 10.2781 75.8351 10.2781H66.9043Z" fill="white"/>
<path d="M81.4295 21.6805C81.1847 21.6805 80.9788 21.5972 80.8119 21.4308C80.645 21.2643 80.5615 21.059 80.5615 20.8149V9.54564C80.5615 9.2904 80.645 9.0851 80.8119 8.92974C80.9788 8.76328 81.1847 8.68005 81.4295 8.68005H88.9748C89.2308 8.68005 89.4367 8.75773 89.5925 8.9131C89.7483 9.05736 89.8262 9.25156 89.8262 9.4957C89.8262 9.72874 89.7483 9.9174 89.5925 10.0617C89.4367 10.2059 89.2308 10.2781 88.9748 10.2781H82.2976V14.323H87.0885C87.3445 14.323 87.5504 14.4007 87.7062 14.556C87.862 14.7003 87.9399 14.889 87.9399 15.122C87.9399 15.355 87.862 15.5492 87.7062 15.7046C87.5504 15.8489 87.3445 15.921 87.0885 15.921H82.2976V20.0825H88.9748C89.2308 20.0825 89.4367 20.1546 89.5925 20.2989C89.7483 20.4431 89.8262 20.6318 89.8262 20.8648C89.8262 21.109 89.7483 21.3087 89.5925 21.4641C89.4367 21.6083 89.2308 21.6805 88.9748 21.6805H81.4295Z" fill="white"/>
<path d="M95.1212 21.6805C94.8763 21.6805 94.6705 21.5972 94.5035 21.4308C94.3366 21.2643 94.2531 21.059 94.2531 20.8149V9.54564C94.2531 9.2904 94.3366 9.0851 94.5035 8.92974C94.6705 8.76328 94.8763 8.68005 95.1212 8.68005C95.3771 8.68005 95.583 8.76328 95.7388 8.92974C95.9058 9.0851 95.9892 9.2904 95.9892 9.54564V14.323H103.735V9.54564C103.735 9.2904 103.818 9.0851 103.985 8.92974C104.152 8.76328 104.358 8.68005 104.603 8.68005C104.859 8.68005 105.065 8.76328 105.221 8.92974C105.376 9.0851 105.454 9.2904 105.454 9.54564V20.8149C105.454 21.059 105.376 21.2643 105.221 21.4308C105.065 21.5972 104.859 21.6805 104.603 21.6805C104.358 21.6805 104.152 21.5972 103.985 21.4308C103.818 21.2643 103.735 21.059 103.735 20.8149V15.8544H95.9892V20.8149C95.9892 21.059 95.9058 21.2643 95.7388 21.4308C95.583 21.5972 95.3771 21.6805 95.1212 21.6805Z" fill="white"/>
<path d="M111.666 21.6805C111.421 21.6805 111.215 21.5972 111.048 21.4308C110.881 21.2643 110.798 21.059 110.798 20.8149V9.54564C110.798 9.2904 110.881 9.0851 111.048 8.92974C111.215 8.76328 111.421 8.68005 111.666 8.68005H114.67C115.505 8.68005 116.245 8.85761 116.891 9.21272C117.536 9.55674 118.037 10.0339 118.393 10.6443C118.76 11.2546 118.944 11.9648 118.944 12.7749C118.944 13.5295 118.76 14.2009 118.393 14.7891C118.037 15.3772 117.536 15.8378 116.891 16.1707C116.245 16.5036 115.505 16.6701 114.67 16.6701H112.534V20.8149C112.534 21.059 112.45 21.2643 112.283 21.4308C112.127 21.5972 111.922 21.6805 111.666 21.6805ZM118.593 21.6805C118.437 21.6805 118.293 21.6472 118.159 21.5806C118.037 21.514 117.931 21.4086 117.842 21.2643L114.837 16.437L116.523 15.9543L119.261 20.3488C119.461 20.6706 119.489 20.9758 119.344 21.2643C119.2 21.5418 118.949 21.6805 118.593 21.6805ZM112.534 15.0721H114.67C115.182 15.0721 115.633 14.9777 116.023 14.7891C116.412 14.5893 116.718 14.3175 116.941 13.9734C117.163 13.6183 117.275 13.2188 117.275 12.7749C117.275 12.2867 117.163 11.8539 116.941 11.4766C116.718 11.0993 116.412 10.8052 116.023 10.5943C115.633 10.3835 115.182 10.2781 114.67 10.2781H112.534V15.0721Z" fill="white"/>
<circle cx="15" cy="15.1803" r="15" fill="white"/>
<mask id="mask0_13928_4286" style="mask-type:alpha" maskUnits="userSpaceOnUse" x="0" y="0" width="30" height="31">
<circle cx="15" cy="15.1803" r="15" fill="#536682"/>
</mask>
<g mask="url(#mask0_13928_4286)">
<path fill-rule="evenodd" clip-rule="evenodd" d="M28.9885 34.8935C28.9103 34.5259 28.79 33.9939 28.6561 33.4244C28.3771 32.2447 27.8212 28.8086 27.0464 23.4793L25.8609 15.3356C27.7338 13.5716 26.9738 11.1724 24.6334 10.9977C24.6334 10.9977 24.3691 10.4555 24.1796 10.1027C23.8223 9.42209 23.0826 8.65978 22.2193 8.07671C20.5404 6.93893 17.7871 6.29347 15.0077 6.31729C12.2283 6.29347 9.47503 6.93893 7.79265 8.07671C6.92935 8.66319 6.18969 9.42436 5.83234 10.1027C5.64629 10.4555 5.37857 10.9977 5.37857 10.9977C3.03935 11.1724 2.28155 13.5716 4.15451 15.3356L2.97015 23.4793C2.19419 28.8109 1.63832 32.2447 1.35925 33.4244C1.22425 33.9939 1.1108 34.5271 1.02686 34.8935H28.9885Z" fill="#FFCD75"/>
<path d="M20.6241 15.1288C21.141 15.1288 21.5601 14.631 21.5601 14.0171C21.5601 13.4031 21.141 12.9054 20.6241 12.9054C20.1073 12.9054 19.6882 13.4031 19.6882 14.0171C19.6882 14.631 20.1073 15.1288 20.6241 15.1288Z" fill="#213450"/>
<path d="M9.39001 15.1288C9.9069 15.1288 10.3259 14.631 10.3259 14.0171C10.3259 13.4031 9.9069 12.9054 9.39001 12.9054C8.87312 12.9054 8.4541 13.4031 8.4541 14.0171C8.4541 14.631 8.87312 15.1288 9.39001 15.1288Z" fill="#213450"/>
<ellipse cx="15.0001" cy="17.3803" rx="4.4" ry="2.8" fill="#213450"/>
<path d="M16.8215 16.5157C15.9627 16.7244 15.2786 17.4788 15.2503 18.249C15.1901 19.8371 17.712 20.7503 19.4919 19.7827C20.0739 19.4651 20.5197 18.8321 20.5776 18.4214H20.9293C21.4091 18.4214 21.5487 18.5678 21.6587 18.6812L21.6893 18.7141C21.8652 18.8899 22.0989 18.6971 22.0989 18.4804C22.0989 18.2638 21.5725 17.8361 20.9463 17.8361C20.8238 17.8338 20.7015 17.8437 20.581 17.8656C20.5448 17.6565 20.4909 17.4508 20.4199 17.2508C20.4199 17.2508 20.4267 17.2508 20.438 17.2508C20.5893 17.2128 20.7451 17.1964 20.9009 17.202C21.1745 17.2162 21.4455 17.2619 21.7086 17.3381L21.737 17.346C21.9242 17.43 22.0989 17.3347 22.0989 17.1373C22.0989 16.6994 20.7636 16.5384 20.1272 16.7868C20.1272 16.7868 20.0728 16.7051 19.8822 16.4465C19.3059 15.666 18.3303 15.0762 17.012 14.7109C15.6935 14.4023 14.3215 14.4023 13.0029 14.7109C11.6847 15.0762 10.7091 15.666 10.1328 16.4465C9.94221 16.7029 9.88776 16.7868 9.88776 16.7868C9.25134 16.5361 7.91724 16.6972 7.91724 17.1351C7.91724 17.3324 8.09194 17.4277 8.27912 17.3438L8.30748 17.3358C8.57061 17.2596 8.84163 17.214 9.1152 17.1997C9.27102 17.1941 9.42684 17.2105 9.57806 17.2485C9.5894 17.2485 9.59621 17.2485 9.59621 17.2485C9.52518 17.4485 9.47128 17.6542 9.43512 17.8633C9.31463 17.8414 9.19227 17.8315 9.06983 17.8338C8.44362 17.8338 7.91724 18.2547 7.91724 18.4782C7.91724 18.7016 8.15093 18.8877 8.32677 18.7118L8.3574 18.6789C8.47084 18.5655 8.60698 18.4192 9.08684 18.4192H9.43852C9.49638 18.8287 9.94221 19.4617 10.5242 19.7804C12.3041 20.7481 14.826 19.836 14.7658 18.2467C14.7375 17.4765 14.0534 16.7221 13.1946 16.5134C12.8078 16.4193 12.7919 16.3104 13.1198 16.0052C13.4476 15.7001 14.2259 15.5412 15.0086 15.5424C15.7914 15.5435 16.5741 15.7023 16.8975 16.0052C17.2208 16.3081 17.2083 16.4215 16.8215 16.5157Z" fill="white"/>
</g>
</svg>
