<svg width="42" height="42" viewBox="0 0 42 42" fill="none" xmlns="http://www.w3.org/2000/svg">
<circle cx="21" cy="21" r="21" fill="#FAFAFA"/>
<mask id="mask0_13928_3582" style="mask-type:alpha" maskUnits="userSpaceOnUse" x="0" y="0" width="42" height="42">
<circle cx="21" cy="21" r="21" fill="url(#paint0_linear_13928_3582)"/>
</mask>
<g mask="url(#mask0_13928_3582)">
<ellipse cx="27.5149" cy="16.8481" rx="1.10152" ry="1.30806" fill="white"/>
<ellipse cx="14.2966" cy="16.8481" rx="1.10152" ry="1.30806" fill="white"/>
<ellipse cx="20.9058" cy="24.6275" rx="0.413072" ry="1.3769" transform="rotate(90 20.9058 24.6275)" fill="white"/>
<path d="M7.64662 38.672C6.93444 37.2516 7.79849 33.6303 10.44 32.3059C13.0816 30.9814 16.5003 32.4555 17.2125 33.8759C17.9247 35.2963 17.1816 37.5189 15.2893 36.6264C15.1184 39.167 11.6579 39.6745 10.6722 38.5319C10.0096 40.0918 8.0274 39.4315 7.64662 38.672Z" fill="url(#paint1_linear_13928_3582)"/>
<path d="M24.6049 34.6537C25.1829 33.1735 28.451 31.3902 31.2035 32.4651C33.9561 33.54 35.1507 37.0661 34.5727 38.5462C33.9947 40.0263 31.8464 40.9628 31.2422 38.9598C29.2409 40.5342 26.5465 38.304 26.7351 36.8068C25.1329 37.3593 24.2959 35.445 24.6049 34.6537Z" fill="url(#paint2_linear_13928_3582)"/>
<g clip-path="url(#clip0_13928_3582)">
<path fill-rule="evenodd" clip-rule="evenodd" d="M37.8015 42.0001C37.7086 41.5571 37.5659 40.916 37.407 40.2297C37.0759 38.8079 36.4162 34.6669 35.4968 28.2443L34.09 18.4299C36.3126 16.304 35.4106 13.4126 32.6334 13.2021C32.6334 13.2021 32.3197 12.5486 32.0949 12.1235C31.6708 11.3032 30.7931 10.3845 29.7686 9.68181C27.7763 8.31061 24.509 7.53273 21.2108 7.56144C17.9126 7.53273 14.6453 8.31061 12.6489 9.68181C11.6244 10.3886 10.7467 11.3059 10.3227 12.1235C10.1019 12.5486 9.78417 13.2021 9.78417 13.2021C7.00829 13.4126 6.10902 16.304 8.33161 18.4299L6.92617 28.2443C6.00537 34.6697 5.34572 38.8079 5.01456 40.2297C4.85436 40.916 4.71974 41.5585 4.62012 42.0001H37.8015Z" fill="#A7DAFF"/>
<ellipse cx="21.2457" cy="20.8209" rx="5.31752" ry="3.41775" fill="#213450"/>
<path d="M25.4419 33.5297C26.2735 32.165 29.803 30.9253 32.3253 32.427C34.8476 33.9287 35.407 37.6014 34.5772 38.9699C33.7475 40.3384 31.4665 40.9187 31.2222 38.8414C28.9757 40.0754 26.713 37.4414 27.1609 35.9944C25.486 36.2851 24.9985 34.2611 25.4419 33.5297Z" fill="#7ABDEE"/>
<path d="M27.8758 18.1811C28.4891 18.1811 28.9864 17.5813 28.9864 16.8413C28.9864 16.1014 28.4891 15.5016 27.8758 15.5016C27.2624 15.5016 26.7651 16.1014 26.7651 16.8413C26.7651 17.5813 27.2624 18.1811 27.8758 18.1811Z" fill="#213450"/>
<path d="M14.5445 18.1811C15.1578 18.1811 15.6551 17.5813 15.6551 16.8413C15.6551 16.1014 15.1578 15.5016 14.5445 15.5016C13.9311 15.5016 13.4338 16.1014 13.4338 16.8413C13.4338 17.5813 13.9311 18.1811 14.5445 18.1811Z" fill="#213450"/>
<path d="M23.3633 19.8516C22.3442 20.1032 21.5324 21.0123 21.4988 21.9406C21.4274 23.8545 24.42 24.955 26.5322 23.7889C27.2228 23.4061 27.7519 22.6433 27.8206 22.1484H28.2379C28.8073 22.1484 28.9729 22.3247 29.1035 22.4614L29.1398 22.5011C29.3485 22.713 29.6258 22.4806 29.6258 22.2195C29.6258 21.9583 29.0012 21.4429 28.2581 21.4429C28.1128 21.4402 27.9676 21.4521 27.8246 21.4785C27.7817 21.2264 27.7177 20.9786 27.6334 20.7375C27.6334 20.7375 27.6415 20.7375 27.655 20.7375C27.8344 20.6918 28.0193 20.672 28.2042 20.6787C28.5289 20.6959 28.8505 20.751 29.1627 20.8428L29.1964 20.8524C29.4185 20.9535 29.6258 20.8387 29.6258 20.6008C29.6258 20.0731 28.0413 19.879 27.2861 20.1784C27.2861 20.1784 27.2215 20.0799 26.9953 19.7682C26.3115 18.8277 25.1537 18.1168 23.5894 17.6766C22.0247 17.3047 20.3966 17.3047 18.8319 17.6766C17.2676 18.1168 16.1099 18.8277 15.426 19.7682C15.1999 20.0772 15.1352 20.1784 15.1352 20.1784C14.38 19.8762 12.7969 20.0704 12.7969 20.5981C12.7969 20.836 13.0042 20.9508 13.2263 20.8496L13.26 20.8401C13.5722 20.7482 13.8938 20.6932 14.2185 20.676C14.4034 20.6692 14.5883 20.689 14.7677 20.7348C14.7812 20.7348 14.7893 20.7348 14.7893 20.7348C14.705 20.9758 14.641 21.2237 14.5981 21.4758C14.4551 21.4493 14.3099 21.4374 14.1646 21.4402C13.4215 21.4402 12.7969 21.9474 12.7969 22.2167C12.7969 22.486 13.0742 22.7102 13.2829 22.4983L13.3192 22.4587C13.4538 22.322 13.6154 22.1456 14.1848 22.1456H14.6021C14.6708 22.6392 15.1999 23.402 15.8905 23.7862C18.0027 24.9523 20.9953 23.8531 20.9239 21.9378C20.8903 21.0096 20.0785 20.1005 19.0594 19.8489C18.6004 19.7354 18.5815 19.6042 18.9706 19.2364C19.3596 18.8687 20.2831 18.6773 21.212 18.6787C22.1409 18.68 23.0698 18.8714 23.4535 19.2364C23.8371 19.6015 23.8223 19.7382 23.3633 19.8516Z" fill="white"/>
<path d="M6.724 39.0481C5.84065 37.7165 6.25834 34.0263 8.72143 32.4325C11.1845 30.8388 14.7715 31.9254 15.6541 33.2581C16.5367 34.5908 16.0719 36.875 14.079 36.1933C14.2214 38.7324 10.8405 39.6093 9.7188 38.5823C9.25034 40.2016 7.19688 39.7609 6.724 39.0481Z" fill="#7ABDEE"/>
</g>
</g>
<defs>
<linearGradient id="paint0_linear_13928_3582" x1="38.9224" y1="3.65766" x2="16.5285" y2="30.7897" gradientUnits="userSpaceOnUse">
<stop stop-color="#1F85B6"/>
<stop offset="0.375" stop-color="#568DAE"/>
<stop offset="1" stop-color="#4D72AA"/>
</linearGradient>
<linearGradient id="paint1_linear_13928_3582" x1="9.32799" y1="39.8511" x2="10.1811" y2="30.1924" gradientUnits="userSpaceOnUse">
<stop stop-color="#2C31BB"/>
<stop offset="1" stop-color="#9D50FF"/>
</linearGradient>
<linearGradient id="paint2_linear_13928_3582" x1="24.8552" y1="36.6919" x2="32.5997" y2="30.8575" gradientUnits="userSpaceOnUse">
<stop stop-color="#2C31BB"/>
<stop offset="1" stop-color="#9D50FF"/>
</linearGradient>
<clipPath id="clip0_13928_3582">
<rect width="33.18" height="34.44" fill="white" transform="translate(4.62012 7.56006)"/>
</clipPath>
</defs>
</svg>
