<svg width="42" height="42" viewBox="0 0 42 42" fill="none" xmlns="http://www.w3.org/2000/svg">
<circle cx="21" cy="21" r="21" fill="#D9E1FF"/>
<mask id="mask0_13124_1577" style="mask-type:alpha" maskUnits="userSpaceOnUse" x="0" y="0" width="42" height="42">
<circle cx="21" cy="21" r="21" fill="url(#paint0_linear_13124_1577)"/>
</mask>
<g mask="url(#mask0_13124_1577)">
<ellipse cx="21.1749" cy="23.31" rx="10.92" ry="12.81" fill="white"/>
<path fill-rule="evenodd" clip-rule="evenodd" d="M8.35332 41.948H20.9879V41.9456L33.5117 41.948C36.7637 41.948 37.4903 41.914 37.4903 41.7617C37.4903 41.6594 37.2651 40.6215 36.9899 39.4554C36.6626 38.068 36.0079 34.0242 35.0957 27.7539L33.7016 18.1724C35.9058 16.0968 35.0108 13.2741 32.257 13.0676C32.257 13.0676 31.9466 12.4307 31.7281 12.0157C31.3075 11.2173 30.4368 10.3169 29.4216 9.63093C27.4415 8.29303 24.2079 7.5331 20.9325 7.56073C17.6571 7.5331 14.4236 8.29303 12.4434 9.63093C11.4282 10.3169 10.5575 11.2173 10.137 12.0157C9.91845 12.4307 9.60798 13.0676 9.60798 13.0676C6.85417 13.2741 5.95919 16.0968 8.16345 18.1724L6.76933 27.7539C5.85713 34.0242 5.20242 38.068 4.87512 39.4554C4.59988 40.6215 4.37476 41.6594 4.37476 41.7617C4.37476 41.914 5.10135 41.948 8.35332 41.948ZM20.9325 17.4471C20.0732 17.4541 19.1984 17.5459 18.5745 17.7189C17.0229 18.1489 15.8753 18.8427 15.1969 19.761C14.9738 20.0633 14.9091 20.1587 14.9091 20.1587C14.1607 19.8662 12.5889 20.0568 12.5889 20.5717C12.5889 20.8042 12.7954 20.916 13.0148 20.8164L13.0482 20.8078C13.2665 20.7515 13.6712 20.6471 13.9993 20.6471C14.3341 20.6471 14.4898 20.6905 14.5428 20.7052C14.5574 20.7093 14.5642 20.7112 14.5648 20.7094C14.5157 20.8378 14.375 21.3247 14.375 21.4321C14.375 21.4321 14.2206 21.3979 13.9452 21.3979C13.2085 21.3979 12.5889 21.8931 12.5889 22.1552C12.5889 22.41 12.8643 22.6371 13.0708 22.4306C13.083 22.4184 13.0951 22.4057 13.1076 22.3927L13.1077 22.3926C13.2366 22.258 13.401 22.0863 13.9658 22.0863H14.3789C14.4477 22.5683 14.9722 23.3135 15.657 23.6861C17.75 24.8253 20.7178 23.7522 20.6476 21.8815C20.6134 20.9752 19.8089 20.0882 18.7978 19.8421C18.3433 19.7315 18.3244 19.6034 18.7097 19.2445C19.0913 18.889 20.0113 18.6985 20.9324 18.7003C21.8536 18.6984 22.7737 18.889 23.1553 19.2445C23.5406 19.6034 23.5217 19.7315 23.0672 19.8421C22.0561 20.0882 21.2516 20.9752 21.2175 21.8815C21.1472 23.7522 24.115 24.8253 26.208 23.6861C26.8928 23.3135 27.4173 22.5683 27.4861 22.0863H27.8992C28.464 22.0863 28.6284 22.258 28.7573 22.3926C28.7635 22.3991 28.7697 22.4055 28.7758 22.4118C28.7819 22.4182 28.7881 22.4244 28.7942 22.4306C29.0007 22.6371 29.2761 22.41 29.2761 22.1552C29.2761 21.8931 28.6565 21.3979 27.9198 21.3979C27.6444 21.3979 27.49 21.4321 27.49 21.4321C27.49 21.3247 27.3493 20.8378 27.3002 20.7094C27.3008 20.7112 27.3077 20.7093 27.3222 20.7052C27.3753 20.6905 27.5309 20.6471 27.8657 20.6471C28.1938 20.6471 28.5985 20.7515 28.8168 20.8078L28.8502 20.8164C29.0696 20.916 29.2761 20.8042 29.2761 20.5717C29.2761 20.0568 27.7043 19.8662 26.956 20.1587C26.956 20.1587 26.8913 20.0633 26.6681 19.761C25.9897 18.8427 24.8422 18.1489 23.2905 17.7189C22.6666 17.5459 21.7918 17.4541 20.9325 17.4471Z" fill="url(#paint1_linear_13124_1577)"/>
<ellipse cx="27.5147" cy="16.848" rx="1.10152" ry="1.30806" fill="white"/>
<ellipse cx="14.2965" cy="16.848" rx="1.10152" ry="1.30806" fill="white"/>
<ellipse cx="20.9056" cy="24.6274" rx="0.413072" ry="1.3769" transform="rotate(90 20.9056 24.6274)" fill="white"/>
<path d="M7.64638 38.672C6.9342 37.2516 7.79825 33.6303 10.4398 32.3059C13.0813 30.9814 16.5001 32.4555 17.2123 33.8759C17.9245 35.2963 17.1813 37.5189 15.2891 36.6264C15.1182 39.167 11.6576 39.6745 10.672 38.5319C10.0093 40.0918 8.02715 39.4315 7.64638 38.672Z" fill="url(#paint2_linear_13124_1577)"/>
<path d="M24.6048 34.6536C25.1828 33.1735 28.4508 31.3901 31.2034 32.465C33.9559 33.5399 35.1506 37.066 34.5726 38.5461C33.9946 40.0262 31.8463 40.9627 31.242 38.9597C29.2408 40.5341 26.5464 38.304 26.735 36.8068C25.1328 37.3592 24.2957 35.445 24.6048 34.6536Z" fill="url(#paint3_linear_13124_1577)"/>
</g>
<defs>
<linearGradient id="paint0_linear_13124_1577" x1="38.9224" y1="3.65766" x2="16.5285" y2="30.7897" gradientUnits="userSpaceOnUse">
<stop stop-color="#1F85B6"/>
<stop offset="0.375" stop-color="#568DAE"/>
<stop offset="1" stop-color="#4D72AA"/>
</linearGradient>
<linearGradient id="paint1_linear_13124_1577" x1="34.4743" y1="12.5857" x2="7.75371" y2="41.0971" gradientUnits="userSpaceOnUse">
<stop stop-color="#3138D6"/>
<stop offset="1" stop-color="#9086FF"/>
</linearGradient>
<linearGradient id="paint2_linear_13124_1577" x1="9.32775" y1="39.8511" x2="10.1809" y2="30.1924" gradientUnits="userSpaceOnUse">
<stop stop-color="#2C31BB"/>
<stop offset="1" stop-color="#9D50FF"/>
</linearGradient>
<linearGradient id="paint3_linear_13124_1577" x1="24.8551" y1="36.6919" x2="32.5996" y2="30.8574" gradientUnits="userSpaceOnUse">
<stop stop-color="#2C31BB"/>
<stop offset="1" stop-color="#9D50FF"/>
</linearGradient>
</defs>
</svg>
