<svg width="96" height="24" viewBox="0 0 96 24" fill="none" xmlns="http://www.w3.org/2000/svg">
<path fill-rule="evenodd" clip-rule="evenodd" d="M21.8206 19.067C23.2755 17.0847 24.1341 14.642 24.1341 12C24.1341 5.37258 18.7315 0 12.067 0C5.4026 0 0 5.37258 0 12C0 14.6486 0.862904 17.0969 2.3244 19.0818C2.34583 18.9362 2.36747 18.7886 2.38934 18.6393L3.34211 12.1243C1.83538 10.7131 2.44501 8.79374 4.32683 8.65399C4.32683 8.65399 4.54221 8.2202 4.69188 7.93796C4.97936 7.39528 5.57439 6.78634 6.26889 6.31716C7.62231 5.40694 9.83724 4.89057 12.0732 4.90962C14.3091 4.89057 16.524 5.40694 17.8747 6.31716C18.5692 6.78362 19.1642 7.39346 19.4517 7.93796C19.6041 8.2202 19.8168 8.65399 19.8168 8.65399C21.6995 8.79374 22.311 10.7131 20.8042 12.1243L21.7579 18.6393C21.779 18.7836 21.7999 18.9261 21.8206 19.067Z" fill="white"/>
<mask id="mask0_13124_1528" style="mask-type:alpha" maskUnits="userSpaceOnUse" x="0" y="0" width="25" height="24">
<ellipse cx="12.067" cy="12" rx="12.067" ry="12" fill="white"/>
</mask>
<g mask="url(#mask0_13124_1528)">
<path d="M16.5915 11.9589C17.0074 11.9589 17.3444 11.5607 17.3444 11.0695C17.3444 10.5784 17.0074 10.1802 16.5915 10.1802C16.1757 10.1802 15.8386 10.5784 15.8386 11.0695C15.8386 11.5607 16.1757 11.9589 16.5915 11.9589Z" fill="white"/>
<path d="M7.55369 11.9589C7.96952 11.9589 8.30661 11.5607 8.30661 11.0695C8.30661 10.5784 7.96952 10.1802 7.55369 10.1802C7.13787 10.1802 6.80078 10.5784 6.80078 11.0695C6.80078 11.5607 7.13787 11.9589 7.55369 11.9589Z" fill="white"/>
<path d="M12.0729 16.6392C12.5931 16.6392 13.0148 16.5137 13.0148 16.3588C13.0148 16.2039 12.5931 16.0784 12.0729 16.0784C11.5528 16.0784 11.1311 16.2039 11.1311 16.3588C11.1311 16.5137 11.5528 16.6392 12.0729 16.6392Z" fill="white"/>
<path d="M13.5323 13.0684C12.8415 13.2354 12.2911 13.8389 12.2683 14.4551C12.22 15.7256 14.2487 16.4561 15.6806 15.682C16.1488 15.4279 16.5075 14.9215 16.554 14.593H16.8369C17.223 14.593 17.3352 14.7101 17.4237 14.8008L17.4484 14.8272C17.5898 14.9678 17.7778 14.8135 17.7778 14.6402C17.7778 14.4669 17.3544 14.1247 16.8506 14.1247C16.7521 14.1229 16.6537 14.1308 16.5567 14.1483C16.5276 13.981 16.4843 13.8165 16.4271 13.6565C16.4271 13.6565 16.4326 13.6565 16.4417 13.6565C16.5634 13.6261 16.6888 13.613 16.8141 13.6175C17.0342 13.6289 17.2522 13.6654 17.4639 13.7264L17.4867 13.7327C17.6373 13.7999 17.7778 13.7236 17.7778 13.5657C17.7778 13.2154 16.7037 13.0866 16.1917 13.2853C16.1917 13.2853 16.1479 13.22 15.9946 13.0131C15.531 12.3887 14.7461 11.9168 13.6856 11.6246C12.6249 11.3777 11.5212 11.3777 10.4604 11.6246C9.39996 11.9168 8.6151 12.3887 8.15149 13.0131C7.99817 13.2182 7.95436 13.2853 7.95436 13.2853C7.44238 13.0848 6.36914 13.2136 6.36914 13.5639C6.36914 13.7218 6.50968 13.798 6.66027 13.7309L6.68308 13.7245C6.89476 13.6636 7.11279 13.627 7.33287 13.6156C7.45821 13.6111 7.58357 13.6243 7.70522 13.6547C7.71435 13.6547 7.71982 13.6547 7.71982 13.6547C7.66268 13.8147 7.61933 13.9792 7.59023 14.1465C7.4933 14.129 7.39486 14.1211 7.29636 14.1229C6.7926 14.1229 6.36914 14.4596 6.36914 14.6384C6.36914 14.8172 6.55714 14.966 6.6986 14.8253L6.72324 14.799C6.8145 14.7083 6.92401 14.5912 7.31005 14.5912H7.59297C7.63951 14.9188 7.99817 15.4252 8.46635 15.6802C9.89825 16.4543 11.927 15.7247 11.8786 14.4533C11.8558 13.8371 11.3055 13.2336 10.6147 13.0666C10.3035 12.9913 10.2907 12.9042 10.5544 12.66C10.8182 12.4159 11.4442 12.2889 12.0739 12.2898C12.7036 12.2907 13.3334 12.4177 13.5935 12.66C13.8536 12.9023 13.8435 12.9931 13.5323 13.0684Z" fill="white"/>
</g>
<path d="M35.3648 17.3334C34.577 17.3334 33.8563 17.2047 33.2027 16.9472C32.5492 16.6809 31.9851 16.3125 31.5106 15.8419C31.0451 15.3625 30.6825 14.7988 30.4229 14.1507C30.1633 13.4938 30.0334 12.7747 30.0334 11.9934C30.0334 11.2122 30.1633 10.4975 30.4229 9.84944C30.6825 9.20136 31.0451 8.64206 31.5106 8.17153C31.9851 7.69213 32.5492 7.3237 33.2027 7.06625C33.8563 6.79991 34.577 6.66675 35.3648 6.66675C36.1526 6.66675 36.8689 6.79991 37.5135 7.06625C38.167 7.3237 38.731 7.69213 39.2055 8.17153C39.68 8.64206 40.0471 9.20136 40.3067 9.84944C40.5663 10.4975 40.6962 11.2122 40.6962 11.9934C40.6962 12.7747 40.5663 13.4938 40.3067 14.1507C40.0471 14.7988 39.68 15.3625 39.2055 15.8419C38.731 16.3125 38.167 16.6809 37.5135 16.9472C36.8689 17.2047 36.1526 17.3334 35.3648 17.3334ZM35.3648 16.0816C35.9467 16.0816 36.4794 15.9796 36.9629 15.7754C37.4553 15.5623 37.8805 15.2738 38.2386 14.9098C38.5967 14.5369 38.8698 14.1019 39.0578 13.6047C39.2548 13.1076 39.3533 12.5705 39.3533 11.9934C39.3533 11.4164 39.2548 10.8793 39.0578 10.3821C38.8698 9.88495 38.5967 9.45437 38.2386 9.09038C37.8805 8.71752 37.4553 8.42899 36.9629 8.2248C36.4794 8.02061 35.9467 7.91852 35.3648 7.91852C34.7829 7.91852 34.2457 8.02061 33.7533 8.2248C33.2699 8.42899 32.8491 8.71752 32.491 9.09038C32.1418 9.45437 31.8688 9.88495 31.6718 10.3821C31.4748 10.8793 31.3764 11.4164 31.3764 11.9934C31.3764 12.5705 31.4748 13.1076 31.6718 13.6047C31.8688 14.1019 32.1418 14.5369 32.491 14.9098C32.8491 15.2738 33.2699 15.5623 33.7533 15.7754C34.2457 15.9796 34.7829 16.0816 35.3648 16.0816Z" fill="white"/>
<path d="M46.7974 17.2002C46.6004 17.2002 46.4348 17.1337 46.3005 17.0005C46.1662 16.8673 46.0991 16.7031 46.0991 16.5078V6.79991H47.4957V16.5078C47.4957 16.7031 47.4286 16.8673 47.2943 17.0005C47.16 17.1337 46.9943 17.2002 46.7974 17.2002ZM43.1984 8.07832C43.0104 8.07832 42.8537 8.02061 42.7284 7.9052C42.612 7.78091 42.5538 7.62555 42.5538 7.43912C42.5538 7.25268 42.612 7.10176 42.7284 6.98635C42.8537 6.86206 43.0104 6.79991 43.1984 6.79991H50.383C50.571 6.79991 50.7232 6.86206 50.8396 6.98635C50.9649 7.10176 51.0276 7.25268 51.0276 7.43912C51.0276 7.62555 50.9649 7.78091 50.8396 7.9052C50.7232 8.02061 50.571 8.07832 50.383 8.07832H43.1984Z" fill="white"/>
<path d="M57.2873 17.2002C57.0903 17.2002 56.9247 17.1337 56.7904 17.0005C56.6561 16.8673 56.589 16.7031 56.589 16.5078V6.79991H57.9856V16.5078C57.9856 16.7031 57.9185 16.8673 57.7842 17.0005C57.6499 17.1337 57.4843 17.2002 57.2873 17.2002ZM53.6883 8.07832C53.5003 8.07832 53.3436 8.02061 53.2183 7.9052C53.1019 7.78091 53.0437 7.62555 53.0437 7.43912C53.0437 7.25268 53.1019 7.10176 53.2183 6.98635C53.3436 6.86206 53.5003 6.79991 53.6883 6.79991H60.8729C61.0609 6.79991 61.2131 6.86206 61.3295 6.98635C61.4548 7.10176 61.5175 7.25268 61.5175 7.43912C61.5175 7.62555 61.4548 7.78091 61.3295 7.9052C61.2131 8.02061 61.0609 8.07832 60.8729 8.07832H53.6883Z" fill="white"/>
<path d="M65.3734 17.2002C65.1765 17.2002 65.0108 17.1337 64.8765 17.0005C64.7423 16.8673 64.6751 16.7031 64.6751 16.5078V7.49238C64.6751 7.28819 64.7423 7.12395 64.8765 6.99966C65.0108 6.8665 65.1765 6.79991 65.3734 6.79991H71.4434C71.6493 6.79991 71.8149 6.86206 71.9403 6.98635C72.0656 7.10176 72.1283 7.25712 72.1283 7.45243C72.1283 7.63887 72.0656 7.78979 71.9403 7.9052C71.8149 8.02061 71.6493 8.07832 71.4434 8.07832H66.0717V11.3143H69.9259C70.1318 11.3143 70.2974 11.3764 70.4228 11.5007C70.5481 11.6161 70.6108 11.767 70.6108 11.9535C70.6108 12.1399 70.5481 12.2953 70.4228 12.4196C70.2974 12.535 70.1318 12.5927 69.9259 12.5927H66.0717V15.9218H71.4434C71.6493 15.9218 71.8149 15.9796 71.9403 16.095C72.0656 16.2104 72.1283 16.3613 72.1283 16.5477C72.1283 16.743 72.0656 16.9028 71.9403 17.0271C71.8149 17.1425 71.6493 17.2002 71.4434 17.2002H65.3734Z" fill="white"/>
<path d="M76.3879 17.2002C76.191 17.2002 76.0253 17.1337 75.891 17.0005C75.7567 16.8673 75.6896 16.7031 75.6896 16.5078V7.49238C75.6896 7.28819 75.7567 7.12395 75.891 6.99966C76.0253 6.8665 76.191 6.79991 76.3879 6.79991C76.5938 6.79991 76.7595 6.8665 76.8848 6.99966C77.0191 7.12395 77.0862 7.28819 77.0862 7.49238V11.3143H83.3173V7.49238C83.3173 7.28819 83.3845 7.12395 83.5188 6.99966C83.6531 6.8665 83.8187 6.79991 84.0157 6.79991C84.2216 6.79991 84.3872 6.8665 84.5125 6.99966C84.6379 7.12395 84.7005 7.28819 84.7005 7.49238V16.5078C84.7005 16.7031 84.6379 16.8673 84.5125 17.0005C84.3872 17.1337 84.2216 17.2002 84.0157 17.2002C83.8187 17.2002 83.6531 17.1337 83.5188 17.0005C83.3845 16.8673 83.3173 16.7031 83.3173 16.5078V12.5394H77.0862V16.5078C77.0862 16.7031 77.0191 16.8673 76.8848 17.0005C76.7595 17.1337 76.5938 17.2002 76.3879 17.2002Z" fill="white"/>
<path d="M89.6974 17.2002C89.5005 17.2002 89.3348 17.1337 89.2006 17.0005C89.0663 16.8673 88.9991 16.7031 88.9991 16.5078V7.49238C88.9991 7.28819 89.0663 7.12395 89.2006 6.99966C89.3348 6.8665 89.5005 6.79991 89.6974 6.79991H92.1147C92.7861 6.79991 93.3815 6.94196 93.9007 7.22605C94.42 7.50126 94.8229 7.88301 95.1094 8.37128C95.4048 8.85956 95.5525 9.42774 95.5525 10.0758C95.5525 10.6795 95.4048 11.2166 95.1094 11.6871C94.8229 12.1577 94.42 12.5261 93.9007 12.7924C93.3815 13.0588 92.7861 13.1919 92.1147 13.1919H90.3957V16.5078C90.3957 16.7031 90.3286 16.8673 90.1943 17.0005C90.069 17.1337 89.9033 17.2002 89.6974 17.2002ZM95.2705 17.2002C95.1452 17.2002 95.0288 17.1736 94.9213 17.1203C94.8229 17.0671 94.7378 16.9827 94.6662 16.8673L92.249 13.0055L93.6053 12.6193L95.8077 16.1349C95.9688 16.3924 95.9912 16.6365 95.8748 16.8673C95.7584 17.0893 95.557 17.2002 95.2705 17.2002ZM90.3957 11.9135H92.1147C92.5265 11.9135 92.8891 11.8381 93.2024 11.6871C93.5158 11.5273 93.762 11.3098 93.941 11.0346C94.1201 10.7505 94.2096 10.4309 94.2096 10.0758C94.2096 9.6852 94.1201 9.33896 93.941 9.03712C93.762 8.73527 93.5158 8.50001 93.2024 8.33133C92.8891 8.16266 92.5265 8.07832 92.1147 8.07832H90.3957V11.9135Z" fill="white"/>
</svg>
