<svg width="52" height="50" viewBox="0 0 52 50" fill="none" xmlns="http://www.w3.org/2000/svg">
<path d="M17.972 22.2995L27.68 46.1531L36.5775 22.1996L27.6896 25.2438L17.972 22.2995ZM1.91377 16.7487L11.1982 11.6816C11.1982 11.6816 4.69909 4.16163 11.1982 0.551332C11.1982 0.551332 20.1228 -2.59831 19.9681 6.30745C19.9681 6.30745 19.9681 9.22486 17.9565 12.1423C17.9275 12.1826 27.6877 17.7737 27.6877 17.7737L37.9179 10.9139C37.9179 10.9139 33.6703 5.88137 35.8193 2.21349C36.6007 0.88146 38.0785 0.106044 39.6318 0.123318C42.0766 0.152108 46.214 0.996621 44.8813 6.61455C44.8813 6.61455 43.9529 9.53197 41.9412 11.0674L51.8446 17.8235L50.7943 25.1938L42.6105 21.6623L51.8948 48.6867L42.9199 49.9151L39.4383 37.0938L35.3202 49.9151H18.3839L14.2156 37.0938L10.4361 49.9151L0.132324 48.7635L10.8113 21.8925L1.86349 25.0191L1.91377 16.7487Z" fill="#C497FF"/>
</svg>
