<svg width="127" height="80" viewBox="0 0 127 80" fill="none" xmlns="http://www.w3.org/2000/svg">
<path d="M10.2512 80C8.73635 80 7.35058 79.7505 6.09392 79.2515C4.83727 78.7353 3.75275 78.0212 2.84039 77.1092C1.94524 76.1801 1.24805 75.0874 0.748829 73.8313C0.24961 72.558 0 71.1642 0 69.65C0 68.1358 0.24961 66.7506 0.748829 65.4945C1.24805 64.2384 1.94524 63.1544 2.84039 62.2424C3.75275 61.3132 4.83727 60.5992 6.09392 60.1002C7.35058 59.5839 8.73635 59.3258 10.2512 59.3258C11.7661 59.3258 13.1432 59.5839 14.3827 60.1002C15.6393 60.5992 16.7239 61.3132 17.6362 62.2424C18.5486 63.1544 19.2544 64.2384 19.7536 65.4945C20.2528 66.7506 20.5024 68.1358 20.5024 69.65C20.5024 71.1642 20.2528 72.558 19.7536 73.8313C19.2544 75.0874 18.5486 76.1801 17.6362 77.1092C16.7239 78.0212 15.6393 78.7353 14.3827 79.2515C13.1432 79.7505 11.7661 80 10.2512 80ZM10.2512 77.5738C11.3702 77.5738 12.3944 77.3759 13.324 76.9802C14.2708 76.5672 15.0885 76.008 15.7771 75.3025C16.4656 74.5798 16.9907 73.7367 17.3522 72.7731C17.7309 71.8095 17.9203 70.7685 17.9203 69.65C17.9203 68.5316 17.7309 67.4905 17.3522 66.527C16.9907 65.5634 16.4656 64.7288 15.7771 64.0233C15.0885 63.3006 14.2708 62.7414 13.324 62.3457C12.3944 61.9499 11.3702 61.752 10.2512 61.752C9.13228 61.752 8.09941 61.9499 7.15261 62.3457C6.22303 62.7414 5.41395 63.3006 4.72537 64.0233C4.05401 64.7288 3.52897 65.5634 3.15025 66.527C2.77153 67.4905 2.58217 68.5316 2.58217 69.65C2.58217 70.7685 2.77153 71.8095 3.15025 72.7731C3.52897 73.7367 4.05401 74.5798 4.72537 75.3025C5.41395 76.008 6.22303 76.5672 7.15261 76.9802C8.09941 77.3759 9.13228 77.5738 10.2512 77.5738Z" fill="white"/>
<path d="M32.234 79.7419C31.8552 79.7419 31.5368 79.6128 31.2786 79.3547C31.0203 79.0966 30.8912 78.7783 30.8912 78.3998V59.5839H33.5767V78.3998C33.5767 78.7783 33.4476 79.0966 33.1894 79.3547C32.9311 79.6128 32.6127 79.7419 32.234 79.7419ZM25.3137 62.0617C24.9522 62.0617 24.651 61.9499 24.41 61.7262C24.1862 61.4853 24.0743 61.1842 24.0743 60.8228C24.0743 60.4615 24.1862 60.169 24.41 59.9453C24.651 59.7044 24.9522 59.5839 25.3137 59.5839H39.1284C39.4899 59.5839 39.7825 59.7044 40.0063 59.9453C40.2473 60.169 40.3678 60.4615 40.3678 60.8228C40.3678 61.1842 40.2473 61.4853 40.0063 61.7262C39.7825 61.9499 39.4899 62.0617 39.1284 62.0617H25.3137Z" fill="white"/>
<path d="M52.4041 79.7419C52.0254 79.7419 51.707 79.6128 51.4487 79.3547C51.1905 79.0966 51.0614 78.7783 51.0614 78.3998V59.5839H53.7469V78.3998C53.7469 78.7783 53.6178 79.0966 53.3595 79.3547C53.1013 79.6128 52.7829 79.7419 52.4041 79.7419ZM45.4839 62.0617C45.1224 62.0617 44.8212 61.9499 44.5802 61.7262C44.3564 61.4853 44.2445 61.1842 44.2445 60.8228C44.2445 60.4615 44.3564 60.169 44.5802 59.9453C44.8212 59.7044 45.1224 59.5839 45.4839 59.5839H59.2985C59.66 59.5839 59.9527 59.7044 60.1765 59.9453C60.4175 60.169 60.538 60.4615 60.538 60.8228C60.538 61.1842 60.4175 61.4853 60.1765 61.7262C59.9527 61.9499 59.66 62.0617 59.2985 62.0617H45.4839Z" fill="white"/>
<path d="M67.9522 79.7419C67.5735 79.7419 67.2551 79.6128 66.9968 79.3547C66.7386 79.0966 66.6095 78.7783 66.6095 78.3998V60.9261C66.6095 60.5303 66.7386 60.212 66.9968 59.9711C67.2551 59.713 67.5735 59.5839 67.9522 59.5839H79.6237C80.0196 59.5839 80.3381 59.7044 80.5791 59.9453C80.8201 60.169 80.9406 60.4701 80.9406 60.8487C80.9406 61.21 80.8201 61.5025 80.5791 61.7262C80.3381 61.9499 80.0196 62.0617 79.6237 62.0617H69.295V68.3337H76.7058C77.1017 68.3337 77.4202 68.4541 77.6612 68.695C77.9022 68.9187 78.0227 69.2112 78.0227 69.5726C78.0227 69.9339 77.9022 70.2351 77.6612 70.476C77.4202 70.6996 77.1017 70.8115 76.7058 70.8115H69.295V77.2641H79.6237C80.0196 77.2641 80.3381 77.3759 80.5791 77.5996C80.8201 77.8233 80.9406 78.1158 80.9406 78.4772C80.9406 78.8557 80.8201 79.1655 80.5791 79.4064C80.3381 79.6301 80.0196 79.7419 79.6237 79.7419H67.9522Z" fill="white"/>
<path d="M89.1311 79.7419C88.7524 79.7419 88.4339 79.6128 88.1757 79.3547C87.9175 79.0966 87.7884 78.7783 87.7884 78.3998V60.9261C87.7884 60.5303 87.9175 60.212 88.1757 59.9711C88.4339 59.713 88.7524 59.5839 89.1311 59.5839C89.527 59.5839 89.8455 59.713 90.0865 59.9711C90.3447 60.212 90.4738 60.5303 90.4738 60.9261V68.3337H102.455V60.9261C102.455 60.5303 102.584 60.212 102.842 59.9711C103.101 59.713 103.419 59.5839 103.798 59.5839C104.194 59.5839 104.512 59.713 104.753 59.9711C104.994 60.212 105.115 60.5303 105.115 60.9261V78.3998C105.115 78.7783 104.994 79.0966 104.753 79.3547C104.512 79.6128 104.194 79.7419 103.798 79.7419C103.419 79.7419 103.101 79.6128 102.842 79.3547C102.584 79.0966 102.455 78.7783 102.455 78.3998V70.7082H90.4738V78.3998C90.4738 78.7783 90.3447 79.0966 90.0865 79.3547C89.8455 79.6128 89.527 79.7419 89.1311 79.7419Z" fill="white"/>
<path d="M114.723 79.7419C114.344 79.7419 114.026 79.6128 113.767 79.3547C113.509 79.0966 113.38 78.7783 113.38 78.3998V60.9261C113.38 60.5303 113.509 60.212 113.767 59.9711C114.026 59.713 114.344 59.5839 114.723 59.5839H119.371C120.662 59.5839 121.807 59.8593 122.805 60.4099C123.803 60.9433 124.578 61.6832 125.129 62.6296C125.697 63.576 125.981 64.6772 125.981 65.9333C125.981 67.1034 125.697 68.1444 125.129 69.0564C124.578 69.9683 123.803 70.6824 122.805 71.1986C121.807 71.7149 120.662 71.973 119.371 71.973H116.066V78.3998C116.066 78.7783 115.936 79.0966 115.678 79.3547C115.437 79.6128 115.119 79.7419 114.723 79.7419ZM125.439 79.7419C125.198 79.7419 124.974 79.6903 124.767 79.587C124.578 79.4838 124.415 79.3203 124.277 79.0966L119.629 71.6116L122.237 70.8631L126.472 77.6771C126.782 78.1761 126.825 78.6493 126.601 79.0966C126.377 79.5268 125.99 79.7419 125.439 79.7419ZM116.066 69.4952H119.371C120.163 69.4952 120.86 69.3489 121.462 69.0564C122.065 68.7467 122.538 68.3251 122.882 67.7917C123.227 67.241 123.399 66.6216 123.399 65.9333C123.399 65.1762 123.227 64.5051 122.882 63.9201C122.538 63.3351 122.065 62.8791 121.462 62.5521C120.86 62.2252 120.163 62.0617 119.371 62.0617H116.066V69.4952Z" fill="white"/>
<circle cx="63.0548" cy="21.9982" r="21.9982" fill="#EFF5FF"/>
<mask id="mask0_13124_572" style="mask-type:alpha" maskUnits="userSpaceOnUse" x="41" y="0" width="45" height="44">
<circle cx="63.0548" cy="21.9982" r="21.9982" fill="white"/>
</mask>
<g mask="url(#mask0_13124_572)">
<ellipse cx="63.0402" cy="27.1074" rx="11.0744" ry="13.2231" fill="white"/>
<path fill-rule="evenodd" clip-rule="evenodd" d="M83.1165 51.2907L82.9752 51.2269V51.2907H83.1165ZM47.7638 51.2907H63.1054H63.2409H78.5824C82.566 51.2907 83.4561 51.249 83.4561 51.0625C83.4561 50.9372 83.1803 49.6657 82.8431 48.2373C82.4422 46.5378 81.6402 41.5841 80.5227 33.9031L78.815 22.1659C81.5152 19.6233 80.4188 16.1656 77.0454 15.9126C77.0454 15.9126 76.6651 15.1324 76.3974 14.6241C75.8823 13.646 74.8157 12.543 73.5721 11.7027C71.1464 10.0638 67.1854 9.13293 63.1731 9.16675C59.1608 9.13293 55.1998 10.0638 52.7741 11.7027C51.5305 12.543 50.4639 13.646 49.9488 14.6241C49.6811 15.1324 49.3008 15.9126 49.3008 15.9126C45.9274 16.1656 44.831 19.6233 47.5312 22.1659L45.8235 33.9031C44.706 41.5841 43.904 46.5378 43.5031 48.2373C43.1659 49.6657 42.8901 50.9372 42.8901 51.0625C42.8901 51.249 43.7802 51.2907 47.7638 51.2907ZM63.1731 21.2775C62.1205 21.2861 61.0489 21.3985 60.2846 21.6103C58.3839 22.1371 56.9782 22.987 56.1472 24.1119C55.8738 24.4823 55.7945 24.5991 55.7945 24.5991C54.8778 24.2408 52.9524 24.4743 52.9524 25.1051C52.9524 25.3898 53.2054 25.5268 53.4741 25.4047L53.515 25.3942C53.7825 25.3252 54.2781 25.1974 54.6801 25.1974C55.0902 25.1974 55.2809 25.2505 55.3458 25.2686C55.3637 25.2736 55.372 25.2759 55.3729 25.2738C55.3126 25.431 55.1403 26.0275 55.1403 26.159C55.1403 26.159 54.9512 26.1171 54.6138 26.1171C53.7114 26.1171 52.9524 26.7237 52.9524 27.0448C52.9524 27.357 53.2897 27.6351 53.5427 27.3821C53.5576 27.3672 53.5725 27.3517 53.5878 27.3357L53.5879 27.3356C53.7458 27.1707 53.9472 26.9604 54.6391 26.9604H55.1451C55.2294 27.5508 55.8719 28.4637 56.7107 28.9201C59.2746 30.3157 62.9101 29.0011 62.8241 26.7095C62.7823 25.5994 61.7967 24.5128 60.5582 24.2112C60.0014 24.0758 59.9783 23.9189 60.4503 23.4792C60.9177 23.0437 62.0448 22.8103 63.1731 22.8125C64.3015 22.8104 65.4285 23.0438 65.8959 23.4792C66.3679 23.9189 66.3448 24.0758 65.788 24.2112C64.5494 24.5128 63.5639 25.5994 63.5221 26.7095C63.4361 29.0011 67.0716 30.3157 69.6355 28.9201C70.4743 28.4637 71.1168 27.5508 71.2011 26.9604H71.7071C72.399 26.9604 72.6004 27.1707 72.7583 27.3356L72.7584 27.3357C72.7737 27.3517 72.7886 27.3672 72.8035 27.3821C73.0565 27.6351 73.3938 27.357 73.3938 27.0448C73.3938 26.7237 72.6348 26.1171 71.7324 26.1171C71.395 26.1171 71.2059 26.159 71.2059 26.159C71.2059 26.0275 71.0336 25.431 70.9733 25.2738C70.9742 25.2759 70.9825 25.2736 71.0004 25.2686C71.0653 25.2505 71.256 25.1974 71.6661 25.1974C72.068 25.1974 72.5637 25.3252 72.8312 25.3942L72.8721 25.4047C73.1408 25.5268 73.3938 25.3898 73.3938 25.1051C73.3938 24.4743 71.4684 24.2408 70.5517 24.5991C70.5517 24.5991 70.4724 24.4823 70.199 24.1119C69.368 22.987 67.9623 22.1371 66.0616 21.6103C65.2973 21.3985 64.2257 21.2861 63.1731 21.2775ZM43.2297 51.2907L43.3711 51.2269V51.2907H43.2297Z" fill="url(#paint0_linear_13124_572)"/>
<ellipse cx="71.2265" cy="20.72" rx="1.34935" ry="1.60236" fill="white"/>
<ellipse cx="55.0342" cy="20.72" rx="1.34935" ry="1.60236" fill="white"/>
<ellipse cx="63.1302" cy="30.25" rx="0.506007" ry="1.68669" transform="rotate(90 63.1302 30.25)" fill="white"/>
</g>
<defs>
<linearGradient id="paint0_linear_13124_572" x1="79.7617" y1="15.3222" x2="47.0293" y2="50.2484" gradientUnits="userSpaceOnUse">
<stop stop-color="#226CFB"/>
<stop offset="1" stop-color="#48E9DF"/>
</linearGradient>
</defs>
</svg>
