<svg width="255" height="267" viewBox="0 0 255 267" fill="none" xmlns="http://www.w3.org/2000/svg">
<ellipse cx="139.174" cy="112.102" rx="77.8494" ry="93.4193" fill="white"/>
<path fill-rule="evenodd" clip-rule="evenodd" d="M251.304 257.644L250.441 257.255V257.644H251.304ZM35.0793 257.644H128.912H129.742H223.574C247.939 257.644 253.382 257.39 253.382 256.249C253.382 255.482 251.696 247.706 249.633 238.969C247.181 228.574 242.276 198.277 235.442 151.298L224.996 79.5112C241.511 63.9601 234.806 42.812 214.174 41.2646C214.174 41.2646 211.847 36.4929 210.21 33.3836C207.06 27.4013 200.536 20.6555 192.93 15.516C178.094 5.492 153.867 -0.201599 129.327 0.00545778C104.786 -0.201599 80.5593 5.492 65.7234 15.516C58.1173 20.6555 51.5934 27.4013 48.4428 33.3836C46.8056 36.4929 44.4795 41.2646 44.4795 41.2646C23.8472 42.812 17.1417 63.9601 33.6567 79.5112L23.2116 151.298C16.3771 198.277 11.4718 228.574 9.01965 238.969C6.95746 247.706 5.27075 255.482 5.27075 256.249C5.27075 257.39 10.7146 257.644 35.0793 257.644ZM129.327 74.0771C122.889 74.1296 116.334 74.8173 111.659 76.1131C100.034 79.3348 91.4364 84.5331 86.3536 91.413C84.6814 93.6784 84.1967 94.3928 84.1967 94.3928C78.5899 92.2016 66.8135 93.6294 66.8135 97.4876C66.8135 99.229 68.3609 100.067 70.0046 99.3203L70.2548 99.2559C71.8904 98.8341 74.9222 98.0524 77.3806 98.0524C79.8892 98.0524 81.0551 98.3771 81.4524 98.4877C81.5616 98.5181 81.6127 98.5324 81.6177 98.5192C81.2494 99.4807 80.1956 103.129 80.1956 103.934C80.1956 103.934 79.0386 103.677 76.9754 103.677C71.4557 103.677 66.8135 107.387 66.8135 109.351C66.8135 111.261 68.8767 112.962 70.4241 111.414C70.5153 111.323 70.6064 111.228 70.7 111.13L70.7003 111.13C71.6664 110.121 72.8978 108.835 77.1296 108.835H80.2245C80.7403 112.446 84.67 118.03 89.8002 120.821C105.482 129.357 127.717 121.316 127.191 107.301C126.935 100.511 120.908 93.8651 113.332 92.0206C109.927 91.1922 109.786 90.2328 112.672 87.5434C115.531 84.8798 122.426 83.4522 129.328 83.466C136.229 83.4526 143.122 84.8801 145.981 87.5434C148.867 90.2328 148.726 91.1922 145.321 92.0206C137.746 93.8651 131.718 100.511 131.462 107.301C130.936 121.316 153.171 129.357 168.853 120.821C173.983 118.03 177.913 112.446 178.429 108.835H181.523C185.755 108.835 186.987 110.121 187.953 111.13L187.953 111.13C188.047 111.228 188.138 111.323 188.229 111.414C189.776 112.962 191.84 111.261 191.84 109.351C191.84 107.387 187.197 103.677 181.678 103.677C179.614 103.677 178.458 103.934 178.458 103.934C178.458 103.129 177.404 99.4807 177.035 98.5192C177.04 98.5324 177.092 98.5181 177.201 98.4877C177.598 98.3771 178.764 98.0524 181.272 98.0524C183.731 98.0524 186.763 98.8341 188.398 99.2559L188.649 99.3203C190.292 100.067 191.84 99.229 191.84 97.4876C191.84 93.6294 180.063 92.2016 174.456 94.3928C174.456 94.3928 173.972 93.6784 172.299 91.413C167.217 84.5331 158.619 79.3348 146.994 76.1131C142.319 74.8173 135.765 74.1296 129.327 74.0771ZM7.34956 257.644L8.2131 257.255V257.644H7.34956Z" fill="url(#paint0_linear_13050_16914)"/>
<path d="M172.599 228.551C169.567 217.235 181.189 192.366 202.234 186.727C223.28 181.088 245.779 196.814 248.811 208.13C251.844 219.447 243.173 234.394 230.834 225.136C225.824 243.23 200.078 241.753 194.658 232.036C187.554 242.316 174.22 234.602 172.599 228.551Z" fill="url(#paint1_linear_13050_16914)"/>
<ellipse cx="178.993" cy="70.0034" rx="8.25292" ry="9.80035" fill="white"/>
<ellipse cx="79.959" cy="70.0033" rx="8.25292" ry="9.80034" fill="white"/>
<ellipse cx="129.475" cy="128.29" rx="3.09485" ry="10.3161" transform="rotate(90 129.475 128.29)" fill="white"/>
<path fill-rule="evenodd" clip-rule="evenodd" d="M107.072 165.69L109.307 170.937L111.403 170.421C119.513 168.425 127.281 169.281 134.815 173.008C142.324 176.723 147.75 182.51 151.145 190.479L163.229 218.843C163.664 219.863 163.661 220.743 163.301 221.638C162.941 222.534 162.333 223.17 161.313 223.604L147.633 229.432L148.628 231.767C149.062 232.786 149.06 233.666 148.699 234.561C148.339 235.457 147.731 236.093 146.712 236.527C145.692 236.962 144.812 236.959 143.917 236.599C143.022 236.238 142.385 235.631 141.951 234.611L137.117 223.266C136.683 222.246 136.685 221.366 137.046 220.471C137.406 219.575 138.014 218.939 139.033 218.505C140.053 218.071 140.933 218.073 141.828 218.433C142.724 218.794 143.36 219.402 143.794 220.421L144.789 222.756L155.13 218.35L144.469 193.324C141.544 186.46 136.545 181.578 129.589 178.778C122.632 175.978 115.645 176.035 108.781 178.96C101.917 181.884 97.0354 186.884 94.2356 193.84C91.4357 200.796 91.4926 207.783 94.417 214.647L105.079 239.673L115.421 235.267L114.426 232.933C113.992 231.913 113.994 231.033 114.354 230.138C114.715 229.243 115.323 228.606 116.342 228.172C117.362 227.738 118.241 227.74 119.137 228.101C120.032 228.461 120.668 229.069 121.103 230.088L125.936 241.434C126.371 242.453 126.368 243.333 126.008 244.229C125.647 245.124 125.04 245.76 124.02 246.195C123.001 246.629 122.121 246.626 121.226 246.266C120.33 245.906 119.694 245.298 119.26 244.278L118.265 241.944L104.585 247.772C103.565 248.206 102.686 248.204 101.79 247.844C100.895 247.483 100.259 246.875 99.8243 245.856L87.7402 217.492C84.3453 209.523 83.9308 201.6 86.4535 193.612C88.9848 185.596 93.749 179.401 100.807 174.935L102.631 173.781L100.395 168.534C97.1135 160.831 91.5689 155.368 83.859 152.265C76.1492 149.162 68.3659 149.26 60.6628 152.542C52.9596 155.824 47.4964 161.369 44.3932 169.078C41.29 176.788 41.3889 184.572 44.6707 192.275L49.4104 203.4L51.1728 203.317C54.5046 203.16 57.6107 203.933 60.5481 205.663C63.4225 207.357 65.5269 209.765 66.892 212.969C68.6452 217.084 68.6897 221.109 67.0444 225.196C65.3992 229.284 62.5791 232.156 58.4638 233.909C54.3485 235.662 50.3239 235.706 46.2363 234.061C42.1488 232.416 39.2771 229.596 37.5239 225.481C36.1589 222.276 35.8804 219.091 36.6502 215.845C37.4369 212.527 39.0314 209.752 41.4528 207.458L42.7336 206.244L37.994 195.119C33.906 185.524 33.8029 175.993 37.6746 166.374C41.5462 156.755 48.2229 149.953 57.8183 145.865C67.4136 141.778 76.9441 141.674 86.5633 145.546C96.1824 149.418 102.984 156.094 107.072 165.69ZM48.7966 211.217C46.6013 212.153 44.9778 213.752 44.0901 215.957C43.2023 218.163 43.2654 220.441 44.2006 222.636C45.1358 224.831 46.7349 226.455 48.9405 227.343C51.1462 228.23 53.4241 228.167 55.6193 227.232C57.8145 226.297 59.438 224.698 60.3258 222.492C61.2136 220.286 61.1505 218.009 60.2153 215.813C59.28 213.618 57.681 211.995 55.4753 211.107C53.2697 210.219 50.9918 210.282 48.7966 211.217Z" fill="#236AE7"/>
<path d="M85.4012 178.255C81.1395 189.168 57.0431 202.317 36.7478 194.392C16.4526 186.467 7.64376 160.468 11.9055 149.554C16.1672 138.641 32.0073 131.736 36.4628 146.505C51.2188 134.897 71.0849 151.34 69.6948 162.379C81.5083 158.306 87.6798 172.42 85.4012 178.255Z" fill="url(#paint2_linear_13050_16914)"/>
<defs>
<linearGradient id="paint0_linear_13050_16914" x1="230.786" y1="37.6537" x2="30.5878" y2="251.27" gradientUnits="userSpaceOnUse">
<stop stop-color="#226CFB"/>
<stop offset="1" stop-color="#48E9DF"/>
</linearGradient>
<linearGradient id="paint1_linear_13050_16914" x1="182.989" y1="239.565" x2="203.505" y2="171.079" gradientUnits="userSpaceOnUse">
<stop stop-color="#216AE8"/>
<stop offset="1" stop-color="#38CAEA"/>
</linearGradient>
<linearGradient id="paint2_linear_13050_16914" x1="83.5557" y1="163.226" x2="26.4535" y2="206.245" gradientUnits="userSpaceOnUse">
<stop stop-color="#216AE8"/>
<stop offset="1" stop-color="#38CAEA"/>
</linearGradient>
</defs>
</svg>
