<svg width="300" height="306" viewBox="0 0 300 306" fill="none" xmlns="http://www.w3.org/2000/svg">
<rect x="2.5" y="2.5" width="295" height="295" rx="22.5" fill="#D9F3FF" stroke="white" stroke-width="5"/>
<ellipse cx="162.174" cy="151.102" rx="77.8494" ry="93.4193" fill="white"/>
<path fill-rule="evenodd" clip-rule="evenodd" d="M274.304 296.644L273.441 296.255V296.644H274.304ZM58.0793 296.644H151.912H152.742H246.574C270.939 296.644 276.382 296.39 276.382 295.249C276.382 294.482 274.696 286.706 272.633 277.969C270.181 267.574 265.276 237.277 258.442 190.298L247.996 118.511C264.511 102.96 257.806 81.812 237.174 80.2646C237.174 80.2646 234.847 75.4929 233.21 72.3836C230.06 66.4013 223.536 59.6555 215.93 54.516C201.094 44.492 176.867 38.7984 152.327 39.0055C127.786 38.7984 103.559 44.492 88.7234 54.516C81.1173 59.6555 74.5934 66.4013 71.4428 72.3836C69.8056 75.4929 67.4795 80.2646 67.4795 80.2646C46.8472 81.812 40.1417 102.96 56.6567 118.511L46.2116 190.298C39.3771 237.277 34.4718 267.574 32.0197 277.969C29.9575 286.706 28.2708 294.482 28.2708 295.249C28.2708 296.39 33.7146 296.644 58.0793 296.644ZM152.327 113.077C145.889 113.13 139.334 113.817 134.659 115.113C123.034 118.335 114.436 123.533 109.354 130.413C107.681 132.678 107.197 133.393 107.197 133.393C101.59 131.202 89.8135 132.629 89.8135 136.488C89.8135 138.229 91.3609 139.067 93.0046 138.32L93.2548 138.256C94.8904 137.834 97.9222 137.052 100.381 137.052C102.889 137.052 104.055 137.377 104.452 137.488C104.562 137.518 104.613 137.532 104.618 137.519C104.249 138.481 103.196 142.129 103.196 142.934C103.196 142.934 102.039 142.677 99.9754 142.677C94.4557 142.677 89.8135 146.387 89.8135 148.351C89.8135 150.261 91.8767 151.962 93.4241 150.414C93.5153 150.323 93.6064 150.228 93.7 150.13L93.7003 150.13C94.6664 149.121 95.8978 147.835 100.13 147.835H103.224C103.74 151.446 107.67 157.03 112.8 159.821C128.482 168.357 150.717 160.316 150.191 146.301C149.935 139.511 143.908 132.865 136.332 131.021C132.927 130.192 132.786 129.233 135.672 126.543C138.531 123.88 145.426 122.452 152.328 122.466C159.229 122.453 166.122 123.88 168.981 126.543C171.867 129.233 171.726 130.192 168.321 131.021C160.746 132.865 154.718 139.511 154.462 146.301C153.936 160.316 176.171 168.357 191.853 159.821C196.983 157.03 200.913 151.446 201.429 147.835H204.523C208.755 147.835 209.987 149.121 210.953 150.13L210.953 150.13C211.047 150.228 211.138 150.323 211.229 150.414C212.776 151.962 214.84 150.261 214.84 148.351C214.84 146.387 210.197 142.677 204.678 142.677C202.614 142.677 201.458 142.934 201.458 142.934C201.458 142.129 200.404 138.481 200.035 137.519C200.04 137.532 200.092 137.518 200.201 137.488C200.598 137.377 201.764 137.052 204.272 137.052C206.731 137.052 209.763 137.834 211.398 138.256L211.649 138.32C213.292 139.067 214.84 138.229 214.84 136.488C214.84 132.629 203.063 131.202 197.456 133.393C197.456 133.393 196.972 132.678 195.299 130.413C190.217 123.533 181.619 118.335 169.994 115.113C165.319 113.817 158.765 113.13 152.327 113.077ZM30.3496 296.644L31.2131 296.255V296.644H30.3496Z" fill="url(#paint0_linear_13124_748)"/>
<path d="M195.599 267.551C192.567 256.235 204.189 231.366 225.234 225.727C246.28 220.088 268.779 235.814 271.811 247.13C274.844 258.447 266.173 273.394 253.834 264.136C248.824 282.23 223.078 280.753 217.658 271.036C210.554 281.316 197.22 273.602 195.599 267.551Z" fill="url(#paint1_linear_13124_748)"/>
<ellipse cx="201.993" cy="109.003" rx="8.25292" ry="9.80035" fill="white"/>
<ellipse cx="102.959" cy="109.003" rx="8.25292" ry="9.80034" fill="white"/>
<ellipse cx="152.475" cy="167.29" rx="3.09485" ry="10.3161" transform="rotate(90 152.475 167.29)" fill="white"/>
<path fill-rule="evenodd" clip-rule="evenodd" d="M130.072 204.69L132.307 209.937L134.403 209.421C142.513 207.425 150.281 208.281 157.815 212.008C165.324 215.723 170.75 221.51 174.145 229.479L186.229 257.843C186.664 258.863 186.661 259.743 186.301 260.638C185.941 261.534 185.333 262.17 184.313 262.604L170.633 268.432L171.628 270.767C172.062 271.786 172.06 272.666 171.699 273.561C171.339 274.457 170.731 275.093 169.712 275.527C168.692 275.962 167.812 275.959 166.917 275.599C166.022 275.238 165.385 274.631 164.951 273.611L160.117 262.266C159.683 261.246 159.685 260.366 160.046 259.471C160.406 258.575 161.014 257.939 162.033 257.505C163.053 257.071 163.933 257.073 164.828 257.433C165.724 257.794 166.36 258.402 166.794 259.421L167.789 261.756L178.13 257.35L167.469 232.324C164.544 225.46 159.545 220.578 152.589 217.778C145.632 214.978 138.645 215.035 131.781 217.96C124.917 220.884 120.035 225.884 117.236 232.84C114.436 239.796 114.493 246.783 117.417 253.647L128.079 278.673L138.421 274.267L137.426 271.933C136.992 270.913 136.994 270.033 137.354 269.138C137.715 268.243 138.323 267.606 139.342 267.172C140.362 266.738 141.241 266.74 142.137 267.101C143.032 267.461 143.668 268.069 144.103 269.088L148.936 280.434C149.371 281.453 149.368 282.333 149.008 283.229C148.647 284.124 148.04 284.76 147.02 285.195C146.001 285.629 145.121 285.626 144.226 285.266C143.33 284.906 142.694 284.298 142.26 283.278L141.265 280.944L127.585 286.772C126.565 287.206 125.686 287.204 124.79 286.844C123.895 286.483 123.259 285.875 122.824 284.856L110.74 256.492C107.345 248.523 106.931 240.6 109.454 232.612C111.985 224.596 116.749 218.401 123.807 213.935L125.631 212.781L123.395 207.534C120.113 199.831 114.569 194.368 106.859 191.265C99.1492 188.162 91.3659 188.26 83.6628 191.542C75.9596 194.824 70.4964 200.369 67.3932 208.078C64.29 215.788 64.3889 223.572 67.6707 231.275L72.4104 242.4L74.1728 242.317C77.5046 242.16 80.6107 242.933 83.5481 244.663C86.4225 246.357 88.5269 248.765 89.892 251.969C91.6452 256.084 91.6897 260.109 90.0444 264.196C88.3992 268.284 85.5791 271.156 81.4638 272.909C77.3485 274.662 73.3239 274.706 69.2363 273.061C65.1488 271.416 62.2771 268.596 60.5239 264.481C59.1589 261.276 58.8804 258.091 59.6502 254.845C60.4369 251.527 62.0314 248.752 64.4528 246.458L65.7336 245.244L60.994 234.119C56.906 224.524 56.8029 214.993 60.6746 205.374C64.5462 195.755 71.2229 188.953 80.8183 184.865C90.4136 180.778 99.9441 180.674 109.563 184.546C119.182 188.418 125.984 195.094 130.072 204.69ZM71.7966 250.217C69.6013 251.153 67.9778 252.752 67.0901 254.957C66.2023 257.163 66.2654 259.441 67.2006 261.636C68.1358 263.831 69.7349 265.455 71.9405 266.343C74.1462 267.23 76.4241 267.167 78.6193 266.232C80.8145 265.297 82.438 263.698 83.3258 261.492C84.2136 259.286 84.1505 257.009 83.2153 254.813C82.28 252.618 80.681 250.995 78.4753 250.107C76.2697 249.219 73.9918 249.282 71.7966 250.217Z" fill="#236AE7"/>
<path d="M108.401 217.255C104.139 228.168 80.0431 241.317 59.7478 233.392C39.4526 225.467 30.6438 199.468 34.9055 188.554C39.1672 177.641 55.0073 170.736 59.4628 185.505C74.2188 173.897 94.0849 190.34 92.6948 201.379C104.508 197.306 110.68 211.42 108.401 217.255Z" fill="url(#paint2_linear_13124_748)"/>
<rect x="2.5" y="2.5" width="295" height="295" rx="22.5" stroke="white" stroke-width="5"/>
<defs>
<linearGradient id="paint0_linear_13124_748" x1="253.786" y1="76.6537" x2="53.5878" y2="290.27" gradientUnits="userSpaceOnUse">
<stop stop-color="#226CFB"/>
<stop offset="1" stop-color="#48E9DF"/>
</linearGradient>
<linearGradient id="paint1_linear_13124_748" x1="205.989" y1="278.565" x2="226.505" y2="210.079" gradientUnits="userSpaceOnUse">
<stop stop-color="#216AE8"/>
<stop offset="1" stop-color="#38CAEA"/>
</linearGradient>
<linearGradient id="paint2_linear_13124_748" x1="106.556" y1="202.226" x2="49.4535" y2="245.245" gradientUnits="userSpaceOnUse">
<stop stop-color="#216AE8"/>
<stop offset="1" stop-color="#38CAEA"/>
</linearGradient>
</defs>
</svg>
