<svg width="118" height="118" viewBox="0 0 118 118" fill="none" xmlns="http://www.w3.org/2000/svg">
<rect x="2.5" y="2.5" width="112.528" height="112.528" rx="22.5" fill="#D9E1FF" stroke="white" stroke-width="5"/>
<ellipse cx="59.6803" cy="61.8251" rx="29.6921" ry="34.8311" fill="white"/>
<path fill-rule="evenodd" clip-rule="evenodd" d="M93.2251 112.503L59.1724 112.496V112.503H24.8179C15.9756 112.503 14 112.41 14 111.996C14 111.718 14.6121 108.896 15.3605 105.725C16.2504 101.953 18.0306 90.9575 20.511 73.9083L24.3017 47.8557C18.3082 42.212 20.7417 34.5371 28.2294 33.9755C28.2294 33.9755 29.0736 32.2438 29.6677 31.1154C30.8111 28.9443 33.1787 26.4962 35.9391 24.631C41.3233 20.9931 50.1156 18.9268 59.0215 19.002C67.9275 18.9268 76.7198 20.9931 82.1039 24.631C84.8643 26.4962 87.2319 28.9443 88.3753 31.1154C88.9695 32.2438 89.8136 33.9755 89.8136 33.9755C97.3014 34.5371 99.7349 42.212 93.7414 47.8557L97.5321 73.9083C100.012 90.9575 101.793 101.953 102.683 105.725C103.431 108.896 104.043 111.718 104.043 111.996C104.043 112.41 102.067 112.503 93.2251 112.503ZM59.0216 45.8836C56.6851 45.9027 54.3064 46.1523 52.6098 46.6225C48.3909 47.7917 45.2707 49.6783 43.4261 52.1751C42.8192 52.9972 42.6433 53.2565 42.6433 53.2565C40.6085 52.4613 36.3347 52.9794 36.3347 54.3796C36.3347 55.0116 36.8963 55.3156 37.4928 55.0447L37.5836 55.0214C38.1772 54.8683 39.2775 54.5846 40.1697 54.5846C41.0801 54.5846 41.5032 54.7024 41.6474 54.7426C41.687 54.7536 41.7056 54.7588 41.7074 54.754C41.5737 55.1029 41.1913 56.427 41.1913 56.719C41.1913 56.719 40.7714 56.626 40.0226 56.626C38.0195 56.626 36.3347 57.9724 36.3347 58.6851C36.3347 59.3781 37.0835 59.9954 37.6451 59.4339C37.6781 59.4008 37.7112 59.3663 37.7452 59.3308L37.7453 59.3307C38.0959 58.9646 38.5428 58.4979 40.0786 58.4979H41.2018C41.389 59.8083 42.8151 61.8346 44.6769 62.8477C50.368 65.9454 58.4376 63.0274 58.2466 57.941C58.1538 55.4768 55.9662 53.065 53.2171 52.3956C51.9812 52.0949 51.9299 51.7468 52.9775 50.7707C54.015 49.8041 56.517 49.286 59.0216 49.291C61.5262 49.2861 64.028 49.8042 65.0656 50.7707C66.1131 51.7468 66.0618 52.0949 64.826 52.3956C62.0768 53.065 59.8893 55.4768 59.7964 57.941C59.6055 63.0274 67.675 65.9454 73.3661 62.8477C75.2279 61.8346 76.6541 59.8083 76.8413 58.4979H77.9645C79.5002 58.4979 79.9471 58.9646 80.2977 59.3307L80.2979 59.3308C80.3318 59.3663 80.3649 59.4008 80.398 59.4339C80.9595 59.9954 81.7083 59.3781 81.7083 58.6851C81.7083 57.9724 80.0236 56.626 78.0204 56.626C77.2716 56.626 76.8518 56.719 76.8518 56.719C76.8518 56.427 76.4693 55.1029 76.3357 54.754C76.3375 54.7588 76.356 54.7536 76.3957 54.7426C76.5398 54.7024 76.963 54.5846 77.8734 54.5846C78.7656 54.5846 79.8658 54.8683 80.4594 55.0214L80.5502 55.0447C81.1467 55.3156 81.7083 55.0116 81.7083 54.3796C81.7083 52.9794 77.4345 52.4613 75.3997 53.2565C75.3997 53.2565 75.2238 52.9972 74.6169 52.1751C72.7723 49.6783 69.6522 47.7917 65.4332 46.6225C63.7367 46.1523 61.358 45.9027 59.0216 45.8836Z" fill="url(#paint0_linear_13124_771)"/>
<ellipse cx="76.9189" cy="44.2547" rx="2.9951" ry="3.55668" fill="white"/>
<ellipse cx="40.9773" cy="44.2547" rx="2.9951" ry="3.55668" fill="white"/>
<ellipse cx="58.948" cy="65.4073" rx="1.12317" ry="3.74388" transform="rotate(90 58.948 65.4073)" fill="white"/>
<path d="M38.567 80.4113C40.5082 84.2711 38.1711 94.1206 30.9931 97.7307C23.815 101.341 14.5143 97.3444 12.573 93.4846C10.6318 89.6248 12.6449 83.5789 17.793 85.9994C18.2491 79.0908 27.6568 77.699 30.3407 80.8025C32.1372 76.5589 37.529 78.3475 38.567 80.4113Z" fill="url(#paint1_linear_13124_771)"/>
<path d="M69.0065 92.6689C70.5781 88.6444 79.4642 83.7954 86.9485 86.718C94.4328 89.6407 97.6812 99.2284 96.1096 103.253C94.538 107.277 88.6967 109.824 87.0536 104.377C81.612 108.658 74.286 102.595 74.7986 98.5236C70.4421 100.026 68.1663 94.8207 69.0065 92.6689Z" fill="url(#paint2_linear_13124_771)"/>
<rect x="2.5" y="2.5" width="112.528" height="112.528" rx="22.5" stroke="white" stroke-width="5"/>
<defs>
<linearGradient id="paint0_linear_13124_771" x1="95.8422" y1="32.6651" x2="23.1875" y2="110.189" gradientUnits="userSpaceOnUse">
<stop stop-color="#3138D6"/>
<stop offset="1" stop-color="#9086FF"/>
</linearGradient>
<linearGradient id="paint1_linear_13124_771" x1="33.9912" y1="77.211" x2="31.7043" y2="103.476" gradientUnits="userSpaceOnUse">
<stop stop-color="#2C31BB"/>
<stop offset="1" stop-color="#9D50FF"/>
</linearGradient>
<linearGradient id="paint2_linear_13124_771" x1="69.6871" y1="98.2111" x2="90.7448" y2="82.3469" gradientUnits="userSpaceOnUse">
<stop stop-color="#2C31BB"/>
<stop offset="1" stop-color="#9D50FF"/>
</linearGradient>
</defs>
</svg>
