<svg width="100" height="100" viewBox="0 0 100 100" fill="none" xmlns="http://www.w3.org/2000/svg">
<circle cx="50" cy="50" r="50" fill="#D9F3FF"/>
<mask id="mask0_13124_2635" style="mask-type:alpha" maskUnits="userSpaceOnUse" x="0" y="0" width="100" height="100">
<circle cx="50" cy="50" r="50" fill="url(#paint0_linear_13124_2635)"/>
</mask>
<g mask="url(#mask0_13124_2635)">
<ellipse cx="52.9416" cy="53.1997" rx="25.1388" ry="30.1666" fill="white"/>
<path fill-rule="evenodd" clip-rule="evenodd" d="M10.3738 100.198L10.6525 100.072V100.198H10.3738ZM80.1961 100.198H49.8964H49.6281H19.3283C11.4605 100.198 9.70264 100.115 9.70264 99.7468C9.70264 99.4993 10.2473 96.9882 10.9132 94.167C11.7051 90.8104 13.2891 81.0268 15.496 65.8566L18.8689 42.6755C13.536 37.6538 15.7013 30.8247 22.3638 30.325C22.3638 30.325 23.1149 28.7841 23.6436 27.7801C24.661 25.8483 26.7676 23.67 29.2238 22.0104C34.0145 18.7735 41.8378 16.9349 49.7622 17.0018C57.6866 16.9349 65.5099 18.7735 70.3006 22.0104C72.7568 23.67 74.8635 25.8483 75.8808 27.7801C76.4095 28.7841 77.1606 30.325 77.1606 30.325C83.8231 30.8247 85.9884 37.6538 80.6555 42.6755L84.0284 65.8566C86.2354 81.0268 87.8194 90.8104 88.6112 94.167C89.2771 96.9882 89.8218 99.4993 89.8218 99.7468C89.8218 100.115 88.0639 100.198 80.1961 100.198ZM49.7622 40.9207C51.8412 40.9377 53.9577 41.1597 55.4673 41.5781C59.2212 42.6185 61.9975 44.2971 63.6388 46.5187C64.1788 47.2503 64.3353 47.481 64.3353 47.481C66.1458 46.7734 69.9486 47.2344 69.9486 48.4803C69.9486 49.0426 69.4489 49.3131 68.9182 49.0721L68.8374 49.0513C68.3092 48.9151 67.3302 48.6627 66.5363 48.6627C65.7263 48.6627 65.3498 48.7676 65.2215 48.8033C65.1862 48.8131 65.1697 48.8177 65.1681 48.8135C65.2871 49.1239 65.6273 50.302 65.6273 50.5619C65.6273 50.5619 66.0009 50.4791 66.6672 50.4791C68.4496 50.4791 69.9486 51.6771 69.9486 52.3113C69.9486 52.9279 69.2824 53.4772 68.7827 52.9775C68.7532 52.9481 68.7238 52.9173 68.6935 52.8857C68.3815 52.5599 67.9839 52.1447 66.6174 52.1447H65.618C65.4514 53.3106 64.1825 55.1137 62.5258 56.0151C57.462 58.7714 50.2818 56.175 50.4517 51.6492C50.5343 49.4566 52.4808 47.3106 54.9269 46.7149C56.0266 46.4474 56.0722 46.1376 55.1401 45.2692C54.2169 44.4091 51.9909 43.9482 49.7623 43.9525C47.5337 43.9481 45.3075 44.4091 44.3843 45.2692C43.4522 46.1376 43.4978 46.4474 44.5975 46.7149C47.0436 47.3106 48.9901 49.4566 49.0727 51.6492C49.2426 56.175 42.0624 58.7714 36.9986 56.0151C35.3419 55.1137 34.073 53.3106 33.9064 52.1447H32.907C31.5405 52.1447 31.1429 52.5599 30.8309 52.8857L30.8308 52.8858C30.8006 52.9174 30.7711 52.9481 30.7417 52.9775C30.242 53.4772 29.5758 52.9279 29.5758 52.3113C29.5758 51.6771 31.0748 50.4791 32.8572 50.4791C33.5235 50.4791 33.8971 50.5619 33.8971 50.5619C33.8971 50.302 34.2374 49.1239 34.3563 48.8135C34.3547 48.8177 34.3382 48.8131 34.3029 48.8033C34.1746 48.7676 33.7981 48.6627 32.9881 48.6627C32.1942 48.6627 31.2152 48.9151 30.6871 49.0513L30.6062 49.0721C30.0755 49.3131 29.5758 49.0426 29.5758 48.4803C29.5758 47.2344 33.3786 46.7734 35.1891 47.481C35.1891 47.481 35.3456 47.2503 35.8856 46.5187C37.5269 44.2971 40.3032 42.6185 44.0572 41.5781C45.5667 41.1597 47.6833 40.9377 49.7622 40.9207ZM89.1506 100.198L88.872 100.072V100.198H89.1506Z" fill="url(#paint1_linear_13124_2635)"/>
<path d="M63.7353 90.803C62.7562 87.1486 66.5091 79.118 73.305 77.2971C80.1009 75.4761 87.3664 80.5543 88.3456 84.2087C89.3247 87.863 86.525 92.6897 82.5405 89.7001C80.9227 95.5429 72.6088 95.0659 70.8585 91.9282C68.5646 95.2479 64.2589 92.7568 63.7353 90.803Z" fill="url(#paint2_linear_13124_2635)"/>
<ellipse cx="65.8" cy="39.6052" rx="2.665" ry="3.16469" fill="white"/>
<ellipse cx="33.8203" cy="39.6052" rx="2.665" ry="3.16469" fill="white"/>
<ellipse cx="49.8099" cy="58.4269" rx="0.999376" ry="3.33125" transform="rotate(90 49.8099 58.4269)" fill="white"/>
<path fill-rule="evenodd" clip-rule="evenodd" d="M42.5758 70.5037L43.2976 72.1981L43.9742 72.0315C46.5931 71.3868 49.1016 71.6632 51.5345 72.8669C53.9592 74.0665 55.7115 75.9354 56.8078 78.5086L60.7099 87.6679C60.8502 87.9971 60.8494 88.2812 60.733 88.5703C60.6167 88.8595 60.4204 89.0649 60.0912 89.2052L55.6736 91.0872L55.9948 91.841C56.135 92.1702 56.1343 92.4543 56.0179 92.7435C55.9015 93.0326 55.7052 93.238 55.3761 93.3783C55.0469 93.5185 54.7627 93.5178 54.4736 93.4014C54.1845 93.285 53.979 93.0887 53.8388 92.7595L52.2779 89.0958C52.1377 88.7667 52.1385 88.4825 52.2548 88.1934C52.3712 87.9042 52.5675 87.6988 52.8967 87.5586C53.2259 87.4183 53.51 87.4191 53.7991 87.5355C54.0883 87.6518 54.2937 87.8481 54.4339 88.1773L54.7551 88.9312L58.0946 87.5084L54.6518 79.4271C53.7075 77.2106 52.093 75.6343 49.8468 74.7302C47.6005 73.8261 45.3442 73.8444 43.1277 74.7888C40.9111 75.7331 39.3348 77.3475 38.4307 79.5938C37.5266 81.8401 37.545 84.0963 38.4893 86.3129L41.9321 94.3941L45.2717 92.9714L44.9505 92.2175C44.8103 91.8884 44.811 91.6042 44.9274 91.3151C45.0438 91.026 45.2401 90.8205 45.5693 90.6803C45.8984 90.54 46.1826 90.5408 46.4717 90.6572C46.7608 90.7735 46.9663 90.9698 47.1065 91.299L48.6674 94.9627C48.8076 95.2919 48.8069 95.576 48.6905 95.8652C48.5741 96.1543 48.3778 96.3598 48.0486 96.5C47.7195 96.6402 47.4353 96.6395 47.1462 96.5231C46.8571 96.4067 46.6516 96.2104 46.5114 95.8812L46.1902 95.1274L41.7727 97.0094C41.4435 97.1497 41.1593 97.1489 40.8702 97.0325C40.5811 96.9161 40.3756 96.7199 40.2354 96.3907L36.3333 87.2314C35.237 84.6582 35.1031 82.0997 35.9178 79.5201C36.7351 76.9317 38.2736 74.9312 40.5528 73.4892L41.1416 73.1166L40.4198 71.4222C39.36 68.9348 37.5696 67.1706 35.0799 66.1685C32.5903 65.1665 30.077 65.1984 27.5895 66.2581C25.102 67.3179 23.3379 69.1083 22.3358 71.5979C21.3337 74.0876 21.3657 76.6009 22.4254 79.0884L23.9559 82.6809L24.525 82.6541C25.6009 82.6034 26.6039 82.8529 27.5525 83.4118C28.4807 83.9587 29.1602 84.7362 29.601 85.7709C30.1672 87.0998 30.1815 88.3994 29.6502 89.7193C29.119 91.0393 28.2083 91.9666 26.8794 92.5327C25.5505 93.0989 24.2509 93.1132 22.931 92.5819C21.611 92.0507 20.6837 91.14 20.1176 89.8111C19.6768 88.7765 19.5869 87.7478 19.8355 86.6995C20.0895 85.6283 20.6044 84.732 21.3863 83.9913L21.7999 83.5994L20.2694 80.0069C18.9493 76.9084 18.916 73.8309 20.1662 70.7247C21.4165 67.6185 23.5725 65.4222 26.671 64.1021C29.7695 62.7821 32.847 62.7487 35.9532 63.999C39.0594 65.2492 41.2557 67.4052 42.5758 70.5037ZM23.7577 85.2053C23.0488 85.5073 22.5246 86.0237 22.2379 86.7359C21.9512 87.4481 21.9716 88.1837 22.2736 88.8926C22.5756 89.6014 23.092 90.1257 23.8042 90.4124C24.5164 90.699 25.252 90.6787 25.9609 90.3767C26.6697 90.0747 27.194 89.5583 27.4807 88.8461C27.7674 88.1338 27.747 87.3983 27.445 86.6894C27.143 85.9805 26.6266 85.4563 25.9144 85.1696C25.2021 84.8829 24.4666 84.9033 23.7577 85.2053Z" fill="#236AE7"/>
<path d="M35.5778 74.5614C34.2016 78.0855 26.4205 82.3316 19.8668 79.7724C13.3131 77.2131 10.4686 68.8176 11.8448 65.2936C13.221 61.7695 18.336 59.5398 19.7748 64.3088C24.5397 60.5603 30.9548 65.8701 30.5059 69.4348C34.3207 68.1195 36.3136 72.6772 35.5778 74.5614Z" fill="url(#paint3_linear_13124_2635)"/>
</g>
<defs>
<linearGradient id="paint0_linear_13124_2635" x1="92.6724" y1="8.70871" x2="39.3536" y2="73.3087" gradientUnits="userSpaceOnUse">
<stop stop-color="#1F85B6"/>
<stop offset="0.375" stop-color="#568DAE"/>
<stop offset="1" stop-color="#4D72AA"/>
</linearGradient>
<linearGradient id="paint1_linear_13124_2635" x1="82.5248" y1="29.159" x2="17.8776" y2="98.139" gradientUnits="userSpaceOnUse">
<stop stop-color="#226CFB"/>
<stop offset="1" stop-color="#48E9DF"/>
</linearGradient>
<linearGradient id="paint2_linear_13124_2635" x1="67.0906" y1="94.3595" x2="73.7154" y2="72.2441" gradientUnits="userSpaceOnUse">
<stop stop-color="#216AE8"/>
<stop offset="1" stop-color="#38CAEA"/>
</linearGradient>
<linearGradient id="paint3_linear_13124_2635" x1="34.9818" y1="69.7084" x2="16.5426" y2="83.5999" gradientUnits="userSpaceOnUse">
<stop stop-color="#216AE8"/>
<stop offset="1" stop-color="#38CAEA"/>
</linearGradient>
</defs>
</svg>
