<svg width="91" height="94" viewBox="0 0 91 94" fill="none" xmlns="http://www.w3.org/2000/svg">
<g clip-path="url(#clip0_13868_28979)">
<path fill-rule="evenodd" clip-rule="evenodd" d="M91.0037 93.9999C90.7489 92.7909 90.3576 91.0409 89.9219 89.1678C89.0136 85.2872 87.2045 73.985 84.6828 56.4551L80.8245 29.6678C86.9202 23.8656 84.4465 15.9738 76.8296 15.3991C76.8296 15.3991 75.9693 13.6156 75.3527 12.4551C74.1897 10.2163 71.7825 7.70885 68.9727 5.79093C63.5084 2.0484 54.5476 -0.0747373 45.5018 0.00362094C36.4561 -0.0747373 27.4953 2.0484 22.0199 5.79093C19.2102 7.72004 16.8029 10.2238 15.6399 12.4551C15.0344 13.6156 14.163 15.3991 14.163 15.3991C6.54984 15.9738 4.0835 23.8656 10.1792 29.6678L6.32462 56.4551C3.7992 73.9924 1.99006 85.2872 1.08179 89.1678C0.642431 91.0409 0.273218 92.7947 0 93.9999H91.0037Z" fill="#A7DAFF"/>
<ellipse cx="45.5976" cy="36.194" rx="14.5839" ry="9.32836" fill="#213450"/>
<path d="M62.1534 85.2799C61.0458 81.0597 65.3249 71.7799 73.0932 69.6754C80.8614 67.5709 89.1724 73.4366 90.2911 77.6605C91.4099 81.8843 88.2088 87.4627 83.6453 84.0037C81.7992 90.7537 72.292 90.2015 70.2909 86.5784C67.6731 90.4179 62.7515 87.5373 62.1534 85.2799Z" fill="#7ABDEE"/>
<path d="M63.7814 28.9888C65.4636 28.9888 66.8274 27.3516 66.8274 25.3321C66.8274 23.3125 65.4636 21.6754 63.7814 21.6754C62.0991 21.6754 60.7354 23.3125 60.7354 25.3321C60.7354 27.3516 62.0991 28.9888 63.7814 28.9888Z" fill="#213450"/>
<path d="M27.2184 28.9888C28.9006 28.9888 30.2644 27.3516 30.2644 25.3321C30.2644 23.3125 28.9006 21.6754 27.2184 21.6754C25.5361 21.6754 24.1724 23.3125 24.1724 25.3321C24.1724 27.3516 25.5361 28.9888 27.2184 28.9888Z" fill="#213450"/>
<path d="M51.4053 33.5485C48.6104 34.2351 46.384 36.7164 46.2917 39.25C46.096 44.4739 54.3037 47.4776 60.0966 44.2948C61.9907 43.25 63.4417 41.1679 63.63 39.8172H64.7745C66.3363 39.8172 66.7905 40.2985 67.1486 40.6716L67.2483 40.7798C67.8206 41.3582 68.5811 40.7239 68.5811 40.0112C68.5811 39.2985 66.868 37.8918 64.8299 37.8918C64.4314 37.8842 64.0332 37.9167 63.6411 37.9888C63.5233 37.3009 63.348 36.6243 63.1168 35.9664C63.1168 35.9664 63.1389 35.9664 63.1758 35.9664C63.668 35.8415 64.1751 35.7875 64.6822 35.806C65.5726 35.8529 66.4547 36.0031 67.311 36.2537L67.4033 36.2798C68.0125 36.556 68.5811 36.2425 68.5811 35.5933C68.5811 34.153 64.2355 33.6231 62.1642 34.4403C62.1642 34.4403 61.987 34.1716 61.3667 33.3209C59.4911 30.7537 56.3159 28.8134 52.0256 27.6119C47.7342 26.597 43.269 26.597 38.9776 27.6119C34.6874 28.8134 31.5121 30.7537 29.6365 33.3209C29.0162 34.1642 28.839 34.4403 28.839 34.4403C26.7677 33.6157 22.4258 34.1455 22.4258 35.5858C22.4258 36.2351 22.9944 36.5485 23.6036 36.2724L23.6959 36.2463C24.5523 35.9956 25.4343 35.8454 26.3247 35.7985C26.8318 35.78 27.3389 35.834 27.8311 35.9589C27.868 35.9589 27.8901 35.9589 27.8901 35.9589C27.659 36.6168 27.4836 37.2934 27.3659 37.9813C26.9737 37.9092 26.5755 37.8767 26.177 37.8843C24.1389 37.8843 22.4258 39.2686 22.4258 40.0037C22.4258 40.7388 23.1864 41.3507 23.7586 40.7724L23.8583 40.6642C24.2275 40.291 24.6706 39.8097 26.2324 39.8097H27.3769C27.5652 41.1567 29.0162 43.2388 30.9103 44.2873C36.7033 47.4701 44.9109 44.4701 44.7152 39.2425C44.6229 36.7089 42.3965 34.2276 39.6016 33.541C38.3426 33.2313 38.2909 32.8731 39.3579 31.8694C40.4249 30.8657 42.9577 30.3433 45.5053 30.347C48.0529 30.3507 50.6004 30.8731 51.6527 31.8694C52.705 32.8657 52.6644 33.2388 51.4053 33.5485Z" fill="white"/>
<path d="M29.9578 66.515C28.385 70.5859 19.4722 75.4926 11.9956 72.5336C4.51904 69.5747 1.24781 59.8769 2.82435 55.806C4.40089 51.7351 10.2455 49.1568 11.8885 54.6679C17.3381 50.3359 24.6707 56.4702 24.1575 60.5896C28.5216 59.0709 30.7996 64.3359 29.9578 66.515Z" fill="#7ABDEE"/>
</g>
<defs>
<clipPath id="clip0_13868_28979">
<rect width="91" height="94" fill="white"/>
</clipPath>
</defs>
</svg>
