<svg width="121" height="79" viewBox="0 0 121 79" fill="none" xmlns="http://www.w3.org/2000/svg">
<path d="M9.73797 79C8.29894 79 6.98256 78.7635 5.78882 78.2906C4.59508 77.8014 3.56487 77.1247 2.69818 76.2605C1.84784 75.38 1.18556 74.3445 0.711338 73.1542C0.237113 71.9475 0 70.6267 0 69.1917C0 67.7568 0.237113 66.4441 0.711338 65.2538C1.18556 64.0634 1.84784 63.0361 2.69818 62.1719C3.56487 61.2913 4.59508 60.6146 5.78882 60.1417C6.98256 59.6526 8.29894 59.408 9.73797 59.408C11.177 59.408 12.4852 59.6526 13.6626 60.1417C14.8563 60.6146 15.8865 61.2913 16.7532 62.1719C17.6199 63.0361 18.2904 64.0634 18.7646 65.2538C19.2388 66.4441 19.4759 67.7568 19.4759 69.1917C19.4759 70.6267 19.2388 71.9475 18.7646 73.1542C18.2904 74.3445 17.6199 75.38 16.7532 76.2605C15.8865 77.1247 14.8563 77.8014 13.6626 78.2906C12.4852 78.7635 11.177 79 9.73797 79ZM9.73797 76.7008C10.8009 76.7008 11.7739 76.5133 12.6569 76.1382C13.5563 75.7469 14.333 75.2169 14.9872 74.5483C15.6413 73.8635 16.14 73.0645 16.4834 72.1513C16.8432 71.2382 17.0231 70.2516 17.0231 69.1917C17.0231 68.1318 16.8432 67.1453 16.4834 66.2321C16.14 65.319 15.6413 64.5281 14.9872 63.8596C14.333 63.1747 13.5563 62.6448 12.6569 62.2697C11.7739 61.8947 10.8009 61.7071 9.73797 61.7071C8.67505 61.7071 7.6939 61.8947 6.7945 62.2697C5.91146 62.6448 5.14289 63.1747 4.48879 63.8596C3.85104 64.5281 3.35228 65.319 2.99253 66.2321C2.63277 67.1453 2.45289 68.1318 2.45289 69.1917C2.45289 70.2516 2.63277 71.2382 2.99253 72.1513C3.35228 73.0645 3.85104 73.8635 4.48879 74.5483C5.14289 75.2169 5.91146 75.7469 6.7945 76.1382C7.6939 76.5133 8.67505 76.7008 9.73797 76.7008Z" fill="white"/>
<path d="M30.6201 78.7554C30.2604 78.7554 29.9578 78.6331 29.7125 78.3885C29.4672 78.1439 29.3446 77.8422 29.3446 77.4835V59.6526H31.8956V77.4835C31.8956 77.8422 31.773 78.1439 31.5277 78.3885C31.2824 78.6331 30.9799 78.7554 30.6201 78.7554ZM24.0464 62.0007C23.703 62.0007 23.4168 61.8947 23.1879 61.6827C22.9753 61.4544 22.869 61.169 22.869 60.8266C22.869 60.4842 22.9753 60.207 23.1879 59.995C23.4168 59.7667 23.703 59.6526 24.0464 59.6526H37.1693C37.5127 59.6526 37.7907 59.7667 38.0033 59.995C38.2322 60.207 38.3467 60.4842 38.3467 60.8266C38.3467 61.169 38.2322 61.4544 38.0033 61.6827C37.7907 61.8947 37.5127 62.0007 37.1693 62.0007H24.0464Z" fill="white"/>
<path d="M49.7804 78.7554C49.4207 78.7554 49.1181 78.6331 48.8729 78.3885C48.6276 78.1439 48.5049 77.8422 48.5049 77.4835V59.6526H51.0559V77.4835C51.0559 77.8422 50.9333 78.1439 50.688 78.3885C50.4427 78.6331 50.1402 78.7554 49.7804 78.7554ZM43.2067 62.0007C42.8633 62.0007 42.5771 61.8947 42.3482 61.6827C42.1356 61.4544 42.0293 61.169 42.0293 60.8266C42.0293 60.4842 42.1356 60.207 42.3482 59.995C42.5771 59.7667 42.8633 59.6526 43.2067 59.6526H56.3296C56.673 59.6526 56.951 59.7667 57.1636 59.995C57.3926 60.207 57.507 60.4842 57.507 60.8266C57.507 61.169 57.3926 61.4544 57.1636 61.6827C56.951 61.8947 56.673 62.0007 56.3296 62.0007H43.2067Z" fill="white"/>
<path d="M64.5501 78.7554C64.1903 78.7554 63.8878 78.6331 63.6425 78.3885C63.3972 78.1439 63.2746 77.8422 63.2746 77.4835V60.9244C63.2746 60.5494 63.3972 60.2477 63.6425 60.0194C63.8878 59.7749 64.1903 59.6526 64.5501 59.6526H75.6371C76.0133 59.6526 76.3158 59.7667 76.5447 59.995C76.7736 60.207 76.8881 60.4923 76.8881 60.8511C76.8881 61.1935 76.7736 61.4707 76.5447 61.6827C76.3158 61.8947 76.0133 62.0007 75.6371 62.0007H65.8256V67.9443H72.8654C73.2415 67.9443 73.544 68.0584 73.7729 68.2867C74.0019 68.4987 74.1163 68.7759 74.1163 69.1184C74.1163 69.4608 74.0019 69.7461 73.7729 69.9744C73.544 70.1864 73.2415 70.2924 72.8654 70.2924H65.8256V76.4073H75.6371C76.0133 76.4073 76.3158 76.5133 76.5447 76.7252C76.7736 76.9372 76.8881 77.2144 76.8881 77.5569C76.8881 77.9156 76.7736 78.2091 76.5447 78.4374C76.3158 78.6494 76.0133 78.7554 75.6371 78.7554H64.5501Z" fill="white"/>
<path d="M84.6686 78.7554C84.3088 78.7554 84.0063 78.6331 83.761 78.3885C83.5157 78.1439 83.3931 77.8422 83.3931 77.4835V60.9244C83.3931 60.5494 83.5157 60.2477 83.761 60.0194C84.0063 59.7749 84.3088 59.6526 84.6686 59.6526C85.0447 59.6526 85.3472 59.7749 85.5761 60.0194C85.8214 60.2477 85.9441 60.5494 85.9441 60.9244V67.9443H97.3255V60.9244C97.3255 60.5494 97.4481 60.2477 97.6934 60.0194C97.9387 59.7749 98.2412 59.6526 98.601 59.6526C98.9771 59.6526 99.2796 59.7749 99.5085 60.0194C99.7375 60.2477 99.8519 60.5494 99.8519 60.9244V77.4835C99.8519 77.8422 99.7375 78.1439 99.5085 78.3885C99.2796 78.6331 98.9771 78.7554 98.601 78.7554C98.2412 78.7554 97.9387 78.6331 97.6934 78.3885C97.4481 78.1439 97.3255 77.8422 97.3255 77.4835V70.1946H85.9441V77.4835C85.9441 77.8422 85.8214 78.1439 85.5761 78.3885C85.3472 78.6331 85.0447 78.7554 84.6686 78.7554Z" fill="white"/>
<path d="M108.979 78.7554C108.619 78.7554 108.317 78.6331 108.071 78.3885C107.826 78.1439 107.703 77.8422 107.703 77.4835V60.9244C107.703 60.5494 107.826 60.2477 108.071 60.0194C108.317 59.7749 108.619 59.6526 108.979 59.6526H113.394C114.621 59.6526 115.708 59.9135 116.657 60.4353C117.605 60.9407 118.341 61.6419 118.864 62.5388C119.404 63.4356 119.674 64.4792 119.674 65.6696C119.674 66.7784 119.404 67.7649 118.864 68.6292C118.341 69.4934 117.605 70.1701 116.657 70.6593C115.708 71.1485 114.621 71.3931 113.394 71.3931H110.254V77.4835C110.254 77.8422 110.132 78.1439 109.887 78.3885C109.658 78.6331 109.355 78.7554 108.979 78.7554ZM119.158 78.7554C118.93 78.7554 118.717 78.7064 118.521 78.6086C118.341 78.5108 118.185 78.3559 118.055 78.1439L113.639 71.0506L116.117 70.3413L120.14 76.7986C120.434 77.2715 120.475 77.7199 120.262 78.1439C120.05 78.5515 119.682 78.7554 119.158 78.7554ZM110.254 69.045H113.394C114.146 69.045 114.809 68.9064 115.381 68.6292C115.953 68.3356 116.403 67.9361 116.73 67.4307C117.057 66.9088 117.221 66.3218 117.221 65.6696C117.221 64.9521 117.057 64.3161 116.73 63.7617C116.403 63.2073 115.953 62.7752 115.381 62.4654C114.809 62.1556 114.146 62.0007 113.394 62.0007H110.254V69.045Z" fill="white"/>
<ellipse cx="60.0401" cy="23.7" rx="23.7" ry="23.7" fill="white"/>
<mask id="mask0_13868_30473" style="mask-type:alpha" maskUnits="userSpaceOnUse" x="36" y="0" width="48" height="48">
<ellipse cx="60.0401" cy="23.7" rx="23.7" ry="23.7" fill="#536682"/>
</mask>
<g mask="url(#mask0_13868_30473)">
<path fill-rule="evenodd" clip-rule="evenodd" d="M82.1418 54.8468C82.0182 54.2661 81.8282 53.4255 81.6167 52.5257C81.1757 50.6617 80.2975 45.2328 79.0732 36.8125L77.2002 23.9454C80.1594 21.1583 78.9585 17.3676 75.2608 17.0916C75.2608 17.0916 74.8431 16.2348 74.5438 15.6774C73.9792 14.602 72.8105 13.3976 71.4465 12.4763C68.7937 10.6786 64.4435 9.6588 60.0521 9.69644C55.6607 9.6588 51.3105 10.6786 48.6524 12.4763C47.2883 13.403 46.1197 14.6056 45.5551 15.6774C45.2611 16.2348 44.8381 17.0916 44.8381 17.0916C41.1421 17.3676 39.9448 21.1583 42.9041 23.9454L41.0328 36.8125C39.8068 45.2364 38.9285 50.6617 38.4876 52.5257C38.2743 53.4255 38.095 54.2679 37.9624 54.8468H82.1418Z" fill="#FFCD75"/>
<path d="M68.9263 23.6185C69.7429 23.6185 70.405 22.8321 70.405 21.8621C70.405 20.892 69.7429 20.1056 68.9263 20.1056C68.1096 20.1056 67.4475 20.892 67.4475 21.8621C67.4475 22.8321 68.1096 23.6185 68.9263 23.6185Z" fill="#213450"/>
<path d="M51.176 23.6185C51.9927 23.6185 52.6548 22.8321 52.6548 21.8621C52.6548 20.892 51.9927 20.1056 51.176 20.1056C50.3593 20.1056 49.6973 20.892 49.6973 21.8621C49.6973 22.8321 50.3593 23.6185 51.176 23.6185Z" fill="#213450"/>
<ellipse cx="60.0401" cy="27.176" rx="6.952" ry="4.424" fill="#213450"/>
<path d="M62.918 25.8099C61.5612 26.1396 60.4803 27.3315 60.4355 28.5485C60.3405 31.0578 64.3251 32.5006 67.1374 30.9717C68.0569 30.4699 68.7613 29.4698 68.8527 28.821H69.4084C70.1666 28.821 70.387 29.0522 70.5609 29.2314L70.6093 29.2834C70.8871 29.5612 71.2563 29.2565 71.2563 28.9142C71.2563 28.5718 70.4247 27.8961 69.4352 27.8961C69.2418 27.8925 69.0485 27.9081 68.8581 27.9427C68.8009 27.6123 68.7158 27.2873 68.6036 26.9713C68.6036 26.9713 68.6143 26.9713 68.6322 26.9713C68.8712 26.9113 69.1174 26.8853 69.3636 26.8942C69.7958 26.9167 70.224 26.9889 70.6398 27.1093L70.6846 27.1218C70.9803 27.2545 71.2563 27.1039 71.2563 26.792C71.2563 26.1002 69.1467 25.8457 68.1411 26.2382C68.1411 26.2382 68.0551 26.1092 67.754 25.7005C66.8434 24.4674 65.3019 23.5354 63.2192 22.9583C61.1358 22.4708 58.9681 22.4708 56.8848 22.9583C54.802 23.5354 53.2605 24.4674 52.35 25.7005C52.0488 26.1056 51.9628 26.2382 51.9628 26.2382C50.9572 25.8421 48.8494 26.0966 48.8494 26.7885C48.8494 27.1003 49.1254 27.2509 49.4211 27.1182L49.466 27.1057C49.8817 26.9853 50.3099 26.9131 50.7422 26.8906C50.9883 26.8817 51.2345 26.9077 51.4735 26.9677C51.4914 26.9677 51.5021 26.9677 51.5021 26.9677C51.3899 27.2837 51.3048 27.6087 51.2476 27.9391C51.0573 27.9045 50.8639 27.8889 50.6705 27.8925C49.681 27.8925 48.8494 28.5575 48.8494 28.9106C48.8494 29.2637 49.2186 29.5576 49.4964 29.2798L49.5448 29.2278C49.7241 29.0486 49.9392 28.8174 50.6973 28.8174H51.253C51.3444 29.4644 52.0488 30.4645 52.9683 30.9682C55.7806 32.497 59.7652 31.056 59.6702 28.5449C59.6254 27.3279 58.5445 26.1361 57.1877 25.8063C56.5765 25.6575 56.5514 25.4854 57.0694 25.0033C57.5874 24.5212 58.817 24.2702 60.0537 24.272C61.2905 24.2738 62.5273 24.5248 63.0381 25.0033C63.549 25.4819 63.5292 25.6611 62.918 25.8099Z" fill="white"/>
</g>
</svg>
