<svg width="16" height="18" viewBox="0 0 16 18" fill="none" xmlns="http://www.w3.org/2000/svg">
<path d="M8 0L16 6V18H0V6L8 0ZM8 12C8.83333 12 9.54167 11.7083 10.125 11.125C10.7083 10.5417 11 9.83333 11 9C11 8.16667 10.7083 7.45833 10.125 6.875C9.54167 6.29167 8.83333 6 8 6C7.16667 6 6.45833 6.29167 5.875 6.875C5.29167 7.45833 5 8.16667 5 9C5 9.83333 5.29167 10.5417 5.875 11.125C6.45833 11.7083 7.16667 12 8 12ZM8 10C7.71667 10 7.47917 9.90417 7.2875 9.7125C7.09583 9.52083 7 9.28333 7 9C7 8.71667 7.09583 8.47917 7.2875 8.2875C7.47917 8.09583 7.71667 8 8 8C8.28333 8 8.52083 8.09583 8.7125 8.2875C8.90417 8.47917 9 8.71667 9 9C9 9.28333 8.90417 9.52083 8.7125 9.7125C8.52083 9.90417 8.28333 10 8 10ZM8 15C7.31667 15 6.65 15.0833 6 15.25C5.35 15.4167 4.73333 15.6667 4.15 16H11.85C11.2667 15.6667 10.65 15.4167 10 15.25C9.35 15.0833 8.68333 15 8 15ZM2 7V15C2.86667 14.35 3.80833 13.8542 4.825 13.5125C5.84167 13.1708 6.9 13 8 13C9.1 13 10.1583 13.1708 11.175 13.5125C12.1917 13.8542 13.1333 14.35 14 15V7L8 2.5L2 7Z" fill="white"/>
</svg>
